<svg width="100%" height="100%" viewBox="0 0 203 194" fill="none" preserveAspectRatio="xMidYMid meet" xmlns="http://www.w3.org/2000/svg">
<path d="M1.33317 77.4268L0.108295 79.0352L1.76487 81.9077L3.58389 81.48C3.66145 81.5283 3.74194 81.5767 3.82242 81.6206L4.56583 83.4019H7.87899L8.41752 81.6147C8.49801 81.5708 8.57703 81.5225 8.65459 81.4741L10.5717 81.7202L12.2282 78.8477L10.8951 77.4268C10.8951 77.4268 10.8951 77.4209 10.8951 77.4194C10.8951 77.374 10.8936 77.3301 10.8921 77.2847L12.1199 75.6719L10.4634 72.7993L8.4863 73.2637L8.47752 73.2593L7.6624 71.3066H4.34925L3.76242 73.2534L3.75364 73.2578L1.65658 72.9883L0 75.8608L1.33609 77.2847C1.33609 77.3301 1.33317 77.3755 1.33317 77.4209V77.4282V77.4268ZM6.11412 75.2837C7.25558 75.2837 8.18191 76.2109 8.18191 77.3535C8.18191 78.4961 7.25558 79.4233 6.11412 79.4233C4.97266 79.4233 4.04633 78.4961 4.04633 77.3535C4.04633 76.2109 4.97266 75.2837 6.11412 75.2837Z" fill="#97A1FF"/>
<path d="M15.5984 87.6675L13.5745 90.3232L16.3111 95.0679L19.3155 94.3618C19.4443 94.4424 19.576 94.5215 19.7106 94.5947L20.9384 97.5361H26.4115L27.3013 94.5845C27.4345 94.5112 27.5647 94.4336 27.6935 94.3516L30.8603 94.7588L33.5969 90.0142L31.3944 87.6675C31.3944 87.6675 31.3944 87.6587 31.3944 87.6543C31.3944 87.5796 31.3915 87.5064 31.3886 87.4316L33.4183 84.7686L30.6818 80.0239L27.4169 80.7915L27.4023 80.7827L26.0559 77.5557H20.5828L19.614 80.771C19.614 80.771 19.6038 80.7769 19.5994 80.7798L16.134 80.333L13.3975 85.0776L15.6057 87.4302C15.6043 87.5049 15.5999 87.5796 15.5999 87.6543C15.5999 87.6587 15.5999 87.6616 15.5999 87.666L15.5984 87.6675ZM23.4964 84.7817C25.0813 84.7817 26.3662 86.0679 26.3662 87.6543C26.3662 89.2407 25.0813 90.5269 23.4964 90.5269C21.9116 90.5269 20.6267 89.2407 20.6267 87.6543C20.6267 86.0679 21.9116 84.7817 23.4964 84.7817Z" fill="#97A1FF"/>
<path d="M171.659 167.38C164.007 167.38 156.396 166.34 148.746 164.261C132.953 159.971 119.183 152.003 105.867 144.297C90.1509 135.203 75.3062 126.613 59.5268 125.811C43.6622 125.003 33.8232 133.444 25.9191 140.225C17.306 147.615 10.5031 153.451 0.0996094 144.48L0.295677 143.973C10.5031 152.775 17.2198 147.013 25.723 139.716C33.6697 132.898 43.5602 124.412 59.5397 125.225C75.3855 126.03 90.2598 134.638 106.009 143.751C124.98 154.728 145.802 166.776 171.748 166.776C181.375 166.776 191.702 165.12 202.908 161.134L202.999 161.704C192.352 165.49 181.968 167.38 171.659 167.38V167.38Z" fill="#97A1FF"/>
<path d="M86.9528 60.1783C77.9357 60.1783 68.7364 56.9747 58.9974 53.5836C39.4442 46.775 19.2255 39.7349 0.232706 60.1226L0 59.648C19.1383 39.1021 39.4471 46.1744 59.0875 53.0137C68.8037 56.3975 77.9813 59.5923 86.9528 59.5923C114.271 59.5923 133.458 48.6895 148.875 39.9283C158.664 34.3663 167.117 29.563 175.716 28.3194C185.127 26.9586 193.789 30.1505 202.974 38.3638L202.769 38.8648C182.983 21.1739 168.736 29.2686 149.017 40.4732C141.26 44.8809 132.47 49.876 122.349 53.6817C110.729 58.0513 99.1506 60.1754 86.9528 60.1754V60.1783Z" fill="#97A1FF"/>
<path d="M94.4748 51.7335C94.3115 51.7335 94.151 51.732 93.9886 51.7276C87.5897 51.5635 82.0553 49.1714 76.5713 44.1998C71.738 39.817 67.7037 34.1363 63.4319 28.1202C50.4568 9.84772 37.039 -9.04584 0.265532 10.5421L0.130859 9.99127C9.00043 5.26715 16.752 2.61432 23.8292 1.88043C30.1202 1.22858 35.7131 2.12213 40.9267 4.6109C50.5845 9.22223 57.2538 18.6133 63.7032 27.6954C72.1361 39.5694 80.1015 50.7857 93.9936 51.1417C105.787 51.4449 121.004 40.501 137.113 28.9156C148.893 20.4429 161.076 11.6817 172.425 7.06452C178.565 4.56696 183.897 3.49323 188.728 3.78034C194.186 4.10553 198.847 6.14606 202.976 10.0191L202.764 10.5142C195.166 3.38776 185.277 2.4444 172.53 7.62994C161.217 12.2325 149.051 20.982 137.286 29.4429C121.354 40.9009 106.292 51.732 94.4729 51.7335H94.4748Z" fill="#97A1FF"/>
<path d="M74.3916 13.7295H137.912C137.311 4.83937 121.655 9.66163 121.655 9.66163C121.354 -1.33788 83.0462 -5.65038 82.3686 11.4692C82.3686 11.4692 74.3916 6.80226 74.3916 13.7295V13.7295Z" fill="#97A1FF"/>
<path d="M119.606 13.0307H65.2653C65.1044 13.0307 64.9727 12.8989 64.9727 12.7378C64.9727 11.1645 65.4409 10.0981 66.3629 9.56786C68.0663 8.58934 70.7926 9.7993 71.8258 10.3296C72.4419 3.17235 80.5931 0.651357 88.1252 0.701161C96.4008 0.750966 105.401 3.87987 105.964 8.87645C107.616 8.41356 114.478 6.69676 117.933 9.07567C119.129 9.89745 119.789 11.125 119.897 12.7202C119.903 12.8008 119.874 12.8813 119.82 12.9399C119.764 13 119.687 13.0322 119.606 13.0322V13.0307ZM65.5639 12.4448H119.284C119.129 11.1894 118.564 10.2182 117.603 9.55614C113.972 7.05712 105.866 9.51219 105.786 9.5371C105.698 9.56346 105.603 9.54882 105.53 9.49462C105.456 9.44042 105.41 9.35546 105.408 9.26464C105.279 4.5537 96.3671 1.33544 88.1238 1.28563C88.0579 1.28563 87.9906 1.28563 87.9247 1.28563C80.555 1.28563 72.6614 3.78319 72.3834 10.8159C72.379 10.9184 72.3219 11.0122 72.2312 11.0605C72.1404 11.1103 72.0321 11.1089 71.9429 11.0561C71.9077 11.0356 68.4526 9.04198 66.6541 10.0747C65.9809 10.4614 65.6151 11.2583 65.5639 12.4433V12.4448Z" fill="#97A1FF"/>
<path d="M34.4199 37.2974H84.7699C84.7699 37.2974 84.306 33.5737 81.7231 33.5737C79.1402 33.5737 77.9475 35.4356 77.9475 35.4356C77.9475 35.4356 75.2314 25.4878 62.1808 25.4878C49.1301 25.4878 47.3404 35.2759 47.3404 35.2759C47.3404 35.2759 46.3467 31.3926 41.7033 31.3926C35.5424 31.3926 34.4214 37.2974 34.4214 37.2974" fill="#97A1FF"/>
<path d="M75.9549 121.049L74.6104 121.628L103.905 189.88L105.25 189.302L75.9549 121.049Z" fill="#97A1FF"/>
<path d="M100.051 121.092L77.4238 189.899L78.8139 190.357L101.441 121.55L100.051 121.092Z" fill="#97A1FF"/>
<path d="M42.8364 139.063C35.8369 139.063 22.817 138.837 20.559 140.645C18.3009 142.453 18.8277 147.275 18.8277 147.275C18.8277 147.275 27.257 148.028 43.2125 148.028C59.168 148.028 61.8022 147.275 61.8022 147.275C61.8022 147.275 63.608 141.172 60.4471 140.269C57.2861 139.365 42.8364 139.063 42.8364 139.063V139.063Z" fill="#0E5DF7"/>
<path d="M52.0599 188.674H29.0303V191.604H52.0599V188.674Z" fill="#0E5DF7"/>
<path d="M42.5157 144.938H39.5889V190.139H42.5157V144.938Z" fill="#0E5DF7"/>
<path d="M57.4004 92.0987C52.8785 102.155 54.9009 119.187 61.2228 120.063C67.5447 120.94 91.2519 120.063 91.2519 120.063C91.2519 120.063 91.4685 116.746 91.1671 115.794C90.8656 114.842 66.4208 113.48 66.4208 113.48C66.4208 113.48 67.5652 97.2974 68.4681 92.8824C68.4681 92.8824 58.3121 90.0699 57.4004 92.0987Z" fill="#D1B0B8"/>
<path d="M64.0131 104.973H68.4677V91.3633L62.4326 93.6733L64.0131 104.973Z" fill="white"/>
<path d="M55.8038 124.674C55.8038 124.674 69.0491 95.4781 68.4477 90.4712C67.8243 85.2842 45.3771 85.7398 45.3771 85.7398C28.4088 94.2388 20.6513 137.893 29.3118 140.374C29.0103 134.619 41.3541 124.374 55.8038 124.675V124.674Z" fill="white"/>
<path d="M58.3637 185.269C58.3637 185.269 58.4266 185.138 58.5452 184.894H58.2979L58.3637 185.269Z" fill="white"/>
<path d="M83.8017 131.153C81.1881 125.683 55.8053 124.674 55.8053 124.674C53.0965 124.617 50.4609 124.932 47.9688 125.518C56.5575 125.729 72.4091 131.44 72.9711 133.977C74.6203 141.426 60.6887 180.461 58.5463 184.892H62.5794C62.5794 184.892 86.4169 136.621 83.8032 131.151L83.8017 131.153Z" fill="#E33E23"/>
<path d="M78.5761 131.304C78.7181 128.708 58.905 125.267 50.3162 125.056C37.2583 127.199 29.0676 135.698 29.312 140.374C32.9749 141.423 43.3343 141.559 50.7494 141.508C55.3694 141.476 58.845 141.373 58.845 141.373L53.9806 160.078L47.5255 184.895H58.545C60.6874 180.464 77.7932 145.694 78.5761 131.305V131.304Z" fill="#F24A24"/>
<path d="M170.903 106.41L169.441 106.486L173.673 188.41L175.135 188.335L170.903 106.41Z" fill="#97A1FF"/>
<path d="M161.773 102.217L159.33 184.133L160.793 184.177L163.236 102.261L161.773 102.217Z" fill="#97A1FF"/>
<path d="M174.555 120.454H121.89C118.452 120.454 115.666 117.101 115.666 112.964L126.936 35.9688C126.936 31.832 129.722 28.479 133.16 28.479H185.825C189.262 28.479 192.049 31.832 192.049 35.9688L180.779 112.964C180.779 117.101 177.993 120.454 174.555 120.454Z" fill="#97A1FF"/>
<path d="M32.6935 101.018C28.9325 115.031 28.1072 119.187 34.4291 120.063C40.751 120.938 72.9621 120.063 72.9621 120.063C72.9621 120.063 73.7421 117.99 73.4406 117.038C73.1391 116.085 38.3862 113.05 38.3862 113.05C38.3862 113.05 39.9754 106.277 41.992 102.202L32.6935 101.018V101.018Z" fill="#F2CBD2"/>
<path d="M64.4961 120.064L72.1731 99.1694H100.509L93.0574 120.064H64.4961Z" fill="#272727"/>
<path d="M125.435 58.1582C125.435 58.1582 126.481 55.3691 125.85 52.6445C125.219 49.9199 125.85 52.6445 125.85 52.6445L130.224 52.8789C130.224 52.8789 129.92 57.4155 131.249 58.1567C131.249 58.1567 130.902 58.6489 127.93 58.6416C126.798 58.6387 125.436 58.1567 125.436 58.1567L125.435 58.1582Z" fill="#F2CBD2"/>
<path d="M128.982 43.4541C123.738 43.9199 124.965 49.2241 125.723 52.1845C126.481 55.145 128.063 55.9638 130.558 57.1137C132.82 58.1567 133.701 54.2104 134.099 52.2007C134.453 50.4136 136.508 42.7832 128.982 43.4526V43.4541Z" fill="#F2CBD2"/>
<path d="M137.788 48.7261C137.684 48.7261 137.58 48.6822 137.507 48.5957C137.376 48.4405 137.397 48.2105 137.552 48.0801L150.27 37.3794C150.351 37.3106 150.458 37.2813 150.562 37.2974C150.666 37.3135 150.758 37.3736 150.815 37.4629L156.3 46.1509L159.711 41.9439C159.838 41.7872 160.069 41.7623 160.226 41.8897C160.383 42.0171 160.408 42.2471 160.28 42.4053L156.549 47.0079C156.474 47.0987 156.36 47.1499 156.243 47.1426C156.126 47.1353 156.017 47.0723 155.954 46.9727L150.421 38.2085L138.023 48.6397C137.954 48.6968 137.871 48.7261 137.788 48.7261V48.7261Z" fill="#6171FF"/>
<path d="M141.6 38.9819C141.494 38.9819 141.389 38.9365 141.317 38.8486L139.45 36.5737L136.716 38.4882C136.551 38.604 136.322 38.5644 136.207 38.3989C136.091 38.2334 136.131 38.0048 136.296 37.8891L139.306 35.7797C139.463 35.6699 139.678 35.6992 139.8 35.8471L141.882 38.3828C142.011 38.5395 141.987 38.7695 141.832 38.8984C141.765 38.9541 141.681 38.9819 141.6 38.9819V38.9819Z" fill="#6171FF"/>
<path d="M173.236 60.2514C173.133 60.2514 173.031 60.209 172.959 60.124C172.827 59.9702 172.843 59.7402 172.997 59.6069L175.911 57.0889L172.76 55.3589C172.583 55.2622 172.519 55.0395 172.615 54.8623C172.712 54.685 172.934 54.6206 173.111 54.7173L176.724 56.7021C176.83 56.7593 176.9 56.8647 176.912 56.9848C176.923 57.105 176.878 57.2222 176.787 57.2998L173.476 60.1621C173.407 60.2222 173.322 60.2514 173.237 60.2514H173.236Z" fill="#6171FF"/>
<path d="M176.546 57.3892H136.507C136.4 57.3892 136.299 57.3438 136.231 57.2632C136.162 57.1827 136.13 57.0757 136.146 56.9717L139.156 36.0288C139.185 35.8282 139.37 35.6905 139.57 35.7183C139.771 35.7476 139.908 35.9322 139.88 36.1328L136.93 56.6582H176.546C176.748 56.6582 176.912 56.8223 176.912 57.0244C176.912 57.2266 176.748 57.3907 176.546 57.3907V57.3892Z" fill="#6171FF"/>
<path d="M170.601 77.0898H170.594L153.851 76.7515C153.649 76.7471 153.488 76.5801 153.492 76.3779C153.497 76.1787 153.659 76.019 153.858 76.019H153.865L170.608 76.3574C170.81 76.3618 170.971 76.5288 170.967 76.731C170.962 76.9302 170.8 77.0898 170.601 77.0898Z" fill="#6171FF"/>
<path d="M177.826 75.1475H177.821L153.854 74.8325C153.652 74.8296 153.491 74.6641 153.492 74.4619C153.495 74.2612 153.658 74.1001 153.858 74.1001H153.862L177.83 74.415C178.032 74.418 178.193 74.5835 178.192 74.7856C178.189 74.9863 178.026 75.1475 177.826 75.1475Z" fill="#6171FF"/>
<path d="M153.858 72.9077C153.661 72.9077 153.497 72.7495 153.492 72.5503C153.488 72.3481 153.647 72.1797 153.849 72.1753L172.925 71.7227H172.934C173.131 71.7227 173.295 71.8809 173.299 72.0801C173.304 72.2822 173.144 72.4507 172.942 72.4551L153.867 72.9077H153.858Z" fill="#6171FF"/>
<path d="M153.858 71.1001C153.659 71.1001 153.495 70.9404 153.492 70.7397C153.489 70.5376 153.65 70.3706 153.852 70.3677L175.787 70.0293C175.994 70.022 176.156 70.1875 176.159 70.3896C176.162 70.5918 176.001 70.7588 175.799 70.7617L153.864 71.1001H153.858Z" fill="#6171FF"/>
<path d="M5.85798 121.737L4.53125 122.355L37.8467 194.001L39.1735 193.383L5.85798 121.737Z" fill="#97A1FF"/>
<path d="M32.0913 121.778L5.64551 193.226L7.01776 193.735L33.4636 122.287L32.0913 121.778Z" fill="#97A1FF"/>
<path d="M53.2383 85.9067C55.9983 87.5576 58.6573 94.4893 58.6573 94.4893C58.6573 94.4893 60.6592 85.7295 63.0475 85.7295C65.4358 85.7295 58.1026 81.0127 58.1026 81.0127C56.547 85.4819 53.2383 85.9067 53.2383 85.9067Z" fill="#F2CBD2"/>
<path d="M63.391 73.6782C66.2183 74.4531 69.5476 78.291 69.0237 80.5542C68.5012 82.8159 64.3876 90.1899 62.9286 89.8808C61.4695 89.5717 57.3486 84.2221 57.2798 82.3691C57.211 80.5175 57.6018 72.0918 63.391 73.6782Z" fill="#F2CBD2"/>
<path d="M56.2394 76.7324C54.9487 77.5073 55.1477 78.8286 55.9146 79.5083C56.6814 80.1879 55.9146 81.2792 56.2394 81.8403C56.5643 82.4013 57.0941 83.1396 58.3043 82.7851C59.5131 82.4306 59.5804 80.3051 62.4033 79.5361C65.595 78.6674 64.9716 79.6679 66.3574 80.3476C67.1594 80.7402 68.9872 81.5751 69.2813 81.1621C69.5769 80.749 71.4589 79.0659 70.9569 78.0918C70.455 77.1176 70.5106 77.708 71.0418 76.4379C71.573 75.1679 68.8511 72.8652 67.9613 73.0717C65.9257 73.5434 65.3887 71.5673 64.1155 72.3042C63.6531 72.5722 62.2862 72.8359 61.5194 72.392C60.7526 71.9482 57.9516 73.5141 58.3043 74.5468C58.657 75.5795 56.2394 76.7309 56.2394 76.7309V76.7324Z" fill="#4C381A"/>
<path d="M135.471 63.8462L152.856 58.3472L162.49 43.6563C162.49 43.6563 161.436 43.5815 160.834 42.6763C160.233 41.7725 162.113 40.8687 160.985 39.5869C159.857 38.3066 162.566 37.9302 163.845 37.1758C165.124 36.4229 166.931 40.4907 167.231 41.6201C167.533 42.7495 158.651 59.7007 158.05 60.9063C157.448 62.1118 156.093 63.1665 154.889 63.8447C153.684 64.523 137.353 71.3022 137.353 71.3022L135.471 63.8447V63.8462Z" fill="#F2CBD2"/>
<path d="M108.026 78.1211C108.026 78.1211 103.986 88.0366 103.373 90.3291C102.846 92.3008 102.695 93.2954 104.163 95.2026C105.631 97.1099 121.127 110.75 121.127 110.75L118.563 103.836L109.13 91.9331L117.37 74.7812L108.025 78.1211H108.026Z" fill="#F2CBD2"/>
<path d="M60.197 184.894C60.3477 189.829 74.1623 188.17 74.1623 193.218H52.9531C52.9531 190.129 53.7609 189.09 54.0229 184.918L60.1955 184.894H60.197Z" fill="#CCCCCC"/>
<path d="M54.3474 184.894C54.4981 189.829 68.3127 188.17 68.3127 193.218H47.1035C47.1035 190.129 47.9113 189.09 48.1733 184.918L54.3459 184.894H54.3474Z" fill="white"/>
<path d="M137.715 184.894C137.865 189.829 151.68 188.17 151.68 193.218H130.471C130.471 190.129 131.279 189.09 131.54 184.918L137.713 184.894H137.715Z" fill="white"/>
<path d="M117.901 184.527C117.445 189.038 116.731 188.091 116.025 193.583H126.928C126.928 193.583 126.967 191.518 125.428 189.241C124.184 187.401 123.798 186.231 123.467 184.527" fill="white"/>
<path d="M138.358 185.269H128.477L125.391 103.429L126.266 95.5029L140.732 95.478L138.358 185.269Z" fill="#0E5DF7"/>
<path d="M116.165 185.264L125.956 185.332L127.912 103.204L125.244 95.4033L115.04 95.6201L116.165 185.264Z" fill="#0E5DF7"/>
<path d="M140.732 77.9658L149.319 71.4927C149.319 71.4927 148.523 62.0459 147.964 59.7402C147.964 59.7402 141.441 61.8247 139.565 61.8701C139.551 61.8701 139.537 61.8643 139.523 61.8599C136.545 60.5474 134.499 60.0815 131.246 58.1582H125.433C125.433 58.1582 121.532 61.769 118.922 62.4853C118.922 62.4853 118.898 62.5088 118.855 62.5498C116.275 63.0801 114.02 66.6382 112.751 68.7446C111.336 71.0913 108.024 78.1226 108.024 78.1226L115.021 82.2109C114.765 95.9424 114.357 117.692 114.357 117.692L141.434 118.072" fill="#F24A24"/>
<path d="M161.888 40.4542C162.591 39.6133 167.433 34.3516 167.407 34.0001C167.382 33.6485 166.529 32.9952 166.202 33.1709C165.876 33.3467 161.376 39.7642 161.236 39.9546C159.557 42.2134 159.403 43.3267 161.888 40.4542Z" fill="#272727"/>
<path d="M130.675 42.8228C127.966 42.748 123.813 43.2124 123.212 49.3398C122.61 55.4673 115.766 65.5879 115.667 69.5796C115.435 78.9458 126.925 84.0435 134.1 78.2676C141.275 72.4917 131.54 55.0395 133.347 48.6353C133.775 47.1221 134.953 47.6816 135.103 47.2788C135.254 46.876 134.853 42.8213 130.889 42.8154" fill="#4C381A"/>
<path d="M60.8109 88.0747C60.23 87.4433 58.7636 85.5991 58.4973 85.1962C58.2309 84.7934 58.4973 85.1962 58.4973 85.1962C58.4973 85.1962 59.2524 90.7656 59.5948 91.1582C59.9373 91.5507 59.5948 91.1582 59.5948 91.1582C59.5948 91.1582 60.3295 88.7163 60.8109 88.0747" fill="#D1B0B8"/>
<path d="M105.669 119.866H0.605469V122.796H105.669V119.866Z" fill="#97A1FF"/>
<path d="M91.8224 118.722H54.1162V119.866H91.8224V118.722Z" fill="#272727"/>
<path d="M159.71 84.7466C164.376 85.7925 168.384 88.9214 176.045 91.2065C180.292 92.4736 185.94 91.9126 192.887 93.7305C206.264 97.2314 204.962 126.137 194.102 130.296C183.242 134.453 158.453 134.094 151.566 128.629C143.709 122.393 146.19 100.705 155.854 96.1826C165.135 91.8408 159.712 84.7466 159.712 84.7466H159.71Z" fill="#CCD3FF"/>
<path d="M49.1248 74.4839C43.8228 73.1714 39.2672 69.2442 30.5614 66.376C25.7351 64.7866 19.3151 65.4898 11.4201 63.2075C-3.78327 58.813 -2.3023 22.5391 10.0401 17.3213C22.3825 12.1035 50.556 12.5532 58.3823 19.4131C67.312 27.2383 64.4935 54.4566 53.5091 60.1314C42.9609 65.5806 49.1248 74.4824 49.1248 74.4824V74.4839Z" fill="#CCD3FF"/>
<path d="M187.065 115.145C188.878 107.859 185.409 100.72 179.316 99.2007C173.224 97.6812 166.814 102.356 165.001 109.643C163.187 116.929 166.656 124.068 172.749 125.587C178.842 127.107 185.251 122.432 187.065 115.145Z" fill="#838FFF"/>
<path d="M184.537 114.515C185.935 108.898 183.261 103.395 178.564 102.224C173.867 101.053 168.926 104.656 167.528 110.273C166.13 115.89 168.805 121.393 173.501 122.564C178.198 123.735 183.139 120.132 184.537 114.515Z" fill="#FAC734"/>
<path d="M181.728 113.814C182.664 110.053 180.873 106.367 177.728 105.583C174.582 104.798 171.273 107.212 170.337 110.974C169.401 114.735 171.192 118.421 174.337 119.205C177.483 119.99 180.792 117.576 181.728 113.814Z" fill="#838FFF"/>
<path d="M178.989 113.131C179.475 111.178 178.546 109.265 176.913 108.858C175.28 108.45 173.563 109.704 173.077 111.657C172.59 113.61 173.52 115.523 175.153 115.931C176.786 116.338 178.503 115.085 178.989 113.131Z" fill="#FAC734"/>
<path d="M177.4 111.94L162.704 105.251L162.478 103.325L158.673 101.269L158.875 103.989L156.63 104.777L160.678 106.508L162.23 105.941L177.006 112.668L177.4 111.94Z" fill="#838FFF"/>
<path d="M28.3187 49.7544C27.6836 49.9273 27.8138 50.3624 27.8109 54.3306C27.8109 56.4927 32.6665 56.5323 32.9665 54.9151C33.1655 53.8384 33.2109 50.3755 33.0982 50.1309C32.5919 49.0323 28.3187 49.7544 28.3187 49.7544Z" fill="#838FFF"/>
<path d="M28.252 50.6699C27.6783 48.4932 17.3613 31.6768 31.9734 31.3794C46.5855 31.0821 33.2656 47.7578 32.572 50.6699C32.5602 50.7197 31.5081 51.0493 30.371 51.0362C29.3642 51.0244 28.2534 50.6699 28.2534 50.6699H28.252Z" fill="#FAC734"/>
<path d="M26.3211 30.8901C26.226 30.8901 26.1338 30.8447 26.0767 30.7597C24.6265 28.5742 23.3943 28.0351 23.3826 28.0307C23.2348 27.9677 23.1631 27.7963 23.226 27.6484C23.2889 27.5004 23.4572 27.4287 23.6065 27.4902C23.6621 27.5136 25.0011 28.082 26.5655 30.436C26.6548 30.5708 26.6182 30.7524 26.4835 30.8418C26.4338 30.8755 26.3767 30.8901 26.3211 30.8901V30.8901Z" fill="#838FFF"/>
<path d="M29.9917 29.7901C29.8731 29.7901 29.7634 29.7183 29.718 29.6011C28.2575 25.7647 26.9639 24.398 26.9507 24.3848C26.838 24.2691 26.8409 24.0831 26.958 23.9703C27.0751 23.8575 27.2595 23.8619 27.3722 23.9776C27.4278 24.0362 28.7624 25.4454 30.2653 29.3931C30.3224 29.544 30.2478 29.7139 30.0956 29.7711C30.0619 29.7842 30.0268 29.7901 29.9917 29.7901Z" fill="#838FFF"/>
<path d="M38.9009 30.8901C38.8555 30.8901 38.8087 30.8799 38.7648 30.8564C38.6214 30.7817 38.5672 30.6045 38.6419 30.4609C39.9575 27.959 41.2306 27.2558 41.2848 27.228C41.4267 27.1518 41.6053 27.206 41.6814 27.3481C41.7575 27.4902 41.7033 27.6689 41.5614 27.7451C41.5511 27.751 40.3819 28.4131 39.1599 30.7348C39.1072 30.8344 39.0063 30.8916 38.9009 30.8916V30.8901Z" fill="#838FFF"/>
<path d="M41.2583 33.5957C41.1588 33.5957 41.0607 33.5444 41.0066 33.4521C40.9246 33.313 40.97 33.1328 41.109 33.0508C44.7383 30.8945 46.6583 30.6206 46.7387 30.6103C46.8983 30.5898 47.0461 30.7012 47.068 30.8623C47.09 31.0234 46.9773 31.1699 46.8163 31.1919C46.7988 31.1948 44.9168 31.4717 41.409 33.5561C41.3622 33.584 41.311 33.5972 41.2598 33.5972L41.2583 33.5957Z" fill="#838FFF"/>
<path d="M17.3099 38.0488C17.1987 38.0488 17.0904 37.9844 17.0421 37.8745C16.9763 37.7266 17.0421 37.5537 17.1899 37.4878C20.228 36.1299 22.1538 36.9531 22.2343 36.9898C22.3821 37.0557 22.448 37.2285 22.3836 37.3765C22.3177 37.5244 22.145 37.5904 21.9972 37.5259C21.9811 37.5186 20.2133 36.7803 17.4299 38.0239C17.3919 38.0415 17.3509 38.0488 17.3114 38.0488H17.3099Z" fill="#838FFF"/>
<path d="M45.6222 42.7964C45.5417 42.7964 45.4626 42.7642 45.4041 42.6997C45.3924 42.6865 44.0783 41.2905 41.03 41.2905C40.869 41.2905 40.7373 41.1587 40.7373 40.9976C40.7373 40.8364 40.869 40.7046 41.03 40.7046C44.3578 40.7046 45.7802 42.2427 45.8387 42.3086C45.947 42.4287 45.9368 42.6147 45.8168 42.7217C45.7612 42.7715 45.6909 42.7964 45.6207 42.7964H45.6222Z" fill="#838FFF"/>
<path d="M29.7419 50.1792C29.5941 50.1792 29.4668 50.0664 29.4507 49.9156C28.7659 43.1524 27.3449 40.583 27.3303 40.5581C27.2644 40.4424 27.2849 40.2945 27.3815 40.2022C27.4781 40.1099 27.6244 40.0938 27.7385 40.1641L29.6966 41.3799L30.2702 40.7925C30.3302 40.731 30.4151 40.6988 30.5015 40.7046C30.5878 40.712 30.6668 40.7559 30.7166 40.8262L31.2917 41.6304L33.7049 40.4805C33.8146 40.4278 33.9449 40.4497 34.0327 40.5332C34.1205 40.6167 34.1468 40.7471 34.1 40.8599C33.2073 42.9649 30.9083 48.688 30.9873 49.8672C30.9976 50.0284 30.8761 50.1675 30.7151 50.1792C30.5556 50.1895 30.4151 50.0679 30.4034 49.9068C30.3156 48.6001 32.4346 43.3443 33.2644 41.3404L31.3224 42.2662C31.1951 42.3277 31.0415 42.2881 30.958 42.1724L30.4444 41.4532L29.9512 41.9585C29.8546 42.0567 29.7039 42.0743 29.5868 42.0025L28.2405 41.1661C28.7322 42.4317 29.5532 45.1285 30.0332 49.857C30.0493 50.0181 29.9322 50.1617 29.7712 50.1778C29.761 50.1778 29.7507 50.1792 29.7419 50.1792V50.1792Z" fill="#DDA62A"/>
</svg>
