<svg width="100%" height="100%" viewBox="0 0 199 194" fill="none" xmlns="http://www.w3.org/2000/svg" preserveAspectRatio="xMidYMid meet">
<path d="M44.293 26.1537H108.387C107.78 17.2043 91.983 22.0587 91.983 22.0587C91.6788 10.9858 53.0256 6.64459 52.342 23.8783C52.342 23.8783 44.293 19.1802 44.293 26.1537Z" fill="#97A1FF"/>
<path d="M89.9153 25.4502H35.0844C34.922 25.4502 34.7891 25.3175 34.7891 25.1553C34.7891 23.5716 35.2616 22.4981 36.1918 21.9643C37.9106 20.9792 40.6615 22.1972 41.704 22.7311C42.3257 15.5261 50.5504 12.9883 58.1505 13.0384C66.5007 13.0886 75.5818 16.2383 76.1503 21.2682C77.8174 20.8023 84.7412 19.074 88.2275 21.4688C89.4339 22.296 90.0999 23.5318 90.2091 25.1376C90.215 25.2187 90.1855 25.2998 90.1309 25.3588C90.0748 25.4193 89.9965 25.4517 89.9153 25.4517V25.4502ZM35.3856 24.8604H89.5904C89.4339 23.5967 88.8639 22.619 87.8938 21.9525C84.2303 19.4368 76.0514 21.9082 75.9702 21.9333C75.8816 21.9598 75.7856 21.9451 75.7118 21.8905C75.638 21.836 75.5907 21.7504 75.5892 21.659C75.4593 16.9167 66.4667 13.677 58.149 13.6268C58.0826 13.6268 58.0146 13.6268 57.9482 13.6268C50.512 13.6268 42.5472 16.141 42.2666 23.2206C42.2622 23.3238 42.2046 23.4182 42.113 23.4669C42.0215 23.517 41.9122 23.5155 41.8221 23.4625C41.7867 23.4418 38.3004 21.4349 36.4857 22.4745C35.8065 22.8638 35.4373 23.666 35.3856 24.8589V24.8604Z" fill="#97A1FF"/>
<path d="M128.263 11.8883H179.067C179.067 11.8883 178.599 8.13984 175.993 8.13984C173.386 8.13984 172.183 10.0141 172.183 10.0141C172.183 10.0141 169.442 0 156.274 0C143.106 0 141.3 9.85334 141.3 9.85334C141.3 9.85334 140.297 5.94415 135.612 5.94415C129.395 5.94415 128.264 11.8883 128.264 11.8883" fill="#97A1FF"/>
<path d="M20.3832 102.768C15.472 106.24 14.338 113.484 12.1467 114.012C9.95538 114.54 9.95538 115.975 9.95538 115.975C9.95538 115.975 10.4087 110.994 7.99002 110.541C5.57133 110.088 0.869812 108.503 0.122648 113.334C-0.624515 118.163 2.24601 122.314 3.22943 123.975C4.21138 125.635 13.1286 125.56 13.1286 125.56C13.1286 125.56 24.6905 119.523 26.7311 115.297C28.7718 111.07 20.3832 102.77 20.3832 102.77V102.768Z" fill="#E33E23"/>
<path d="M73.683 97.855C74.1009 99.6305 73.0614 102.366 71.7014 101.611C70.3415 100.856 73.0791 103.522 66.554 103.798C64.0541 103.904 60.8114 100.868 59.3747 100.837C57.938 100.806 50.2315 102.239 50.0041 103.22C49.7767 104.2 56.5027 107.144 59.2241 110.012C61.944 112.88 61.7609 114.464 61.7609 114.464L22.3473 107.822C22.3473 107.822 18.1153 99.5966 17.662 97.4834C17.2087 95.3703 17.4346 91.3712 20.8352 90.2387C24.2358 89.1062 25.6711 90.6914 27.2585 91.2945C28.8458 91.8976 31.1124 91.9743 31.7931 91.9743C32.4738 91.9743 33.9091 94.2378 34.0597 94.6905C34.2103 95.1432 38.1411 95.5207 41.4649 94.2378C44.7902 92.9549 47.1321 89.8612 50.4575 90.5395C53.7828 91.2193 54.9168 94.201 56.578 93.7851C58.7722 93.2351 70.7283 92.6423 70.8273 93.76C70.9956 95.6711 71.7369 94.1788 72.5682 94.8586C73.3995 95.5384 73.4556 96.8892 73.683 97.8521V97.855Z" fill="#F24A24"/>
<path d="M17.9365 96.4557C18.5951 95.0931 21.7595 94.3352 21.7595 94.3352C21.7595 94.3352 19.9875 92.1365 19.8162 91.9271C19.8162 91.9271 24.9416 93.8795 25.5883 95.1698C26.2351 96.4601 27.1831 103.379 26.5762 104.554C25.9693 105.729 23.1593 104.175 23.1593 104.175L18.5715 99.5494L17.938 96.4557H17.9365Z" fill="#E33E23"/>
<path d="M71.2124 100.583C72.6595 101.23 80.1503 100.35 80.9831 99.6172C81.8159 98.8858 84.0929 95.5325 83.7577 94.7642C83.4225 93.9974 77.8837 91.3594 77.0657 91.6808C76.2477 92.0023 71.8459 93.5639 72.6728 93.6376C74.396 93.7939 77.1218 94.4575 77.1218 94.4575C77.1218 94.4575 72.6713 95.2169 71.998 95.7198C71.3246 96.2226 71.2109 100.582 71.2109 100.582L71.2124 100.583Z" fill="#5E3721"/>
<path d="M50.1723 117.935C42.4924 121.206 22.8403 128.59 18.1343 134.49C13.4284 140.39 16.3816 144.236 16.3816 144.236L38.4938 150.14L43.7786 140.914C41.3348 139.271 37.7274 138.829 37.7525 138.851C37.7525 138.851 57.2748 134.697 62.6969 133.352C71.3601 131.203 60.572 113.504 50.1708 117.935H50.1723Z" fill="#0B49AB"/>
<path d="M43.7799 140.914L57.3381 150.588C56.7401 154.122 53.4856 154.349 53.4856 154.349L38.4951 150.139L43.7799 140.912V140.914Z" fill="white"/>
<path d="M24.7217 105.635C23.6157 103.879 18.9467 103.941 18.1612 103.852C17.3756 103.764 13.6354 106.108 12.9783 105.956C12.3212 105.805 8.7271 100.408 8.67099 99.0081C8.61488 97.6073 10.7693 93.875 13.9144 93.5948C17.0596 93.3147 19.3587 94.4826 19.3646 97.389C19.3705 100.295 22.0978 98.2045 22.5733 98.7265C25.6963 102.148 24.7232 105.635 24.7232 105.635H24.7217Z" fill="#5E3721"/>
<path d="M61.2901 113.182C53.4035 110.447 33.8842 102.718 26.4288 103.925C18.9734 105.132 18.5703 109.962 18.5703 109.962L30.9635 129.18L41.0871 125.899C40.3842 123.043 38.0113 120.294 38.0158 120.327C38.0158 120.327 55.264 130.36 60.1826 133.005C68.0411 137.232 71.9733 116.888 61.2915 113.184L61.2901 113.182Z" fill="#034CD9"/>
<path d="M41.0855 125.899L44.715 141.859C41.8932 144.072 39.2235 142.362 39.2235 142.362L30.9619 129.18L41.0855 125.899Z" fill="white"/>
<path d="M3.01838 112.216C3.01838 112.216 -0.572733 107.449 0.243832 106.144C1.0604 104.84 4.44773 101.458 5.30417 101.458C6.1606 101.458 8.93662 103.74 8.65016 104.554C8.36518 105.37 8.20127 107.203 7.71104 107.651C7.2208 108.099 6.48693 109.037 6.48693 109.037C6.48693 109.037 7.26658 110.911 7.01998 111.482C6.77339 112.053 4.11993 112.663 3.01838 112.215V112.216Z" fill="#5E3721"/>
<path d="M45.5182 140.607C45.5182 140.607 46.2269 139.752 46.7822 140.551C47.3359 141.35 47.9723 145.702 48.3444 147.293C48.715 148.881 29.6033 151.619 28.7971 151.016C27.9908 150.413 27.4652 147.19 34.0361 145.674C36.9243 145.007 36.7619 142.996 36.9081 141.71C37.1606 139.496 39.1378 140.841 39.1378 140.841C39.1378 140.841 40.4859 142.124 42.6521 142.011C44.6175 141.907 45.5197 140.608 45.5197 140.608L45.5182 140.607Z" fill="#F24A24"/>
<path d="M55.7875 148.486C55.7875 148.486 55.287 147.495 56.2423 147.308C57.1977 147.12 61.4444 148.281 63.0539 148.577C64.659 148.874 59.5204 167.46 58.6448 167.955C57.7691 168.451 54.6003 167.642 55.8392 161.021C56.3841 158.111 54.4733 157.456 53.3511 156.807C51.4212 155.691 53.4471 154.42 53.4471 154.42C53.4471 154.42 55.1644 153.7 55.9278 151.672C56.6203 149.834 55.789 148.487 55.789 148.487L55.7875 148.486Z" fill="#F24A24"/>
<path d="M8.86746 99.7602C12.621 98.6336 19.5345 98.3859 19.5345 98.3859C19.5345 98.3859 20.67 92.7706 14.8477 93.1746C9.02545 93.5787 8.4038 97.8182 8.40528 98.3947C8.40675 98.9713 8.86598 99.7602 8.86598 99.7602H8.86746Z" fill="#272727"/>
<path d="M8.43001 98.1102C8.43001 98.1102 7.99441 98.4759 7.9383 98.6838C7.88071 98.8917 8.21 99.9475 8.40639 99.9475C8.60278 99.9475 9.58177 99.5641 9.58177 99.5641L8.89958 97.8816L8.43001 98.1102Z" fill="#272727"/>
<path d="M19.5344 98.3844C20.063 98.3741 19.9862 98.0644 19.9862 98.0644L19.9906 97.2623C19.9153 96.8641 18.7148 96.7565 18.7148 96.7565L19.5344 98.3844Z" fill="#272727"/>
<path d="M34.4404 114.863L38.0153 120.327L46.8941 125.328L34.4404 114.863Z" fill="#0B49AB"/>
<path d="M180.748 74.596C180.748 74.596 187.796 77.1176 189.466 76.9657C191.136 76.8138 192.908 73.7806 192.807 72.8206C192.705 71.8606 178.075 39.8572 178.075 39.8572L173.62 41.9305L183.745 68.0178L180.226 66.35L180.748 74.5975V74.596Z" fill="#D0B080"/>
<path d="M135.167 54.4572L186.593 31.3604C195.618 26.854 206.415 38.965 191.474 46.5696L141.55 68.727C131.971 73.4207 123.88 59.5255 135.168 54.4558L135.167 54.4572Z" fill="#FAC734"/>
<path d="M144.458 109.423C148.71 127.036 142.938 174.34 142.881 177.979H161.411C160.862 163.873 159.798 120.229 160.862 112.02L144.458 109.423V109.423Z" fill="#0E5DF7"/>
<path d="M169.214 110.985C169.214 110.985 178.934 132.072 180.301 135.197C181.669 138.321 182.428 142.226 180.908 145.349C179.389 148.474 175.479 177.979 175.479 177.979H158.126C158.126 177.979 166.024 147.676 166.024 144.482C166.024 141.288 152.203 109.423 152.203 109.423L169.214 110.985V110.985Z" fill="#0E5DF7"/>
<path d="M181.207 81.9706L180.219 66.3485L162.917 59.2247L147.336 57.551L136.29 64.433C136.29 64.433 134.274 67.5607 134.426 67.5607C134.578 67.5607 134.72 94.4826 134.422 95.5827H147.336V84.9272L150.069 96.0752L150.458 112.253C150.977 111.805 151.586 111.531 152.311 111.514C157.819 111.398 153.978 119.67 173.242 119.752C173.242 119.752 169.753 85.8488 169.499 82.758L181.205 81.9691L181.207 81.9706Z" fill="#F24A24"/>
<path d="M147.337 84.9286V95.5841H139.755L140.388 121.444L143.401 121.611C143.951 121.579 144.616 121.609 145.381 121.528C147.442 121.31 147.827 114.52 150.457 112.255L150.069 96.0766L147.336 84.9286H147.337Z" fill="#E33E23"/>
<path d="M148.241 45.1642C143.243 45.6759 138.788 47.7993 141.926 48.2034C145.065 48.6074 149.905 47.5206 149.905 47.5206L148.24 45.1627L148.241 45.1642Z" fill="#F24A24"/>
<path d="M137.092 95.5826C136.787 96.9098 136.408 98.1234 137.623 99.4122C138.838 100.701 149.039 115.009 149.039 115.009L152.317 111.514L144.609 95.5826H137.092V95.5826Z" fill="#D0B080"/>
<path d="M147.344 57.551C148.863 56.1855 150.495 52.6981 149.888 50.1573C149.281 47.6166 148.141 48.1091 148.141 44.9239C148.141 41.7388 149.243 39.7672 152.242 39.3116C155.241 38.8559 160.974 39.9943 161.506 42.7622C162.037 45.53 161.354 53.9102 160.404 54.2508C159.455 54.5915 156.797 52.8101 155.545 53.2643C154.291 53.72 156.874 63.4259 156.874 63.4259C152.66 63.4259 147.344 57.5481 147.344 57.5481V57.551Z" fill="#D0B080"/>
<path d="M149.04 115.011C150.363 115.207 152.699 113.874 152.318 111.516L149.04 115.011Z" fill="#D0B080"/>
<path d="M161.686 44.9107C158.735 44.9107 148.241 46.3204 148.241 46.3204C148.241 46.3204 146.887 40.6638 150.583 39.5018C154.279 38.3398 160.346 39.5269 161.265 41.4232C161.878 42.687 161.684 44.9122 161.684 44.9122L161.686 44.9107Z" fill="#F24A24"/>
<path d="M148.761 177.979C148.659 185.361 146.28 189.506 146.382 192.945H156.255C156.255 192.945 156.052 191.479 155.09 186.069C154.128 180.659 153.925 177.979 153.925 177.979H148.761V177.979Z" fill="#D0B080"/>
<path d="M166.615 177.979C167.627 181.62 165.265 187.156 166.459 192.945L189.642 193.197C189.111 189.962 181.137 190.645 176.353 187.762C171.569 184.881 172.175 177.979 172.175 177.979H166.615V177.979Z" fill="#D0B080"/>
<path d="M170.58 37.0745C169.155 38.1422 171.719 40.7906 172.327 41.4733C172.934 42.156 178.175 39.2747 178.175 39.2747L176.973 35.681L178.175 35.1413L177.111 34.6488C177.111 34.6488 171.189 36.6204 170.58 37.076V37.0745Z" fill="#D0B080"/>
<path d="M183.269 32.0768L179.37 34.129L181.425 38.0231L185.324 35.9708L183.269 32.0768Z" fill="#F24A24"/>
<path d="M189.035 43.0021L185.136 45.0543L187.191 48.9484L191.09 46.8961L189.035 43.0021Z" fill="#F24A24"/>
<path d="M141.32 50.1424L137.421 52.1946L139.476 56.0886L143.375 54.0364L141.32 50.1424Z" fill="#F24A24"/>
<path d="M166.112 191.176C173.828 191.428 176.967 191.176 176.967 191.176L178.182 187.839L185.27 190.012V192.034H189.877V193.601H166.114V191.174L166.112 191.176Z" fill="#F4F4F4"/>
<path d="M146.378 189.99C147.654 189.484 155.032 189.217 155.951 189.756C156.869 190.294 155.598 187.682 155.598 187.682C154.198 187.098 148.033 186.926 146.982 187.682C146.765 187.839 146.378 189.99 146.378 189.99V189.99Z" fill="#F4F4F4"/>
<path d="M146.022 191.176H156.529L157.144 193.603H145.476L146.022 191.176Z" fill="#F4F4F4"/>
<path d="M146.512 191.176L146.766 189.881L146.671 188.585L146.047 191.176H146.512Z" fill="#F4F4F4"/>
<path d="M156.284 189.583L156.526 191.176H155.973L155.679 189.356L156.284 189.583Z" fill="#F4F4F4"/>
<path d="M156.635 53.2629C154.414 52.4695 152.719 51.3223 152.719 51.3223L155.409 56.6368C155.409 56.6368 154.869 53.9368 155.515 53.4192C155.945 53.0771 156.635 53.2629 156.635 53.2629Z" fill="#998570"/>
<path d="M160.407 128.906L160.446 121.443L164.582 139.595L160.407 128.906Z" fill="#0B49AB"/>
<path d="M169.5 82.7594L168.614 73.7083L177.648 82.2109L169.5 82.7594Z" fill="#E33E23"/>
<path d="M51.3625 76.6487C51.3625 76.6487 27.3322 68.3393 26.5717 67.7848C25.8113 67.2304 24.4439 62.8095 25.3594 61.7625C26.2749 60.7155 55.5177 51.5966 55.5177 51.5966L56.0817 54.3098L33.6963 63.9818L53.9716 70.1604L51.364 76.6502L51.3625 76.6487Z" fill="#F8E6DA"/>
<path d="M54.3453 70.1604C54.3453 70.1604 56.3623 68.7064 60.8113 66.3367L54.2714 58.9017L48.458 63.4435L54.3453 70.1618V70.1604Z" fill="black"/>
<path d="M84.0899 47.0208C82.7949 46.5091 56.0801 51.3163 56.0801 51.3163L56.8258 53.9854L77.705 52.8145L69.9868 62.7033C67.6286 64.7869 65.6175 66.3456 63.7776 68.7064L61.1256 76.1104L70.6778 72.3295C70.6778 72.3295 85.3612 53.773 85.782 52.931C86.2029 52.089 85.3863 47.5354 84.0913 47.0237L84.0899 47.0208Z" fill="#F8E6DA"/>
<path d="M70.6768 72.3267C70.3357 74.4884 69.689 76.6487 69.689 76.6487L62.7031 74.487L62.7784 73.0846L70.6768 72.3267Z" fill="#F8E6DA"/>
<path d="M81.6122 175.692C81.6122 175.692 82.6753 181.961 84.3454 185.854L79.6734 187.098C79.6734 187.098 76.385 176.4 75.9922 175.692H81.6122V175.692Z" fill="white"/>
<path d="M35.2412 192.984H54.0739C54.0739 188.281 52.9088 180.849 52.9088 175.692L47.1368 175.591C47.1368 175.591 47.9208 185.019 46.8577 186.385C45.7945 187.75 37.9729 189.343 35.5424 191.541C33.6716 193.234 35.2382 192.982 35.2382 192.982L35.2412 192.984Z" fill="white"/>
<path d="M33.723 192.997H55.3657C55.1383 186.386 55.9489 184.925 54.5299 184.794C53.1109 184.662 51.0363 187.221 49.5183 186.917C47.9989 186.613 46.9357 184.252 45.5698 184.789C44.2025 185.324 35.6086 188.51 34.6282 189.344C33.6477 190.179 33.723 192.998 33.723 192.998V192.997Z" fill="#FAC734"/>
<path d="M56.4762 175.692H39.6178C39.6178 175.692 40.6972 145.973 36.418 128.449C32.5567 112.634 35.9735 100.803 41.8962 94.0918L58.1478 95.0016C58.1478 95.0016 70.7536 128.977 73.791 138.836C76.8283 148.695 87.0051 175.692 87.0051 175.692H68.9314C68.9314 175.692 62.0962 147.33 60.2859 140.352C58.4268 133.187 49.1109 116.9 49.1109 116.9C49.1109 116.9 50.6998 134.453 52.9841 141.565C55.5667 149.603 56.4777 175.692 56.4777 175.692H56.4762Z" fill="#BED2FA"/>
<path d="M53.4388 68.7109C53.4388 68.7109 59.6007 71.5097 63.7766 68.7035C63.7766 68.7035 62.551 73.5387 69.6889 76.6487C69.6889 76.6487 66.7785 85.3179 63.2081 89.0339L45.1211 87.9236C48.0832 80.8572 47.4157 75.3083 47.4157 75.3083C47.4157 75.3083 50.9803 73.8425 52.4244 71.9462C53.867 70.0498 53.4374 68.7109 53.4374 68.7109H53.4388Z" fill="#A269C7"/>
<path d="M45.1234 87.9251C43.8402 91.1338 41.8955 94.0919 41.8955 94.0919L58.1471 95.0017L63.2103 89.034L45.1234 87.9236V87.9251Z" fill="#F8E6DA"/>
<path d="M78.7271 193.54H92.244C92.244 193.54 93.5094 189.697 89.9154 188.231C86.3213 186.765 86.3715 185.298 86.3715 185.298C86.3715 185.298 87.7891 182.669 83.4862 182.77C79.1834 182.872 80.1447 185.5 80.2465 185.652C80.3484 185.804 79.4359 184.742 78.7271 185.5C78.0183 186.258 78.7271 193.538 78.7271 193.538V193.54Z" fill="#FAC734"/>
<path d="M58.9462 64.7737C59.6594 66.1112 61.0326 69.432 61.8285 69.4762C61.8285 69.4762 60.727 73.8425 58.2212 73.6154C55.7154 73.3884 54.791 69.14 54.791 69.14C57.8225 69.2919 55.0022 65.7278 55.0022 65.7278L58.9447 64.7722L58.9462 64.7737Z" fill="#F8E6DA"/>
<path d="M56.1025 67.6889C56.3063 68.3628 56.1025 68.6769 56.1025 68.6769C56.1025 68.6769 56.9723 69.1296 57.591 68.8878C59.2728 68.2301 59.8 67.0018 59.6848 65.9975C59.5711 64.9933 59.2728 64.4138 59.2728 64.4138L56.1025 67.6889Z" fill="#DECDC3"/>
<path d="M49.8375 60.456C48.2678 62.7564 50.1786 65.5375 52.7995 66.6361C55.4191 67.7361 57.6975 68.3039 58.799 67.0534C59.9006 65.8014 59.0264 62.9967 56.748 60.8733C54.4696 58.7499 51.5459 57.9536 49.8375 60.456Z" fill="#F8E6DA"/>
<path d="M51.4704 63.9611C53.8492 63.0012 55.4794 60.4471 55.4794 60.4471C55.4794 60.4471 59.3805 61.9896 59.7098 68.3348C59.7098 68.3348 62.3042 64.5156 61.6339 63.3978C60.4348 61.3997 55.0142 55.0633 50.357 58.4004C45.6998 61.7374 48.4359 69.8021 51.1677 71.5627C51.6564 71.8783 56.7876 70.6868 56.7876 70.6868C56.7876 70.6868 54.273 69.1694 53.0577 67.4397C52.1836 66.1937 51.4718 63.9626 51.4718 63.9626L51.4704 63.9611Z" fill="#272727"/>
<path d="M57.2496 53.9515C54.6862 54.332 49.9788 51.6703 49.8665 50.7649C49.7543 49.8595 51.9072 46.0653 52.7577 45.6126C53.6083 45.1599 56.1362 49.9671 56.1362 49.9671" fill="#F8E6DA"/>
<path d="M56.1359 54.3084C57.5209 53.81 59.0522 49.0529 58.5989 48.2035C58.1455 47.3541 55.3666 45.3722 54.516 46.052C53.6655 46.7318 52.8711 49.2225 52.8711 49.2225L56.1359 54.3084Z" fill="#F8E6DA"/>
<path d="M69.9621 75.6636C70.1836 72.0228 69.6904 70.4302 69.6904 70.4302L81.4782 58.5876L70.6768 72.3251L69.9621 75.6621V75.6636Z" fill="#DECDC3"/>
<path d="M52.2223 52.6302C52.5959 53.0004 56.0541 54.2656 56.6093 53.9869C56.6093 53.9869 55.9759 54.4676 55.0707 54.7448C54.1655 55.0235 51.8369 52.7512 51.8369 52.7512L52.2223 52.6302V52.6302Z" fill="#DECDC3"/>
<path d="M52.5439 50.2326C54.2908 51.0672 56.835 51.3444 56.835 51.3444L57.6707 49.7843C57.6707 49.7843 57.5895 51.2397 57.2514 51.5951C56.9118 51.9505 53.7474 51.079 53.4063 50.8888C53.0652 50.6986 52.5454 50.2311 52.5454 50.2311L52.5439 50.2326Z" fill="#DECDC3"/>
<path d="M132.106 60.2928C134.885 60.2928 150.507 76.9161 151.21 78.8508C151.913 80.784 152.256 81.5758 152.256 81.5758L151.389 112.631C151.275 118.092 151.048 125.485 148.769 126.453C146.491 127.42 147.288 124.993 147.288 124.993C147.288 124.993 147.629 118.092 145.58 117.409C144.518 117.055 146.453 112.935 147.593 111.114C148.731 109.294 144.346 82.9399 143.824 81.5758C143.303 80.2104 133.278 70.6549 133.278 70.6549L130.273 60.1512L132.107 60.2928H132.106Z" fill="#ECD0A8"/>
<path d="M144.882 87.1292C144.99 86.5541 145.055 85.9642 145.08 85.367C143.54 85.6324 141.691 85.7902 139.676 85.7902C136.746 85.7902 133.465 85.4569 130.267 84.64C130.267 87.8856 131.979 90.7302 134.552 92.3227C135.774 92.1679 137.003 91.2831 138.407 90.2686C140.217 88.9621 142.249 87.4949 144.884 87.1277L144.882 87.1292Z" fill="#F24A24"/>
<path d="M145.087 85.0735C145.097 84.4851 145.068 83.8953 144.997 83.3099C144.645 83.3394 144.312 83.3526 143.996 83.3526C140.672 83.3526 139.205 81.8249 137.661 80.2161C136.649 79.1633 135.605 78.078 133.971 77.348C131.8 78.9362 130.365 81.4651 130.271 84.3362C135.688 85.7341 141.342 85.7297 145.085 85.0735H145.087Z" fill="#F24A24"/>
<path d="M137.877 80.0142C139.515 81.7203 141.064 83.3321 144.96 83.018C144.751 81.5478 144.285 80.1322 143.568 78.9362C142.423 77.0296 140.762 75.8794 138.813 75.6228C137.13 75.7142 135.568 76.2643 134.252 77.152C135.847 77.9025 136.877 78.9731 137.876 80.0142H137.877Z" fill="#F24A24"/>
<path d="M143.798 90.1964C144.268 89.3691 144.607 88.4313 144.82 87.4388C142.305 87.8208 140.335 89.2393 138.58 90.5075C137.274 91.4498 136.117 92.2859 134.944 92.5528C136.067 93.1721 137.333 93.5585 138.682 93.6514C141.436 93.3476 142.976 91.6459 143.798 90.1964V90.1964Z" fill="#F24A24"/>
<path d="M145.317 83.2804C145.308 83.2804 145.299 83.2819 145.289 83.2833C145.357 83.8584 145.388 84.4409 145.381 85.0204C146.627 84.7845 147.643 84.4734 148.341 84.118C148.281 83.0681 148.043 82.0653 147.653 81.1422C147.6 81.5212 147.476 81.9296 147.22 82.2909C146.82 82.8572 146.179 83.1904 145.316 83.2804H145.317Z" fill="#F24A24"/>
<path d="M143.822 78.7843C144.56 80.0156 145.038 81.4755 145.252 82.9914C145.264 82.9914 145.275 82.9899 145.286 82.9884C146.06 82.9073 146.63 82.6168 146.98 82.1228C147.326 81.6362 147.398 81.0346 147.392 80.5789C146.025 77.8745 143.339 75.9486 140.176 75.6493C141.644 76.1757 142.897 77.2404 143.823 78.7843H143.822Z" fill="#F24A24"/>
<path d="M147.437 87.8473C147.201 87.4669 146.569 87.2958 145.612 87.3518C145.448 87.3622 145.287 87.3769 145.128 87.3961C144.911 88.4578 144.553 89.462 144.054 90.3423C143.353 91.5766 142.154 92.9878 140.171 93.6351C143.461 93.3255 146.237 91.2551 147.548 88.3782C147.563 88.1983 147.539 88.011 147.439 87.8473H147.437Z" fill="#F24A24"/>
<path d="M145.186 87.0923C145.32 87.0775 145.456 87.0657 145.595 87.0583C146.683 86.9935 147.389 87.2073 147.69 87.6939C147.722 87.7455 147.746 87.7986 147.768 87.8532C148.148 86.8549 148.357 85.774 148.357 84.6429C148.357 84.5751 148.354 84.5088 148.353 84.4409C147.628 84.7845 146.609 85.0853 145.375 85.3154C145.354 85.9155 145.29 86.5113 145.187 87.0923H145.186Z" fill="#F24A24"/>
<path d="M144.882 87.1292C144.982 87.1159 145.084 87.1027 145.186 87.0923C145.289 86.5113 145.353 85.9156 145.374 85.3154C145.276 85.3331 145.179 85.3508 145.08 85.3685C145.056 85.9643 144.99 86.5556 144.882 87.1307V87.1292Z" fill="black"/>
<path d="M145.289 83.2833C145.19 83.2936 145.094 83.3025 144.998 83.3099C145.067 83.8938 145.098 84.4851 145.088 85.0735C145.187 85.0558 145.286 85.0381 145.382 85.0204C145.389 84.4409 145.358 83.8599 145.29 83.2833H145.289Z" fill="black"/>
<path d="M143.568 78.9362C144.285 80.1321 144.749 81.5478 144.96 83.0179C145.056 83.0106 145.154 83.0017 145.252 82.9914C145.038 81.4755 144.56 80.0171 143.822 78.7843C142.896 77.2419 141.642 76.1758 140.174 75.6493C139.891 75.6228 139.603 75.608 139.312 75.608C139.145 75.608 138.978 75.6139 138.814 75.6228C140.764 75.8808 142.426 77.0296 143.569 78.9362H143.568Z" fill="black"/>
<path d="M144.053 90.3424C144.554 89.4621 144.91 88.4578 145.127 87.3961C145.022 87.4079 144.92 87.4241 144.818 87.4404C144.604 88.4328 144.264 89.3706 143.796 90.1979C142.974 91.6474 141.435 93.3491 138.68 93.6529C138.888 93.6676 139.098 93.6765 139.31 93.6765C139.6 93.6765 139.886 93.6617 140.17 93.6352C142.151 92.9878 143.352 91.5781 144.053 90.3424V90.3424Z" fill="black"/>
<path d="M130.265 84.6401C130.265 84.5383 130.269 84.438 130.272 84.3378Z" fill="black"/>
<path d="M145.079 85.3671C145.084 85.2697 145.085 85.1709 145.087 85.0736C141.344 85.7298 135.69 85.7342 130.272 84.3363C130.269 84.4366 130.265 84.5383 130.265 84.6386C133.463 85.457 136.745 85.7888 139.674 85.7888C141.689 85.7888 143.538 85.631 145.078 85.3656L145.079 85.3671Z" fill="black"/>
<path d="M145.38 85.0205C145.38 85.1193 145.377 85.2166 145.373 85.3139C146.607 85.0839 147.626 84.7831 148.351 84.4395C148.348 84.3319 148.347 84.2242 148.34 84.118C147.641 84.4734 146.625 84.7831 145.379 85.0205H145.38Z" fill="black"/>
<path d="M145.079 85.367C145.178 85.3494 145.277 85.3316 145.373 85.314C145.376 85.2166 145.379 85.1178 145.38 85.0205C145.284 85.0382 145.185 85.0559 145.086 85.0736C145.085 85.1709 145.082 85.2697 145.079 85.367Z" fill="black"/>
<path d="M133.974 77.3492C134.065 77.2815 134.158 77.2153 134.252 77.152Z" fill="black"/>
<path d="M146.979 82.1229C146.629 82.6154 146.059 82.9074 145.285 82.9885C145.273 82.9885 145.263 82.99 145.251 82.9914C145.264 83.0888 145.276 83.1861 145.288 83.2849C145.297 83.2849 145.306 83.2834 145.316 83.2819C146.178 83.192 146.819 82.8587 147.221 82.2925C147.476 81.9312 147.6 81.5227 147.653 81.1437C147.572 80.952 147.484 80.7648 147.391 80.5804C147.396 81.0376 147.324 81.6377 146.979 82.1244V82.1229Z" fill="black"/>
<path d="M137.662 80.2177C139.205 81.825 140.673 83.3542 143.997 83.3542C144.313 83.3542 144.647 83.3394 144.998 83.3114C144.986 83.2141 144.974 83.1153 144.96 83.018C141.063 83.3321 139.514 81.7203 137.876 80.0142C136.877 78.9731 135.847 77.9026 134.253 77.152C134.158 77.2154 134.067 77.2832 133.974 77.3496C135.608 78.081 136.652 79.1648 137.664 80.2177H137.662Z" fill="black"/>
<path d="M145.252 82.9915C145.153 83.0018 145.056 83.0106 144.96 83.018C144.973 83.1153 144.987 83.2127 144.998 83.3115C145.094 83.3041 145.192 83.2952 145.289 83.2849C145.277 83.1876 145.266 83.0888 145.252 82.9915Z" fill="black"/>
<path d="M145.595 87.0569C145.457 87.0658 145.32 87.0776 145.186 87.0908C145.168 87.1926 145.149 87.2943 145.128 87.3946C145.287 87.3769 145.448 87.3607 145.612 87.3504C146.571 87.2943 147.201 87.4654 147.437 87.8458C147.539 88.0095 147.561 88.1968 147.547 88.3767C147.625 88.2042 147.699 88.0287 147.767 87.8517C147.744 87.7972 147.721 87.7441 147.688 87.6925C147.387 87.2073 146.681 86.9935 145.593 87.0569H145.595Z" fill="black"/>
<path d="M144.819 87.4388C144.841 87.3356 144.862 87.2324 144.883 87.1292C142.248 87.4963 140.215 88.9621 138.406 90.2701C137.003 91.2831 135.773 92.1694 134.551 92.3242C134.679 92.4038 134.811 92.482 134.945 92.5542C136.117 92.2859 137.275 91.4512 138.58 90.509C140.336 89.2408 142.307 87.8222 144.821 87.4403L144.819 87.4388Z" fill="black"/>
<path d="M144.82 87.4388C144.922 87.4226 145.024 87.4064 145.128 87.3946C145.149 87.2943 145.168 87.1926 145.186 87.0908C145.084 87.1011 144.982 87.1144 144.882 87.1277C144.863 87.2324 144.841 87.3356 144.818 87.4373L144.82 87.4388Z" fill="black"/>
<path d="M134.591 185.511C134.743 190.213 150.571 188.544 150.571 193.626H127.283C127.283 190.516 128.098 189.47 128.363 185.536" fill="#272727"/>
<path d="M114.727 157.679C115.644 154.33 115.677 149.81 115.696 147.895C115.746 142.738 115.646 139.907 117.366 131.059C118.448 125.496 120.251 114.653 120.251 114.653L123.137 95.6805L111.119 95.2249C111.119 95.2249 106.706 124.688 106.733 128.328C106.825 140.867 105.113 145.506 104.607 151.484C104.502 152.721 104.434 155.008 104.323 157.647" fill="#ECD0A8"/>
<path d="M109.015 183.841C108.891 188.402 110.153 188.05 110.153 193.624H99.1036C99.1036 193.624 98.2944 191.832 100.128 189.756C101.609 188.079 103.776 185.633 104.326 183.974" fill="#272727"/>
<path d="M104.326 183.976C104.41 183.721 104.457 183.485 104.457 183.274C104.457 182.035 103.939 166.878 104.326 157.648L114.729 157.679C112.697 165.098 109.251 175.143 109.014 183.843" fill="white"/>
<path d="M134.801 157.648C134.975 146.649 135.192 136.272 135.275 133.79C135.471 127.849 132.788 103.228 131.877 95.9857H118.264L117.297 119.028C117.297 119.028 124.612 127.649 125.22 132.957C125.827 138.266 123.474 144.711 124.385 150.779C124.642 152.488 125.054 154.87 125.52 157.649" fill="#ECD0A8"/>
<path d="M125.521 157.648C126.937 166.109 128.84 178.256 128.299 186.294C128.299 186.294 129.67 186.244 131.696 186.142C133.722 186.04 134.616 185.661 134.616 185.661C134.481 181.458 134.615 169.495 134.802 157.646" fill="white"/>
<path d="M109.469 95.2263H133.276C133.276 95.2263 135.348 118.496 135.896 128.051L122.454 128.101L122.986 121.756L122.454 128.101H106.734C106.734 128.101 107.139 112.706 107.798 107.044C108.5 100.996 109.468 95.2263 109.468 95.2263H109.469Z" fill="#F24A24"/>
<path d="M123.63 128.073L123.692 104.94L126.936 127.992L123.63 128.073Z" fill="#E33E23"/>
<path d="M109.351 61.0714C115.021 60.2132 116.771 59.2916 117.784 56.8142L124.498 57.7255C124.498 57.7255 125.948 59.1175 130.272 60.1513C130.272 60.1513 133.883 64.9673 133.959 69.2894C134.034 73.6115 133.275 95.2263 133.275 95.2263H109.468C109.468 95.2263 110.603 89.7275 109.695 79.6412C109.531 77.8141 109.35 61.0714 109.35 61.0714H109.351Z" fill="#272727"/>
<path d="M125.873 41.9767C122.237 40.8338 118.381 41.117 117.063 43.2905C116.433 44.3301 116.861 47.6392 117.57 49.2052C118.279 50.7727 118.583 54.387 117.785 56.8142C117.658 59.8725 122.305 66.0408 123.292 66.0408C125.567 66.0408 124.962 59.1662 124.962 59.1662C124.962 59.1662 123.298 54.4047 124.178 54.4636C124.237 54.4681 125.278 54.704 125.35 54.7232C126.301 55.0004 127.442 55.0874 127.544 53.9579C127.794 51.1826 128.608 42.8349 125.874 41.9752L125.873 41.9767Z" fill="#ECD0A8"/>
<path d="M118.015 50.7152C118.886 51.3286 121.754 51.886 119.217 48.5814C117.418 46.2397 121.014 45.7162 121.114 47.6377C121.216 49.5591 123.645 48.3455 122.304 45.2621C121.736 43.9541 126.086 45.7133 127.617 45.0836C127.617 45.0836 127.566 42.4942 125.872 41.9752C124.812 41.6507 123.171 41.1877 121.54 41.1361C119.821 41.0815 118.114 41.4841 117.113 42.9867C115.161 45.9138 118.013 50.7152 118.013 50.7152H118.015Z" fill="#F24A24"/>
<path d="M127.618 45.0837C128.169 44.7799 129.402 42.2554 127.996 41.316C126.592 40.3767 124.693 39.9034 124.048 40.5286C123.403 41.1538 121.542 41.1376 121.542 41.1376L123.782 43.7138L127.143 44.8138L127.618 45.0851V45.0837Z" fill="#F24A24"/>
<path d="M106.269 139.289C111.27 135.594 116.752 134.408 116.752 134.408L117.906 128.191L107.552 128.072L106.269 139.289V139.289Z" fill="#CBB192"/>
<path d="M106.736 138.951C105.265 135.682 105.041 131.096 104.103 123.546C103.166 115.996 102.426 105.928 102.734 99.0824C103.043 92.2373 103.241 82.8971 103.208 78.6473C103.175 74.3974 102.463 68.5078 102.686 66.6764C103.033 63.8363 107.284 60.5553 109.586 61.0625C111.888 61.5698 112.97 68.962 112.226 72.7901C111.482 76.6182 110.583 76.9795 110.386 79.3978C109.892 85.4924 109.469 96.8469 109.611 100.098C109.796 104.341 107.619 120.51 107.739 123.236C107.858 125.965 109.444 126.22 109.573 128.091C109.924 133.237 107.818 126.914 108.049 134.964C108.232 141.396 106.738 138.953 106.738 138.953L106.736 138.951Z" fill="#ECD0A8"/>
<path d="M125.037 131.949C125.037 131.949 131.967 128.401 133.826 128.073L123.439 128.051C123.439 128.051 124.331 129.375 125.039 131.949H125.037Z" fill="#CBB192"/>
<path d="M98.8351 95.3303C97.3924 89.1871 97.3924 67.1948 99.5187 63.4036C99.5187 63.4036 93.7467 61.432 89.5708 61.432C85.395 61.432 76.3567 64.0863 76.3567 64.0863L75.9004 95.028L98.8336 95.3318L98.8351 95.3303Z" fill="#BED2FA"/>
<path d="M75.7334 88.2021L75.8811 92.822L89.3241 91.3091L98.4008 92.5212L97.9121 85.5802L75.7334 88.2021Z" fill="#9EAFCC"/>
<path d="M76.5571 64.048C71.2029 65.6406 59.6366 81.3643 57.8145 86.0654C56.1223 90.4287 57.3656 99.676 62.9398 95.5825C71.7862 89.0869 94.0992 89.9834 94.0992 85.3192C94.0992 80.655 93.7596 74.7404 88.3655 75.1946C78.1651 76.0543 68.9142 82.69 68.9142 82.69C68.9142 82.69 73.9583 78.9356 78.1651 76.0543C80.9795 74.1255 76.5571 64.0465 76.5571 64.0465V64.048Z" fill="#BED2FA"/>
<path d="M76.4019 76.0042C76.4388 72.2306 76.2867 71.3577 76.2867 71.3577C76.2867 71.3577 68.8062 81.1034 67.3252 83.8712C67.3252 83.8712 74.9947 78.222 76.6662 78.0701L76.4004 76.0042H76.4019Z" fill="#9EAFCC"/>
<path d="M75.9019 95.0266C75.143 100.031 73.3578 173.898 78.2941 179.054H94.6977C93.6345 169.043 91.3945 138.253 90.4835 125.816C90.4835 125.816 92.341 135.595 93.5563 142.539C94.7715 149.482 100.146 168.741 106.279 177.826H122.53C119.46 159.034 113.361 149.63 108.102 137.041C100.487 118.811 102.028 102.248 98.8381 95.3304L75.9049 95.0266H75.9019Z" fill="#F24A24"/>
<path d="M110.435 176.633C113.157 179.84 113.952 182.377 114.421 186.567C114.647 188.583 113.358 193.646 113.358 193.646H125.559C125.559 193.646 120.598 187.275 119.991 184.9C119.384 182.524 116.359 176.633 116.359 176.633H110.436H110.435Z" fill="#4C381A"/>
<path d="M92.8984 179.054H85.886C87.0244 185.273 87.3286 188.231 85.5065 189.141C83.6843 190.05 74.8882 190.127 73.3555 193.539H93.6308C93.6308 193.539 93.365 190.127 92.1881 187.927C91.4336 186.516 92.8969 179.054 92.8969 179.054H92.8984Z" fill="#4C381A"/>
<path d="M85.5981 61.901C84.374 63.6971 80.2306 68.6621 84.6501 68.4777C89.0696 68.2934 91.4528 61.3922 91.4528 61.3922C91.4528 61.3922 90.2656 59.605 90.1741 57.7205C90.0825 55.8359 91.6478 54.5029 92.6135 53.3527C93.5792 52.2025 94.2244 48.1119 92.3373 46.8703C90.4502 45.6287 83.6844 44.7557 82.6936 47.7904C81.7028 50.8252 81.8874 57.4447 82.3466 57.6748C83.9664 58.4843 85.2467 57.1233 85.8447 57.9505C86.4427 58.7778 85.5951 61.901 85.5951 61.901H85.5981Z" fill="#4C381A"/>
<path d="M90.6864 46.5488C92.0303 46.5488 93.1198 45.4608 93.1198 44.1186C93.1198 42.7765 92.0303 41.6885 90.6864 41.6885C89.3424 41.6885 88.2529 42.7765 88.2529 44.1186C88.2529 45.4608 89.3424 46.5488 90.6864 46.5488Z" fill="#272727"/>
<path d="M95.5555 54.615C96.8995 54.615 97.989 53.5269 97.989 52.1848C97.989 50.8427 96.8995 49.7546 95.5555 49.7546C94.2116 49.7546 93.1221 50.8427 93.1221 52.1848C93.1221 53.5269 94.2116 54.615 95.5555 54.615Z" fill="#272727"/>
<path d="M95.1756 49.5186C96.5196 49.5186 97.6091 48.4306 97.6091 47.0885C97.6091 45.7463 96.5196 44.6583 95.1756 44.6583C93.8317 44.6583 92.7422 45.7463 92.7422 47.0885C92.7422 48.4306 93.8317 49.5186 95.1756 49.5186Z" fill="#272727"/>
<path d="M82.5904 48.1414C82.4988 48.8595 86.6407 48.0588 87.2225 48.5897C87.8043 49.1205 86.8932 50.8901 87.0453 51.446C87.1974 52.0019 88.513 50.0333 89.5511 49.7797C90.5892 49.526 91.1458 51.2941 90.0827 52.2806C89.0195 53.2671 89.6013 55.1222 91.196 54.991C91.196 54.991 94.483 51.8471 93.5498 48.8168C92.8188 46.4412 91.5534 46.2023 88.4643 45.7909C85.3738 45.3794 82.8429 46.1507 82.5889 48.1414H82.5904Z" fill="#272727"/>
<path d="M90.4812 125.816C86.8177 116.565 86.2861 113.347 86.2861 113.347C86.2861 113.347 86.4825 133.287 91.472 139.296L90.4812 125.815V125.816Z" fill="#E33E23"/>
<path d="M89.371 88.2832L80.1836 85.3885L85.9822 89.4142L89.371 88.2832Z" fill="#9EAFCC"/>
<path d="M70.0723 81.8362C71.1339 77.7471 77.5852 74.7478 81.3964 75.0973L81.228 80.7052L78.3103 81.2464C77.7698 81.3467 77.219 81.1255 76.8986 80.6801C76.1588 79.6523 74.7723 79.3294 73.6545 79.9251L70.0723 81.8348V81.8362Z" fill="#4C381A"/>
<path d="M99.5186 63.4021C104.873 64.9947 115.845 83.0439 117.668 87.7464C119.36 92.1098 117.74 101.825 112.542 97.2636C102.47 88.4292 78.883 88.3142 78.883 83.6514C78.883 78.9887 78.7678 73.164 84.1604 73.6197C94.3608 74.4794 104.189 82.8552 104.189 82.8552C104.189 82.8552 99.4905 78.4313 97.9106 75.4098C96.3291 72.3884 99.5186 63.4021 99.5186 63.4021Z" fill="#BED2FA"/>
<path d="M97.1748 73.6182V70.0054L104.189 82.8551L102.085 81.233L97.1748 77.8414V73.6182Z" fill="#9EAFCC"/>
<path d="M102.085 81.2331C102.343 81.1963 102.5 81.1712 102.5 81.1712C102.754 80.1168 98.1721 74.6342 96.3854 73.7052C94.9162 72.9414 93.3687 73.9058 91.0371 75.2831C91.0371 75.2831 94.166 76.4554 96.7988 77.871C99.4316 79.2866 102.087 81.2316 102.087 81.2316L102.085 81.2331Z" fill="#4C381A"/>
<path d="M151.612 128.421C151.105 124.681 152.005 119.321 155.732 120.282C159.459 121.244 158.447 148.443 159.915 150.263L155.106 150.675C155.106 150.675 155.143 126.349 154.751 124.579C154.36 122.81 152.511 126.405 152.365 128.45C152.22 130.495 151.612 128.421 151.612 128.421V128.421Z" fill="#D0B080"/>
<path d="M135.428 161.775L124.811 161.561L130.66 186.351C130.608 188.083 124.889 191.46 124.737 193.677H135.862C135.862 193.677 135.646 189.551 135.428 185.972V161.775V161.775Z" fill="#F2CBD2"/>
<path d="M138.483 133.257C144.989 133.411 158 144.034 159.76 148.315L154.165 165.016L142.08 160.878L131.978 146.939L138.483 133.257V133.257Z" fill="white"/>
<path d="M109.819 148.984C113.379 146.098 133.355 133.334 138.483 133.257C143.612 133.181 138.483 141.741 138.483 141.741L121.109 150.224L109.819 148.983V148.984Z" fill="#D1B0B8"/>
<path d="M103.737 156.645C103.386 159.351 104.043 161.536 107.029 160.695C110.013 159.855 137.829 143.829 140.245 143.422C140.763 143.335 140.186 145.727 141.822 146.255C143.421 146.769 148.049 145.634 148.049 145.634C148.049 145.634 146.182 138.513 144.48 138.519C140.717 138.534 110.549 148.161 107.488 150.071C104.427 151.981 103.877 155.565 103.737 156.645V156.645Z" fill="#F2CBD2"/>
<path d="M148.259 137.38C148.739 141.207 148.739 144.799 150.652 145.563C152.566 146.327 152.762 140.695 152.762 140.695L148.259 137.38Z" fill="#F2CBD2"/>
<path d="M181.235 180.682C178.728 177.146 148.302 161.962 148.302 161.962C148.302 161.962 130.88 135.32 127.921 135.422C124.962 135.524 122.313 137.6 121.394 139.843C120.476 142.084 117.825 167.626 117.825 167.626L135.166 167.921L135.31 173.912L135.428 178.879L148.415 184.814L154.532 185.106L154.907 193.646C154.907 193.646 179.899 192.432 181.488 188.627C181.488 188.627 183.412 183.754 181.235 180.684V180.682Z" fill="#A269C7"/>
<path d="M135.167 167.921L133.748 151.895L141.457 174.077L167.314 179.843L153.226 179.848L140.05 180.99L135.428 178.879L135.167 167.921Z" fill="#7A5299"/>
<path d="M159.76 148.315C159.76 148.315 165.749 163.089 166.362 165.637C166.975 168.185 165.405 171.118 165.405 171.118C165.405 171.118 159.98 168.546 159.76 168.646C158.902 169.033 159.147 174.048 159.147 174.048C159.147 174.048 153.315 176.494 152.761 175.27C152.207 174.048 151.085 169.665 151.085 169.665C151.085 169.665 153.554 166.15 154.54 165.444C155.55 164.718 160.476 164.597 160.476 164.597L156.467 158.144L159.76 148.316V148.315Z" fill="#F2CBD2"/>
<path d="M151.195 193.677H143.106C143.106 193.677 139.597 183.64 138.821 181.511C138.821 181.511 141.06 180.455 142.838 180.171C145.493 179.746 154.202 179.855 154.202 179.855L154.532 185.554C154.532 185.554 147.207 184.428 146.61 184.81C146.014 185.192 147.163 190.313 147.163 190.313C147.163 190.313 149.995 190.313 151.195 193.677Z" fill="#F2CBD2"/>
<path d="M148.259 137.38C148.759 137.336 148.35 136.41 148.35 136.41L153.315 140.415C152.556 140.824 152.718 141.384 152.718 141.384C152.718 141.384 151.949 141.437 150.379 140.899C149.106 140.462 148.259 137.38 148.259 137.38V137.38Z" fill="#D1B0B8"/>
<path d="M151.165 126.141C145.908 126.897 147.111 131.949 147.876 134.93C148.641 137.91 150.423 140.74 153.179 140.433C155.934 140.126 156.699 136.764 156.699 134.93C156.699 133.095 157.882 125.175 151.165 126.141Z" fill="#F2CBD2"/>
<path d="M160.477 164.594C162.807 164.559 163.491 164.647 163.491 164.647L158.203 160.934L160.477 164.594V164.594Z" fill="#D1B0B8"/>
<path d="M147.602 133.812C147.563 132.507 147.782 130.916 148.259 130.535C148.804 130.102 150.088 130.895 151.984 130.597C154.87 130.141 154.901 128.87 155.77 129.65C156.64 130.431 156.779 132.532 156.779 132.532C156.779 132.532 157.854 125.414 151.165 126.141C145.393 126.769 147.602 133.812 147.602 133.812Z" fill="#D0B080"/>
</svg>
