<svg width="100%" height="100%" viewBox="0 0 300 225" fill="none" preserveAspectRatio="xMidYMid meet" xmlns="http://www.w3.org/2000/svg">
<g clip-path="url(#clip0_1365_11637)">
<rect width="300" height="225" fill="white"/>
<path d="M300 -26H0V274H300V-26Z" fill="url(#paint0_linear_1365_11637)"/>
<path d="M47.7539 174.616H111.205C110.604 165.726 94.9655 170.548 94.9655 170.548C94.6644 159.548 56.399 155.236 55.7222 172.355C55.7222 172.355 47.7539 167.688 47.7539 174.616Z" fill="#99A3FF"/>
<path d="M92.9189 173.917H38.6381C38.4773 173.917 38.3457 173.785 38.3457 173.624C38.3457 172.051 38.8135 170.984 39.7344 170.454C41.4374 169.476 44.1593 170.686 45.1913 171.216C45.8067 164.059 53.946 161.536 61.4728 161.587C69.7392 161.637 78.7293 164.766 79.2921 169.763C80.9424 169.3 87.7968 167.583 91.2481 169.962C92.4424 170.784 93.1017 172.011 93.2098 173.606C93.2157 173.687 93.1864 173.768 93.1323 173.826C93.0768 173.886 92.9993 173.918 92.9189 173.918V173.917ZM38.9363 173.331H92.5973C92.4424 172.076 91.8781 171.105 90.9177 170.442C87.291 167.943 79.1941 170.398 79.1137 170.423C79.026 170.45 78.931 170.435 78.8579 170.381C78.7848 170.327 78.738 170.242 78.7366 170.151C78.6079 165.44 69.7056 162.222 61.4713 162.172C61.4055 162.172 61.3383 162.172 61.2725 162.172C53.9109 162.172 46.026 164.669 45.7482 171.702C45.7438 171.805 45.6868 171.898 45.5962 171.947C45.5056 171.997 45.3974 171.995 45.3082 171.942C45.2732 171.922 41.8219 169.927 40.0253 170.961C39.3529 171.348 38.9874 172.145 38.9363 173.33V173.331Z" fill="#99A3FF"/>
<path d="M251.594 46.9839H188.144C188.744 38.0938 204.383 42.916 204.383 42.916C204.684 31.9165 242.949 27.604 243.626 44.7236C243.626 44.7236 251.594 40.0566 251.594 46.9839Z" fill="#99A3FF"/>
<path d="M260.711 46.2851H206.43C206.35 46.2851 206.272 46.2515 206.217 46.1929C206.161 46.1343 206.134 46.0537 206.139 45.9731C206.248 44.3765 206.907 43.1504 208.101 42.3286C211.552 39.9512 218.407 41.6665 220.057 42.1294C220.62 37.1328 229.61 34.0054 237.876 33.9541C245.405 33.9087 253.543 36.4253 254.158 43.5825C255.19 43.0522 257.913 41.8423 259.615 42.8208C260.537 43.3511 261.004 44.4175 261.004 45.9907C261.004 46.1519 260.872 46.2837 260.711 46.2837V46.2851ZM206.752 45.6992H260.413C260.362 44.5142 259.996 43.7173 259.324 43.3306C257.527 42.2964 254.076 44.2915 254.041 44.312C253.952 44.3633 253.844 44.3647 253.753 44.3164C253.662 44.2666 253.605 44.1743 253.601 44.0718C253.323 37.0405 245.438 34.5415 238.077 34.5415C238.01 34.5415 237.944 34.5415 237.878 34.5415C229.644 34.5913 220.741 37.8096 220.613 42.5205C220.61 42.6113 220.564 42.6977 220.491 42.7505C220.417 42.8047 220.322 42.8193 220.236 42.793C220.154 42.7681 212.054 40.3144 208.43 42.812C207.47 43.4741 206.905 44.4453 206.75 45.7007L206.752 45.6992Z" fill="#99A3FF"/>
<path d="M172.419 116.082C161.716 116.082 151.985 114.947 142.67 112.612C134.361 110.529 126.571 107.53 118.856 103.445C104.523 95.854 92.583 85.5195 81.0363 75.5249C59.9864 57.3052 38.2203 38.4644 0.535156 34.3525L0.598013 33.7695C9.69477 34.7627 18.0694 36.5952 26.2028 39.3711C33.4416 41.8423 40.315 45.0107 47.2161 49.0537C60.0171 56.5552 70.8972 65.9727 81.4192 75.0796C105.431 95.8628 128.11 115.493 172.42 115.493C201.449 115.493 222.667 105.526 243.187 95.8862C261.508 87.2803 278.813 79.1519 299.945 79.1519V79.7378C278.943 79.7378 261.697 87.8398 243.436 96.4165C222.858 106.083 201.579 116.078 172.422 116.078L172.419 116.082Z" fill="#99A3FF"/>
<path d="M168.988 125.772C153.269 125.772 136.558 123.463 117.895 118.714C101.418 114.521 85.5133 109.004 70.1323 103.669C45.4952 95.1231 22.2248 87.0503 0.550781 85.855L0.582941 85.2705C22.3389 86.4717 45.6472 94.5562 70.3238 103.117C101.606 113.968 133.953 125.189 168.989 125.189C200.817 125.189 224.207 118.298 244.843 112.219C264.67 106.379 281.794 101.334 300 105.017L299.884 105.591C281.819 101.936 264.76 106.962 245.007 112.78C224.333 118.871 200.9 125.773 168.988 125.773V125.772Z" fill="#99A3FF"/>
<path d="M91.7559 101.154C94.1664 102.567 96.5637 103.836 98.7535 104.661C110.638 109.136 112.977 105.525 124.197 111.156C131.629 114.885 142.477 123.913 149.677 119.251C156.876 123.913 167.722 114.885 175.156 111.156C186.376 105.525 188.715 109.137 200.6 104.661C207.925 101.902 217.562 94.1797 222.294 92.6944C227.026 91.209 226.713 94.4829 229.514 93.6758C232.315 92.8687 236.319 88.1241 243.562 86.2857C250.804 84.4473 228.571 87.1455 225.192 87.919C221.812 88.6924 192.232 97.2969 188.66 97.7818C185.087 98.2652 149.678 104.661 149.678 104.661C149.678 104.661 114.269 98.2666 110.696 97.7818C109.137 97.5708 102.623 95.813 95.4951 93.834" fill="white"/>
<path d="M197.23 104.164C191.864 105.632 184.537 104.642 179.225 105.194C173.916 105.746 156.488 113.773 149.7 113.431H149.689C142.899 113.773 125.473 105.746 120.164 105.194C114.852 104.642 107.525 105.632 102.159 104.164C94.9042 102.181 82.6689 95.5317 82.6689 95.5317C87.5557 98.4819 93.7187 102.755 98.7779 104.661C110.662 109.136 113.001 105.525 124.222 111.156C131.652 114.884 142.496 123.909 149.695 119.253C156.895 123.909 167.738 114.885 175.168 111.156C186.389 105.525 188.728 109.137 200.612 104.661C205.672 102.755 211.833 98.4819 216.721 95.5317C216.721 95.5317 204.486 102.181 197.231 104.164H197.23Z" fill="#E5E5E5"/>
<path d="M145.62 85.1138C145.62 85.1138 147.621 86.6255 149.677 86.5757V92.772L144.664 91.0449L144.525 85.1138H145.62Z" fill="#E7B89D"/>
<path d="M153.731 85.1138C153.731 85.1138 151.73 86.6255 149.675 86.5757V92.772L154.687 91.0449L154.826 85.1138H153.731Z" fill="#E7B89D"/>
<path d="M153.731 89.1304C152.514 89.4819 151.179 83.7617 151.179 83.7617C151.179 83.7617 152.974 83.0469 153.509 80.8818C154.562 76.6294 154.826 71.5098 149.675 71.5098C144.523 71.5098 144.788 76.6294 145.841 80.8818C146.377 83.0469 148.171 83.7617 148.171 83.7617C148.171 83.7617 146.836 89.4819 145.618 89.1304L144.523 90.0972L145.665 94.6133L149.675 94.0654L153.685 94.6133L154.826 90.0972L153.731 89.1304V89.1304Z" fill="#E7B89D"/>
<path d="M91.7554 101.154C86.1026 97.8418 80.3753 93.7344 77.0585 92.6944C72.3266 91.209 72.6395 94.4829 69.8387 93.6758C67.0379 92.8687 63.034 88.1241 55.7908 86.2857C48.5491 84.4473 70.7815 87.1455 74.1612 87.919C76.0659 88.3555 86.2912 91.2779 95.4932 93.8326L91.7554 101.152V101.154Z" fill="#E7B89D"/>
<path d="M207.594 101.154C213.247 97.8418 218.974 93.7344 222.291 92.6944C227.023 91.209 226.71 94.4829 229.511 93.6758C232.312 92.8687 236.316 88.1241 243.559 86.2857C250.801 84.4473 228.568 87.1455 225.188 87.919C223.284 88.3555 213.058 91.2779 203.856 93.8326L207.594 101.152V101.154Z" fill="#E7B89D"/>
<path d="M153.732 85.1138C153.732 85.1138 155.566 89.9521 149.675 90.0488C143.784 89.9521 145.62 85.1138 145.62 85.1138C145.62 85.1138 141.241 82.2866 136.773 80.0894L141.58 103.262L149.675 104.661L159.434 103.262L162.577 80.0894C158.111 82.2881 153.73 85.1138 153.73 85.1138H153.732Z" fill="#F44A24"/>
<path d="M142.042 -39.9121H139.118V145.257H142.042V-39.9121Z" fill="#272727"/>
<path d="M160.535 -40H157.611V145.169H160.535V-40Z" fill="#272727"/>
<path d="M165.564 78.9658C167.374 79.1987 169.331 85.3013 168.937 92.375C168.201 105.583 163.454 128.967 162.8 133.739C159.356 158.898 163.42 157.391 160.719 160.174C159.548 161.381 151.938 160.558 151.938 160.558C151.938 160.558 149.739 154.996 154.287 154.868C155.668 154.83 155.177 137.816 155.668 127.855C155.915 122.845 157.223 97.373 157.758 91.2134C158.295 85.0537 157.751 77.9595 165.563 78.9673L165.564 78.9658Z" fill="#E7B89D"/>
<path d="M145.063 154.867C144.427 154.849 144.188 151.224 144.068 146.344L144.025 144.365C143.927 139.001 143.917 132.62 143.682 127.852C143.435 122.842 142.126 97.3701 141.591 91.2104C141.056 85.0508 141.599 77.9565 133.787 78.9644C131.977 79.1973 130.02 85.2998 130.415 92.3735C131.15 105.582 135.898 128.965 136.551 133.738C137.133 137.984 137.5 141.471 137.722 144.346L137.852 146.214C138.602 158.456 136.491 157.966 138.633 160.172C139.804 161.379 147.414 160.556 147.414 160.556C147.414 160.556 149.612 154.994 145.065 154.867H145.063Z" fill="#E7B89D"/>
<path d="M137.656 157.685C135.676 156.566 134.334 154.439 134.334 152.003C134.334 149.567 135.763 147.299 137.851 146.214L137.721 144.339L137.626 144.378C134.663 145.637 132.578 148.581 132.578 152.003C132.578 155.709 135.022 158.854 138.38 159.906C137.706 159.151 137.591 158.686 137.655 157.687L137.656 157.685Z" fill="#272727"/>
<path d="M144.026 144.367L144.068 146.346C146.024 147.471 147.344 149.586 147.344 152.003C147.344 153.796 146.632 155.467 145.34 156.708C145.344 157.391 146.166 157.886 146.553 157.977C148.193 156.4 149.097 154.279 149.097 152.001C149.097 148.569 147.001 145.618 144.024 144.367H144.026Z" fill="#272727"/>
<path d="M161.695 157.685C163.676 156.566 165.018 154.439 165.018 152.003C165.018 149.488 163.588 147.299 161.501 146.214L161.631 144.339L161.726 144.378C164.689 145.637 166.774 148.581 166.774 152.003C166.774 155.709 164.329 158.854 160.972 159.906C161.646 159.151 161.761 158.686 161.697 157.687L161.695 157.685Z" fill="#272727"/>
<path d="M155.326 144.367L155.283 146.346C153.328 147.471 152.008 149.586 152.008 152.003C152.008 153.796 152.719 155.467 154.012 156.708C154.007 157.391 153.186 157.886 152.798 157.977C151.158 156.4 150.255 154.279 150.255 152.001C150.255 148.569 152.351 145.618 155.327 144.367H155.326Z" fill="#272727"/>
<path d="M107.72 60.1982C112.602 60.1982 116.56 56.2324 116.56 51.3403C116.56 46.4482 112.602 42.4824 107.72 42.4824C102.838 42.4824 98.8809 46.4482 98.8809 51.3403C98.8809 56.2324 102.838 60.1982 107.72 60.1982Z" fill="#99A3FF"/>
<path d="M146.568 197.64H245.691C244.751 187.414 230.424 192.961 230.424 192.961C230.424 176.053 184.679 177.768 184.679 193.366C184.679 181.985 159.02 188.803 159.02 195.041C159.02 190.158 146.571 191.145 146.571 197.642L146.568 197.64Z" fill="#99A3FF"/>
<path d="M201.924 137.289H252.218C252.218 137.289 251.755 133.565 249.175 133.565C246.595 133.565 245.403 135.427 245.403 135.427C245.403 135.427 242.69 125.479 229.654 125.479C216.618 125.479 214.83 135.267 214.83 135.267C214.83 135.267 213.837 131.384 209.199 131.384C203.045 131.384 201.925 137.289 201.925 137.289" fill="#99A3FF"/>
<path d="M137.213 139.585L143.843 139.648C144.294 139.653 144.663 140.016 144.671 140.469L144.897 150.888C144.907 151.361 144.524 151.75 144.052 151.745L137.862 151.682C137.424 151.678 137.063 151.335 137.035 150.897L136.37 140.476C136.339 139.99 136.727 139.58 137.213 139.584V139.585Z" fill="white"/>
<path d="M161.857 139.585L155.228 139.648C154.776 139.653 154.408 140.016 154.399 140.469L154.174 150.888C154.164 151.361 154.547 151.75 155.019 151.745L161.208 151.682C161.647 151.678 162.008 151.335 162.036 150.897L162.701 140.476C162.731 139.99 162.344 139.58 161.857 139.584V139.585Z" fill="white"/>
<path d="M142.384 94.2969C144.451 96.4062 147.458 97.9136 147.458 97.9136C147.458 97.9136 144.226 97.6499 142.384 97.1973V94.2969V94.2969Z" fill="#E53E23"/>
<path d="M156.915 94.2969C154.848 96.4062 151.841 97.9136 151.841 97.9136C151.841 97.9136 155.073 97.6499 156.915 97.1973V94.2969V94.2969Z" fill="#E53E23"/>
<path d="M148.172 83.7632C149.29 84.1748 150.173 84.2466 151.179 83.7632C152.184 83.2798 148.172 83.7632 148.172 83.7632Z" fill="#E7B89D"/>
<path d="M148.173 83.7632C148.576 84.0796 150.351 84.2788 151.18 83.7632L151.342 84.4048C151.342 84.4048 150.471 85.603 147.841 85.0244L148.173 83.7617V83.7632Z" fill="#CCA28D"/>
<path d="M154.447 73.4668C154.472 72.9146 154.472 72.0108 153.921 71.6841C153.37 71.3575 152.703 70.8726 152.411 70.4786C151.885 69.7667 150.21 70.6983 149.755 70.6602C149.3 70.6983 147.625 69.7652 147.099 70.4786C146.808 70.8726 146.141 71.3575 145.59 71.6841C145.039 72.0108 145.039 72.9146 145.064 73.4668C145.089 74.0191 144.338 75.2745 144.639 75.7022C144.94 76.1285 145.223 76.4551 145.223 76.4551C145.867 77.4102 145.867 73.3672 146.894 73.6426C147.922 73.9195 148.258 74.6226 149.756 74.6226C151.255 74.6226 151.591 73.9195 152.619 73.6426C153.646 73.3658 153.646 77.4087 154.289 76.4551C154.289 76.4551 154.573 76.1285 154.874 75.7022C155.175 75.2759 154.422 74.0191 154.449 73.4668H154.447Z" fill="#4C381A"/>
</g>
<defs>
<linearGradient id="paint0_linear_1365_11637" x1="0" y1="-26" x2="300" y2="274" gradientUnits="userSpaceOnUse">
<stop stop-color="#8591FF"/>
<stop offset="1" stop-color="#6170FF"/>
</linearGradient>
<clipPath id="clip0_1365_11637">
<rect width="300" height="225" fill="white"/>
</clipPath>
</defs>
</svg>
