<svg width="100%" height="100%" viewBox="0 0 300 150" fill="none" preserveAspectRatio="xMidYMid meet" xmlns="http://www.w3.org/2000/svg">
<g clip-path="url(#clip0_1080_11003)">
<rect width="300" height="150" fill="white"/>
<path d="M300.796 -151H-1V151H300.796V-151Z" fill="url(#paint0_linear_1080_11003)"/>
<path d="M236.196 113C225.992 113 215.616 111.819 204.808 109.442C174.708 102.823 146.5 87.9384 119.22 73.5436C78.2814 51.9419 39.6142 31.5389 -0.867351 40.945L-1 40.3679C8.79982 38.0903 18.7043 37.4643 29.2764 38.4529C38.7255 39.3364 48.5223 41.5044 59.2286 45.0783C79.151 51.7303 98.7477 62.0702 119.495 73.0183C174.784 102.191 231.952 132.358 301.724 95.3126L302 95.8364C293.488 100.354 284.835 104.023 276.278 106.737C268.139 109.32 259.825 111.122 251.567 112.096C246.466 112.697 241.354 112.999 236.197 112.999L236.196 113Z" fill="#97A1FF"/>
<path d="M238.581 126C235.88 126 233.17 125.934 230.456 125.799C214.4 125.01 198.148 121.866 182.155 116.454C90.5737 85.4676 62.7166 81.1016 -0.755084 109.432L-1 108.907C15.6824 101.461 29.2487 96.6258 41.6922 93.693C54.8469 90.5913 67.1605 89.4872 80.4421 90.2161C93.1792 90.9161 107.114 93.3394 124.297 97.8425C138.958 101.685 155.776 106.919 182.347 115.91C218.433 128.12 248.962 126.323 268.219 122.665C289.087 118.701 301.581 111.759 301.705 111.688L302 112.189C301.876 112.26 289.316 119.241 268.359 123.226C258.656 125.072 248.672 126 238.581 126Z" fill="#97A1FF"/>
<path d="M255.469 94C219.668 94 184.905 79.9139 148.171 65.0307C102.58 46.5599 55.4364 27.4594 -0.963117 31.0143L-1 30.423C24.2956 28.8286 50.1592 31.7315 78.0676 39.2961C102.73 45.982 125.944 55.3871 148.393 64.4824C186.433 79.8947 222.366 94.4534 259.46 93.348C277.326 92.816 287.796 87.852 293.433 83.78C299.532 79.376 301.441 75.0418 301.459 74.9988L302 75.2329C301.922 75.4152 300.029 79.7332 293.818 84.2319C290.183 86.8651 285.816 89.0048 280.838 90.5948C274.627 92.5775 267.439 93.7036 259.477 93.9407C258.142 93.9807 256.803 94 255.469 94Z" fill="#97A1FF"/>
</g>
<defs>
<linearGradient id="paint0_linear_1080_11003" x1="-1" y1="-151" x2="301" y2="150.796" gradientUnits="userSpaceOnUse">
<stop stop-color="#838FFF"/>
<stop offset="1" stop-color="#6170FF"/>
</linearGradient>
<clipPath id="clip0_1080_11003">
<rect width="300" height="150" fill="white"/>
</clipPath>
</defs>
</svg>
