<svg width="100%" height="100%" viewBox="0 0 204 195" fill="none" preserveAspectRatio="xMidYMid meet" xmlns="http://www.w3.org/2000/svg">
<path d="M40.3066 27.0754H104.442C103.835 18.0964 88.0276 22.9669 88.0276 22.9669C87.7232 11.8574 49.045 7.50173 48.3609 24.7926C48.3609 24.7926 40.3066 20.0789 40.3066 27.0754Z" fill="#97A1FF"/>
<path d="M85.9588 26.3696H31.0924C30.9299 26.3696 30.7969 26.2365 30.7969 26.0737C30.7969 24.4848 31.2697 23.4077 32.2006 22.8721C33.9204 21.8838 36.6732 23.1059 37.7163 23.6414C38.3384 16.4126 46.5684 13.8664 54.1734 13.9167C62.5291 13.967 71.6161 17.1272 72.185 22.1738C73.8531 21.7063 80.7815 19.9723 84.27 22.375C85.4772 23.205 86.1435 24.4448 86.2529 26.056C86.2588 26.1373 86.2292 26.2187 86.1746 26.2779C86.1184 26.3386 86.0401 26.3711 85.9588 26.3711V26.3696ZM31.3938 25.7778H85.6338C85.4772 24.5099 84.9068 23.529 83.9361 22.8603C80.2702 20.3363 72.086 22.8159 72.0047 22.841C71.9161 22.8677 71.82 22.8529 71.7461 22.7981C71.6723 22.7434 71.625 22.6576 71.6235 22.5659C71.4935 17.8078 62.4951 14.5574 54.172 14.5071C54.1055 14.5071 54.0375 14.5071 53.971 14.5071C46.53 14.5071 38.56 17.0296 38.2793 24.1326C38.2748 24.2362 38.2172 24.3309 38.1256 24.3797C38.034 24.43 37.9247 24.4285 37.8345 24.3753C37.7991 24.3546 34.3105 22.341 32.4946 23.384C31.8149 23.7746 31.4455 24.5794 31.3938 25.7764V25.7778Z" fill="#97A1FF"/>
<path d="M124.331 12.7628H175.168C175.168 12.7628 174.7 9.00188 172.092 9.00188C169.484 9.00188 168.28 10.8823 168.28 10.8823C168.28 10.8823 165.537 0.835083 152.36 0.835083C139.184 0.835083 137.376 10.7211 137.376 10.7211C137.376 10.7211 136.373 6.79892 131.685 6.79892C125.464 6.79892 124.333 12.7628 124.333 12.7628" fill="#97A1FF"/>
<path d="M185.309 75.5524C185.309 75.5524 192.361 78.0823 194.033 77.9299C195.704 77.7775 197.477 74.7342 197.376 73.7711C197.274 72.8079 182.635 40.6985 182.635 40.6985L178.177 42.7787L188.308 68.9523L184.787 67.279L185.309 75.5538V75.5524Z" fill="#D0B080"/>
<path d="M139.7 55.3469L191.159 32.1736C200.19 27.6523 210.994 39.8033 196.044 47.4331L146.087 69.6639C136.502 74.3732 128.405 60.4319 139.701 55.3454L139.7 55.3469Z" fill="#FAC734"/>
<path d="M148.997 110.495C153.252 128.166 147.477 175.627 147.419 179.278H165.961C165.411 165.125 164.347 121.337 165.411 113.1L148.997 110.495V110.495Z" fill="#0E5DF7"/>
<path d="M173.77 112.062C173.77 112.062 183.496 133.219 184.865 136.354C186.233 139.489 186.992 143.406 185.472 146.54C183.952 149.675 180.039 179.278 180.039 179.278H162.675C162.675 179.278 170.578 148.875 170.578 145.67C170.578 142.465 156.748 110.495 156.748 110.495L173.77 112.062V112.062Z" fill="#0E5DF7"/>
<path d="M185.769 82.9513L184.781 67.2776L167.468 60.1301L151.877 58.4509L140.823 65.3557C140.823 65.3557 138.806 68.4937 138.958 68.4937C139.111 68.4937 139.252 95.5048 138.954 96.6085H151.877V85.9177L154.612 97.1027L155 113.334C155.52 112.884 156.129 112.609 156.855 112.593C162.366 112.476 158.523 120.776 177.799 120.857C177.799 120.857 174.308 86.8424 174.054 83.7414L185.768 82.9498L185.769 82.9513Z" fill="#F24A24"/>
<path d="M151.878 85.9192V96.61H144.291L144.925 122.556L147.939 122.723C148.49 122.69 149.155 122.722 149.921 122.64C151.983 122.421 152.369 115.608 155 113.336L154.612 97.1042L151.877 85.9192H151.878Z" fill="#E33E23"/>
<path d="M141.625 96.6084C141.321 97.9399 140.941 99.1576 142.157 100.451C143.373 101.744 153.58 116.099 153.58 116.099L156.86 112.593L149.147 96.6084H141.625V96.6084Z" fill="#D0B080"/>
<path d="M151.884 58.4508C153.404 57.0808 155.037 53.5818 154.43 51.0327C153.822 48.4835 152.682 48.9777 152.682 45.782C152.682 42.5862 153.784 40.6082 156.785 40.151C159.786 39.6938 165.523 40.836 166.055 43.613C166.587 46.39 165.903 54.798 164.953 55.1397C164.003 55.4815 161.343 53.6943 160.09 54.15C158.836 54.6071 161.42 64.3451 161.42 64.3451C157.203 64.3451 151.884 58.4479 151.884 58.4479V58.4508Z" fill="#D0B080"/>
<path d="M153.581 116.101C154.905 116.298 157.242 114.96 156.861 112.594L153.581 116.101Z" fill="#D0B080"/>
<path d="M153.302 179.28C153.201 186.686 150.82 190.845 150.922 194.295H160.801C160.801 194.295 160.599 192.824 159.635 187.396C158.673 181.968 158.47 179.28 158.47 179.28H153.302V179.28Z" fill="#D0B080"/>
<path d="M171.168 179.28C172.181 182.932 169.817 188.486 171.012 194.295L194.21 194.548C193.678 191.302 185.699 191.987 180.912 189.095C176.125 186.204 176.732 179.28 176.732 179.28H171.168V179.28Z" fill="#D0B080"/>
<path d="M175.136 37.9067C173.71 38.9778 176.276 41.635 176.884 42.32C177.492 43.005 182.735 40.1141 182.735 40.1141L181.533 36.5085L182.735 35.967L181.672 35.4729C181.672 35.4729 175.745 37.451 175.136 37.9081V37.9067Z" fill="#D0B080"/>
<path d="M187.833 32.8929L183.932 34.9519L185.988 38.8588L189.89 36.7998L187.833 32.8929Z" fill="#F24A24"/>
<path d="M193.604 43.8551L189.702 45.9141L191.758 49.821L195.66 47.762L193.604 43.8551Z" fill="#F24A24"/>
<path d="M145.857 51.0183L141.955 53.0773L144.011 56.9842L147.913 54.9252L145.857 51.0183Z" fill="#F24A24"/>
<path d="M170.667 192.518C178.387 192.771 181.529 192.518 181.529 192.518L182.745 189.17L189.837 191.351V193.379H194.447V194.952H170.668V192.517L170.667 192.518Z" fill="#F4F4F4"/>
<path d="M150.919 191.329C152.196 190.821 159.579 190.553 160.498 191.093C161.417 191.633 160.145 189.013 160.145 189.013C158.744 188.427 152.575 188.254 151.523 189.013C151.306 189.17 150.919 191.329 150.919 191.329V191.329Z" fill="#F4F4F4"/>
<path d="M150.561 192.518H161.076L161.692 194.953H150.015L150.561 192.518Z" fill="#F4F4F4"/>
<path d="M151.053 192.518L151.306 191.219L151.211 189.919L150.586 192.518H151.053Z" fill="#F4F4F4"/>
<path d="M160.83 190.92L161.073 192.518H160.519L160.225 190.692L160.83 190.92Z" fill="#F4F4F4"/>
<path d="M164.956 130.042L164.994 122.556L169.133 140.767L164.956 130.042Z" fill="#0B49AB"/>
<path d="M174.055 83.7429L173.168 74.6632L182.208 83.1925L174.055 83.7429Z" fill="#E33E23"/>
<path d="M154.43 51.0327C158.29 50.4291 153.293 46.7762 155.041 45.4447C156.245 44.5274 157.815 48.1832 158.574 47.766C159.334 47.3488 158.308 45.1784 159.563 44.4564C160.817 43.7344 164.611 45.745 166.228 45.5187C166.228 45.5187 166.365 44.3203 165.851 43.0183C165.337 41.7164 162.677 40.0268 158.574 40.0534C154.471 40.08 152.88 41.3317 152.705 45.0215C152.515 49.0384 153.581 48.414 154.032 49.8506C154.483 51.2872 154.43 51.0312 154.43 51.0312" fill="#272727"/>
<path d="M157.261 40.4677C156.08 38.1271 151.062 36.371 148.085 40.2798C145.108 44.1886 145.77 58.0056 145.77 58.0056L151.78 56.5113C151.78 56.5113 150.251 44.0895 151.485 41.885C152.719 39.6806 155.034 39.7472 156.578 40.916L157.262 40.4692L157.261 40.4677Z" fill="#272727"/>
<path d="M21.0966 93.9646C16.1822 97.4473 15.0474 104.716 12.8547 105.246C10.662 105.775 10.662 107.215 10.662 107.215C10.662 107.215 11.1156 102.217 8.69539 101.763C6.27514 101.309 1.57057 99.7183 0.822923 104.565C0.0752751 109.41 2.94766 113.575 3.93172 115.241C4.9143 116.907 13.8373 116.832 13.8373 116.832C13.8373 116.832 25.4067 110.775 27.4487 106.534C29.4907 102.294 21.0966 93.9661 21.0966 93.9661V93.9646Z" fill="#E33E23"/>
<path d="M74.4304 89.0349C74.8486 90.8162 73.8084 93.5607 72.4475 92.8032C71.0867 92.0457 73.8261 94.7206 67.2967 94.9973C64.7952 95.1038 61.5505 92.0575 60.1128 92.0264C58.6751 91.9954 50.9637 93.4334 50.7362 94.4173C50.5086 95.4012 57.2389 98.3542 59.9621 101.232C62.6838 104.109 62.5005 105.698 62.5005 105.698L23.0614 99.0348C23.0614 99.0348 18.8266 90.7822 18.373 88.6621C17.9194 86.542 18.1455 82.5296 21.5483 81.3933C24.9512 80.2571 26.3874 81.8475 27.9757 82.4526C29.5641 83.0578 31.8322 83.1347 32.5133 83.1347C33.1945 83.1347 34.6307 85.4057 34.7814 85.8599C34.9321 86.3141 38.8654 86.6929 42.1914 85.4057C45.5189 84.1186 47.8623 81.0146 51.1898 81.6951C54.5173 82.3772 55.652 85.3687 57.3143 84.9515C59.51 84.3997 71.4738 83.8049 71.5728 84.9264C71.7412 86.8438 72.483 85.3465 73.3148 86.0286C74.1467 86.7106 74.2029 88.0658 74.4304 89.0319V89.0349Z" fill="#F24A24"/>
<path d="M18.6484 87.6324C19.3074 86.2653 22.4739 85.5049 22.4739 85.5049C22.4739 85.5049 20.7008 83.299 20.5294 83.0889C20.5294 83.0889 25.658 85.0477 26.3052 86.3423C26.9524 87.6368 27.901 94.5786 27.2937 95.7578C26.6864 96.9369 23.8746 95.3775 23.8746 95.3775L19.2838 90.7364L18.6499 87.6324H18.6484Z" fill="#E33E23"/>
<path d="M71.9585 91.7735C73.4065 92.423 80.9022 91.5397 81.7356 90.8044C82.5689 90.0706 84.8473 86.7062 84.5119 85.9354C84.1765 85.1661 78.6342 82.5193 77.8156 82.8418C76.997 83.1643 72.5924 84.7311 73.4198 84.8051C75.1441 84.9619 77.8717 85.6277 77.8717 85.6277C77.8717 85.6277 73.4183 86.3896 72.7446 86.8941C72.0708 87.3986 71.957 91.772 71.957 91.772L71.9585 91.7735Z" fill="#5E3721"/>
<path d="M50.9067 109.181C43.2219 112.463 23.557 119.872 18.848 125.791C14.139 131.711 17.0941 135.569 17.0941 135.569L39.2206 141.493L44.5088 132.236C42.0635 130.588 38.4538 130.144 38.4789 130.166C38.4789 130.166 58.0138 125.999 63.4394 124.649C72.1083 122.494 61.3132 104.735 50.9052 109.181H50.9067Z" fill="#0B49AB"/>
<path d="M44.5089 132.236L58.0759 141.943C57.4775 145.488 54.221 145.716 54.221 145.716L39.2207 141.492L44.5089 132.235V132.236Z" fill="white"/>
<path d="M25.4392 96.8421C24.3325 95.0801 19.6604 95.1422 18.8743 95.0534C18.0883 94.9647 14.3456 97.3171 13.6881 97.1647C13.0306 97.0123 9.43417 91.5973 9.37802 90.1933C9.32188 88.7878 11.4776 85.0432 14.6249 84.7621C17.7721 84.481 20.0726 85.6527 20.0786 88.5688C20.0845 91.4849 22.8135 89.387 23.2893 89.9107C26.4144 93.3432 25.4406 96.8421 25.4406 96.8421H25.4392Z" fill="#5E3721"/>
<path d="M62.0297 104.413C54.138 101.668 34.6061 93.9143 27.1458 95.1245C19.6856 96.3362 19.2822 101.182 19.2822 101.182L31.6834 120.464L41.8136 117.172C41.1103 114.306 38.7359 111.548 38.7403 111.581C38.7403 111.581 55.9997 121.647 60.9215 124.302C68.7851 128.542 72.7199 108.131 62.0312 104.414L62.0297 104.413Z" fill="#034CD9"/>
<path d="M41.8138 117.172L45.4456 133.184C42.622 135.405 39.9506 133.689 39.9506 133.689L31.6836 120.464L41.8138 117.172Z" fill="white"/>
<path d="M3.72045 103.444C3.72045 103.444 0.127011 98.6605 0.944105 97.3511C1.7612 96.0433 5.15073 92.6493 6.00772 92.6493C6.86471 92.6493 9.64253 94.9395 9.35589 95.7562C9.07072 96.5744 8.9067 98.4134 8.41615 98.8632C7.9256 99.3129 7.19125 100.254 7.19125 100.254C7.19125 100.254 7.97141 102.134 7.72465 102.707C7.4779 103.279 4.82271 103.892 3.72045 103.442V103.444Z" fill="#5E3721"/>
<path d="M46.2481 131.928C46.2481 131.928 46.9573 131.07 47.5129 131.872C48.067 132.674 48.7038 137.04 49.0761 138.636C49.447 140.23 30.3229 142.977 29.5161 142.372C28.7094 141.767 28.1834 138.533 34.7585 137.012C37.6486 136.343 37.4861 134.325 37.6324 133.035C37.8851 130.814 39.8635 132.164 39.8635 132.164C39.8635 132.164 41.2125 133.451 43.3801 133.337C45.3468 133.233 46.2496 131.93 46.2496 131.93L46.2481 131.928Z" fill="#F24A24"/>
<path d="M56.524 139.833C56.524 139.833 56.0231 138.839 56.9791 138.651C57.9351 138.463 62.1846 139.628 63.7951 139.925C65.4012 140.222 60.2593 158.87 59.3831 159.367C58.5069 159.864 55.3361 159.053 56.5757 152.41C57.121 149.49 55.209 148.833 54.086 148.182C52.1549 147.062 54.1821 145.787 54.1821 145.787C54.1821 145.787 55.9005 145.065 56.6644 143.03C57.3574 141.186 56.5255 139.835 56.5255 139.835L56.524 139.833Z" fill="#F24A24"/>
<path d="M9.57283 90.9464C13.3288 89.8161 20.2468 89.5675 20.2468 89.5675C20.2468 89.5675 21.383 83.9336 15.557 84.339C9.73093 84.7444 9.10888 88.9979 9.11035 89.5764C9.11183 90.1549 9.57135 90.9464 9.57135 90.9464H9.57283Z" fill="#272727"/>
<path d="M9.13541 89.2909C9.13541 89.2909 8.69953 89.6578 8.64338 89.8664C8.58576 90.075 8.91526 91.1343 9.11177 91.1343C9.30829 91.1343 10.2879 90.7496 10.2879 90.7496L9.60528 89.0615L9.13541 89.2909Z" fill="#272727"/>
<path d="M20.2468 89.5676C20.7758 89.5572 20.6989 89.2465 20.6989 89.2465L20.7034 88.4417C20.628 88.0422 19.4268 87.9342 19.4268 87.9342L20.2468 89.5676V89.5676Z" fill="#272727"/>
<path d="M35.1631 106.099L38.7403 111.581L47.6264 116.599L35.1631 106.099Z" fill="#0B49AB"/>
<path d="M56.942 77.7183C56.942 77.7183 32.8961 69.3814 32.1352 68.8251C31.3742 68.2688 30.006 63.8333 30.9221 62.7829C31.8382 61.7324 61.0999 52.5833 61.0999 52.5833L61.6643 55.3055L39.2644 65.0095L59.5529 71.2086L56.9435 77.7198L56.942 77.7183Z" fill="#F8E6DA"/>
<path d="M59.9272 71.2085C59.9272 71.2085 61.9455 69.7497 66.3974 67.3722L59.8533 59.9126L54.0361 64.4694L59.9272 71.21V71.2085Z" fill="black"/>
<path d="M89.691 47.9924C88.3952 47.479 61.6631 52.3021 61.6631 52.3021L62.4093 54.98L83.302 53.8053L75.5788 63.7268C73.2191 65.8173 71.2067 67.3811 69.3656 69.7498L66.7119 77.1783L76.2703 73.3849C76.2703 73.3849 90.9632 54.767 91.3843 53.9222C91.8054 53.0774 90.9883 48.5087 89.6925 47.9953L89.691 47.9924Z" fill="#F8E6DA"/>
<path d="M76.2689 73.382C75.9276 75.5509 75.2804 77.7183 75.2804 77.7183L68.29 75.5494L68.3654 74.1424L76.2689 73.382V73.382Z" fill="#F8E6DA"/>
<path d="M87.2115 177.09C87.2115 177.09 88.2754 183.379 89.9465 187.285L85.2715 188.534C85.2715 188.534 81.9809 177.8 81.5879 177.09H87.2115V177.09Z" fill="white"/>
<path d="M40.8119 194.438H59.6568C59.6568 189.72 58.491 182.264 58.491 177.09L52.7152 176.988C52.7152 176.988 53.4998 186.448 52.4359 187.818C51.3721 189.188 43.5454 190.786 41.1133 192.991C39.2413 194.69 40.809 194.437 40.809 194.437L40.8119 194.438Z" fill="white"/>
<path d="M39.2914 194.452H60.9481C60.7205 187.819 61.5317 186.353 60.1118 186.221C58.6918 186.09 56.6158 188.656 55.0969 188.352C53.5765 188.047 52.5126 185.678 51.1459 186.217C49.7777 186.754 41.1782 189.95 40.1971 190.787C39.216 191.624 39.2914 194.453 39.2914 194.453V194.452Z" fill="#FAC734"/>
<path d="M62.0587 177.09H45.1893C45.1893 177.09 46.2694 147.272 41.9874 129.69C38.1236 113.822 41.5427 101.952 47.4692 95.2192L63.7313 96.1321C63.7313 96.1321 76.3453 130.22 79.3846 140.111C82.424 150.003 92.6074 177.09 92.6074 177.09H74.5219C74.5219 177.09 67.6823 148.633 65.8708 141.632C64.0105 134.444 54.6886 118.103 54.6886 118.103C54.6886 118.103 56.2784 135.714 58.5642 142.85C61.1485 150.915 62.0602 177.09 62.0602 177.09H62.0587Z" fill="#BED2FA"/>
<path d="M59.0194 69.7542C59.0194 69.7542 65.1853 72.5623 69.3639 69.7468C69.3639 69.7468 68.1375 74.5981 75.28 77.7183C75.28 77.7183 72.3677 86.4163 68.795 90.1446L50.6963 89.0305C53.6603 81.9408 52.9924 76.3735 52.9924 76.3735C52.9924 76.3735 56.5593 74.9029 58.0043 73.0002C59.4479 71.0976 59.0179 69.7542 59.0179 69.7542H59.0194Z" fill="#BED2FA"/>
<path d="M50.6997 89.032C49.4157 92.2514 47.4697 95.2192 47.4697 95.2192L63.7318 96.1321L68.7984 90.1446L50.6997 89.0305V89.032Z" fill="#F8E6DA"/>
<path d="M84.325 194.996H97.8506C97.8506 194.996 99.1169 191.141 95.5205 189.67C91.9241 188.199 91.9743 186.727 91.9743 186.727C91.9743 186.727 93.3928 184.089 89.0872 184.191C84.7815 184.293 85.7434 186.93 85.8454 187.082C85.9473 187.235 85.0342 186.169 84.325 186.93C83.6157 187.69 84.325 194.995 84.325 194.995V194.996Z" fill="#FAC734"/>
<path d="M64.5329 65.804C65.2465 67.1459 66.6207 70.4777 67.4171 70.5221C67.4171 70.5221 66.3148 74.9028 63.8074 74.675C61.3 74.4472 60.375 70.1847 60.375 70.1847C63.4084 70.3371 60.5863 66.7612 60.5863 66.7612L64.5314 65.8025L64.5329 65.804Z" fill="#F8E6DA"/>
<path d="M61.6855 68.7289C61.8895 69.4051 61.6855 69.7202 61.6855 69.7202C61.6855 69.7202 62.5558 70.1744 63.1749 69.9318C64.8579 69.2719 65.3854 68.0395 65.2701 67.032C65.1564 66.0244 64.8579 65.443 64.8579 65.443L61.6855 68.7289Z" fill="#DECDC3"/>
<path d="M55.416 61.472C53.8453 63.78 55.7573 66.5703 58.38 67.6726C61.0012 68.7763 63.2811 69.3459 64.3833 68.0912C65.4856 66.8352 64.6109 64.0212 62.331 61.8907C60.0511 59.7602 57.1255 58.9613 55.416 61.472Z" fill="#F8E6DA"/>
<path d="M57.0499 64.9888C59.4302 64.0256 61.0615 61.4632 61.0615 61.4632C61.0615 61.4632 64.9652 63.0107 65.2947 69.377C65.2947 69.377 67.8908 65.5451 67.2199 64.4236C66.0202 62.4189 60.596 56.0615 55.9358 59.4096C51.2755 62.7577 54.0135 70.8491 56.747 72.6156C57.236 72.9322 62.3706 71.7368 62.3706 71.7368C62.3706 71.7368 59.8543 70.2144 58.6382 68.4789C57.7635 67.2287 57.0513 64.9903 57.0513 64.9903L57.0499 64.9888Z" fill="#272727"/>
<path d="M62.8335 54.9459C60.2684 55.3276 55.5579 52.6571 55.4456 51.7487C55.3333 50.8403 57.4876 47.0336 58.3387 46.5794C59.1898 46.1252 61.7194 50.9483 61.7194 50.9483" fill="#F8E6DA"/>
<path d="M61.7191 55.304C63.105 54.8039 64.6372 50.0311 64.1836 49.1789C63.73 48.3267 60.9492 46.3382 60.0982 47.0203C59.2471 47.7023 58.4521 50.2012 58.4521 50.2012L61.7191 55.304Z" fill="#F8E6DA"/>
<path d="M75.5541 76.7299C75.7757 73.0771 75.2822 71.4792 75.2822 71.4792L87.0776 59.5974L76.2692 73.3804L75.5541 76.7284V76.7299Z" fill="#DECDC3"/>
<path d="M161.096 54.1307C158.874 53.3347 157.103 52.2 157.103 52.2L159.953 57.532C159.953 57.532 159.611 54.7965 159.908 54.3319C160.168 53.925 161.096 54.1307 161.096 54.1307Z" fill="#998570"/>
<path d="M57.8026 53.6204C58.1765 53.9917 61.6369 55.2611 62.1925 54.9815C62.1925 54.9815 61.5586 55.4638 60.6529 55.742C59.7471 56.0216 57.417 53.7417 57.417 53.7417L57.8026 53.6204V53.6204Z" fill="#DECDC3"/>
<path d="M58.124 51.2147C59.872 52.052 62.4178 52.3302 62.4178 52.3302L63.2541 50.7649C63.2541 50.7649 63.1729 52.2252 62.8345 52.5817C62.4947 52.9383 59.3282 52.0639 58.9869 51.873C58.6456 51.6822 58.1255 51.2132 58.1255 51.2132L58.124 51.2147Z" fill="#DECDC3"/>
<path d="M136.045 96.3557C134.602 90.1921 134.602 68.1269 136.729 64.3232C136.729 64.3232 130.954 62.3451 126.775 62.3451C122.596 62.3451 113.552 65.0082 113.552 65.0082L113.096 96.0524L136.044 96.3571L136.045 96.3557Z" fill="#BED2FA"/>
<path d="M112.929 89.2038L113.076 93.8405L126.528 92.3211L135.611 93.5372L135.122 86.5732L112.929 89.2038Z" fill="#9EAFCC"/>
<path d="M113.753 64.9696C108.396 66.5675 96.8219 82.3433 94.9986 87.0599C93.3053 91.4377 94.5494 100.716 100.127 96.6086C108.979 90.0914 131.307 90.9909 131.307 86.3113C131.307 81.6317 130.967 75.6974 125.569 76.1531C115.362 77.0156 106.105 83.6734 106.105 83.6734C106.105 83.6734 111.153 79.9066 115.362 77.0156C118.179 75.0805 113.753 64.9681 113.753 64.9681V64.9696Z" fill="#BED2FA"/>
<path d="M113.598 76.9653C113.635 73.1793 113.483 72.3035 113.483 72.3035C113.483 72.3035 105.998 82.0814 104.516 84.8584C104.516 84.8584 112.19 79.1905 113.863 79.0381L113.597 76.9653H113.598Z" fill="#9EAFCC"/>
<path d="M113.096 96.0509C112.336 101.072 110.55 175.183 115.49 180.357H131.904C130.84 170.313 128.599 139.421 127.687 126.943C127.687 126.943 129.546 136.753 130.762 143.72C131.978 150.687 137.356 170.009 143.492 179.124H159.754C156.683 160.27 150.579 150.835 145.317 138.205C137.697 119.914 139.238 103.296 136.047 96.3557L113.099 96.0509H113.096Z" fill="#F24A24"/>
<path d="M146.629 177.927C149.537 181.145 150.386 183.69 150.887 187.895C151.128 189.917 149.751 194.996 149.751 194.996H162.785C162.785 194.996 157.485 188.605 156.836 186.222C156.187 183.838 152.956 177.927 152.956 177.927H146.629Z" fill="#4C381A"/>
<path d="M130.105 180.357H123.088C124.228 186.596 124.532 189.564 122.709 190.476C120.885 191.389 112.084 191.466 110.55 194.89H130.838C130.838 194.89 130.572 191.466 129.395 189.259C128.64 187.843 130.104 180.357 130.104 180.357H130.105Z" fill="#4C381A"/>
<path d="M122.801 62.8155C121.576 64.6175 117.43 69.599 121.852 69.414C126.274 69.2291 128.659 62.3051 128.659 62.3051C128.659 62.3051 127.471 60.5119 127.38 58.6211C127.288 56.7303 128.854 55.3929 129.821 54.2389C130.787 53.0849 131.433 48.9808 129.544 47.735C127.656 46.4893 120.886 45.6134 119.894 48.6582C118.903 51.703 119.088 58.3445 119.547 58.5753C121.168 59.3875 122.449 58.0219 123.047 58.8519C123.646 59.6819 122.798 62.8155 122.798 62.8155H122.801Z" fill="#4C381A"/>
<path d="M127.892 47.4125C129.237 47.4125 130.327 46.3209 130.327 44.9743C130.327 43.6278 129.237 42.5361 127.892 42.5361C126.547 42.5361 125.457 43.6278 125.457 44.9743C125.457 46.3209 126.547 47.4125 127.892 47.4125Z" fill="#272727"/>
<path d="M132.762 55.5053C134.107 55.5053 135.197 54.4137 135.197 53.0671C135.197 51.7205 134.107 50.6289 132.762 50.6289C131.417 50.6289 130.327 51.7205 130.327 53.0671C130.327 54.4137 131.417 55.5053 132.762 55.5053Z" fill="#272727"/>
<path d="M132.382 50.3923C133.727 50.3923 134.817 49.3007 134.817 47.9541C134.817 46.6075 133.727 45.5159 132.382 45.5159C131.037 45.5159 129.947 46.6075 129.947 47.9541C129.947 49.3007 131.037 50.3923 132.382 50.3923Z" fill="#272727"/>
<path d="M119.791 49.0104C119.699 49.7309 123.844 48.9275 124.426 49.4601C125.008 49.9928 124.096 51.7681 124.248 52.3259C124.401 52.8837 125.717 50.9086 126.756 50.6541C127.795 50.3996 128.352 52.1735 127.288 53.1633C126.224 54.1531 126.806 56.0143 128.402 55.8826C128.402 55.8826 131.691 52.7283 130.757 49.688C130.026 47.3045 128.759 47.0648 125.668 46.6521C122.576 46.2393 120.043 47.0131 119.789 49.0104H119.791Z" fill="#272727"/>
<path d="M127.687 126.943C124.021 117.66 123.489 114.432 123.489 114.432C123.489 114.432 123.686 134.438 128.678 140.467L127.687 126.941V126.943Z" fill="#E33E23"/>
<path d="M126.574 89.2851L117.381 86.3809L123.185 90.4214L126.574 89.2851Z" fill="#9EAFCC"/>
<path d="M107.263 82.8168C108.325 78.7141 114.781 75.7048 118.594 76.0555L118.426 81.682L115.506 82.225C114.965 82.3256 114.414 82.1036 114.093 81.6568C113.353 80.6256 111.966 80.3016 110.847 80.8993L107.263 82.8153V82.8168Z" fill="#4C381A"/>
<path d="M136.729 64.3231C142.087 65.921 153.067 84.03 154.89 88.7481C156.583 93.1259 154.962 102.873 149.761 98.2967C139.683 89.4331 116.08 89.3177 116.08 84.6395C116.08 79.9614 115.965 74.1174 121.361 74.5745C131.568 75.4371 141.403 83.8406 141.403 83.8406C141.403 83.8406 136.701 79.4021 135.12 76.3706C133.538 73.3391 136.729 64.3231 136.729 64.3231V64.3231Z" fill="#BED2FA"/>
<path d="M134.385 74.573V70.9468L141.402 83.8391L139.296 82.2116L134.385 78.8088V74.573Z" fill="#9EAFCC"/>
<path d="M139.296 82.2117C139.555 82.1747 139.712 82.1496 139.712 82.1496C139.966 81.0917 135.381 75.591 133.593 74.6589C132.123 73.8925 130.574 74.8601 128.241 76.2419C128.241 76.2419 131.372 77.4181 134.007 78.8385C136.641 80.2588 139.298 82.2102 139.298 82.2102L139.296 82.2117Z" fill="#4C381A"/>
<path d="M104.487 61.2221C107.268 61.2221 122.9 77.9004 123.604 79.8415C124.307 81.7811 124.65 82.5756 124.65 82.5756L123.783 113.734C123.669 119.212 123.441 126.63 121.161 127.601C118.881 128.572 119.679 126.136 119.679 126.136C119.679 126.136 120.021 119.212 117.97 118.527C116.907 118.172 118.843 114.038 119.984 112.211C121.123 110.386 116.735 83.9441 116.213 82.5756C115.691 81.2056 105.66 71.6185 105.66 71.6185L102.653 61.0801L104.488 61.2221H104.487Z" fill="#ECD0A8"/>
<path d="M117.271 88.1474C117.379 87.5704 117.444 86.9786 117.469 86.3794C115.928 86.6457 114.078 86.804 112.062 86.804C109.13 86.804 105.847 86.4697 102.646 85.65C102.646 88.9064 104.36 91.7603 106.934 93.3582C108.158 93.2028 109.387 92.3151 110.792 91.2973C112.604 89.9864 114.637 88.5143 117.273 88.1459L117.271 88.1474Z" fill="#F24A24"/>
<path d="M117.476 86.085C117.487 85.4947 117.457 84.9029 117.386 84.3156C117.034 84.3452 116.701 84.3585 116.384 84.3585C113.058 84.3585 111.591 82.8257 110.046 81.2116C109.033 80.1552 107.989 79.0663 106.353 78.334C104.181 79.9274 102.745 82.4647 102.65 85.3453C108.072 86.7478 113.729 86.7434 117.475 86.085H117.476Z" fill="#F24A24"/>
<path d="M110.261 81.0088C111.9 82.7206 113.45 84.3377 117.349 84.0226C117.139 82.5475 116.674 81.1272 115.956 79.9273C114.811 78.0143 113.148 76.8603 111.198 76.6029C109.514 76.6946 107.95 77.2465 106.634 78.1371C108.23 78.8902 109.261 79.9643 110.26 81.0088H110.261Z" fill="#F24A24"/>
<path d="M116.185 91.2248C116.655 90.3948 116.994 89.4538 117.207 88.4581C114.691 88.8413 112.72 90.2646 110.963 91.537C109.657 92.4823 108.498 93.3212 107.325 93.589C108.448 94.2104 109.716 94.598 111.065 94.6912C113.821 94.3865 115.362 92.6791 116.185 91.2248V91.2248Z" fill="#F24A24"/>
<path d="M117.706 84.2875C117.697 84.2875 117.688 84.2889 117.678 84.2904C117.746 84.8674 117.777 85.4518 117.769 86.0333C119.016 85.7966 120.033 85.4844 120.732 85.1278C120.671 84.0744 120.433 83.0684 120.043 82.1422C119.99 82.5224 119.866 82.9323 119.61 83.2947C119.21 83.8629 118.569 84.1972 117.704 84.2875H117.706Z" fill="#F24A24"/>
<path d="M116.21 79.7749C116.948 81.0103 117.427 82.475 117.641 83.9959C117.653 83.9959 117.664 83.9944 117.675 83.993C118.45 83.9116 119.02 83.6201 119.37 83.1245C119.716 82.6363 119.788 82.0326 119.782 81.5755C118.414 78.8621 115.726 76.9299 112.562 76.6295C114.03 77.1577 115.285 78.2259 116.211 79.7749H116.21Z" fill="#F24A24"/>
<path d="M119.829 88.8679C119.592 88.4862 118.96 88.3146 118.002 88.3708C117.838 88.3811 117.677 88.3959 117.518 88.4152C117.301 89.4804 116.943 90.4879 116.444 91.3712C115.742 92.6095 114.542 94.0254 112.558 94.6749C115.85 94.3642 118.627 92.287 119.94 89.4005C119.954 89.22 119.931 89.0321 119.83 88.8679H119.829Z" fill="#F24A24"/>
<path d="M117.575 88.1104C117.71 88.0956 117.846 88.0838 117.984 88.0764C119.073 88.0113 119.78 88.2258 120.081 88.7141C120.114 88.7659 120.137 88.8191 120.159 88.8739C120.539 87.8722 120.749 86.7878 120.749 85.653C120.749 85.585 120.746 85.5184 120.745 85.4503C120.019 85.795 119 86.0969 117.764 86.3277C117.744 86.9298 117.68 87.5275 117.577 88.1104H117.575Z" fill="#F24A24"/>
<path d="M117.271 88.1474C117.371 88.1341 117.473 88.1208 117.575 88.1104C117.678 87.5275 117.742 86.9298 117.763 86.3276C117.665 86.3454 117.567 86.3631 117.468 86.3809C117.445 86.9786 117.378 87.5719 117.271 88.1489V88.1474Z" fill="black"/>
<path d="M117.679 84.2889C117.58 84.2993 117.484 84.3082 117.388 84.3156C117.457 84.9014 117.488 85.4947 117.478 86.085C117.577 86.0673 117.676 86.0495 117.772 86.0318C117.779 85.4503 117.748 84.8674 117.68 84.2889H117.679Z" fill="black"/>
<path d="M115.956 79.9273C116.674 81.1272 117.138 82.5475 117.349 84.0226C117.445 84.0152 117.542 84.0063 117.641 83.996C117.427 82.475 116.948 81.0118 116.21 79.775C115.283 78.2274 114.029 77.1577 112.56 76.6296C112.276 76.6029 111.988 76.5881 111.697 76.5881C111.53 76.5881 111.363 76.5941 111.199 76.6029C113.15 76.8618 114.813 78.0144 115.957 79.9273H115.956Z" fill="black"/>
<path d="M116.442 91.3712C116.943 90.4879 117.299 89.4804 117.516 88.4152C117.412 88.427 117.31 88.4433 117.208 88.4596C116.993 89.4553 116.654 90.3962 116.185 91.2262C115.362 92.6805 113.823 94.3879 111.065 94.6926C111.274 94.7074 111.484 94.7163 111.696 94.7163C111.986 94.7163 112.273 94.7015 112.556 94.6749C114.539 94.0254 115.74 92.611 116.442 91.3712V91.3712Z" fill="black"/>
<path d="M102.645 85.65C102.645 85.5479 102.649 85.4473 102.652 85.3467Z" fill="black"/>
<path d="M117.469 86.3794C117.473 86.2817 117.475 86.1826 117.476 86.085C113.731 86.7433 108.073 86.7478 102.652 85.3452C102.649 85.4458 102.645 85.5479 102.645 85.6485C105.845 86.4696 109.13 86.8025 112.06 86.8025C114.076 86.8025 115.926 86.6442 117.467 86.3779L117.469 86.3794Z" fill="black"/>
<path d="M117.77 86.0318C117.77 86.1309 117.767 86.2286 117.763 86.3262C118.998 86.0954 120.017 85.7936 120.743 85.4489C120.74 85.3409 120.739 85.2329 120.731 85.1263C120.032 85.4829 119.016 85.7936 117.769 86.0318H117.77Z" fill="black"/>
<path d="M117.469 86.3794C117.568 86.3617 117.667 86.3439 117.763 86.3262C117.766 86.2285 117.769 86.1294 117.77 86.0317C117.674 86.0495 117.575 86.0672 117.476 86.085C117.475 86.1826 117.472 86.2818 117.469 86.3794Z" fill="black"/>
<path d="M106.356 78.3355C106.448 78.2674 106.541 78.2008 106.636 78.1372Z" fill="black"/>
<path d="M119.369 83.1246C119.019 83.6187 118.449 83.9117 117.675 83.993C117.663 83.993 117.652 83.9945 117.641 83.996C117.654 84.0936 117.666 84.1913 117.678 84.2904C117.686 84.2904 117.695 84.2889 117.706 84.2875C118.569 84.1972 119.21 83.8628 119.612 83.2947C119.867 82.9322 119.991 82.5224 120.045 82.1422C119.963 81.9499 119.875 81.762 119.782 81.577C119.788 82.0357 119.715 82.6378 119.369 83.1261V83.1246Z" fill="black"/>
<path d="M110.047 81.2131C111.591 82.8257 113.06 84.36 116.386 84.36C116.702 84.36 117.036 84.3452 117.388 84.317C117.376 84.2194 117.364 84.1203 117.35 84.0226C113.45 84.3378 111.9 82.7207 110.262 81.0089C109.261 79.9644 108.231 78.8903 106.636 78.1372C106.541 78.2008 106.45 78.2689 106.356 78.3355C107.992 79.0693 109.037 80.1567 110.049 81.2131H110.047Z" fill="black"/>
<path d="M117.642 83.996C117.543 84.0063 117.446 84.0152 117.35 84.0226C117.363 84.1202 117.376 84.2179 117.388 84.317C117.484 84.3096 117.582 84.3007 117.679 84.2904C117.667 84.1927 117.655 84.0936 117.642 83.996Z" fill="black"/>
<path d="M117.984 88.0764C117.847 88.0852 117.71 88.0971 117.575 88.1104C117.557 88.2125 117.538 88.3145 117.518 88.4152C117.677 88.3974 117.838 88.3811 118.002 88.3708C118.961 88.3145 119.592 88.4862 119.828 88.8679C119.93 89.0321 119.953 89.22 119.938 89.4005C120.016 89.2274 120.09 89.0513 120.158 88.8738C120.136 88.8191 120.112 88.7658 120.08 88.714C119.778 88.2273 119.072 88.0127 117.983 88.0764H117.984Z" fill="black"/>
<path d="M117.209 88.4596C117.231 88.3561 117.251 88.2525 117.272 88.1489C114.636 88.5173 112.602 89.9879 110.792 91.3002C109.388 92.3167 108.157 93.2058 106.934 93.3612C107.062 93.4411 107.194 93.5195 107.328 93.592C108.501 93.3227 109.66 92.4853 110.966 91.5399C112.723 90.2676 114.695 88.8443 117.21 88.4611L117.209 88.4596Z" fill="black"/>
<path d="M117.209 88.4596C117.31 88.4434 117.412 88.4271 117.517 88.4152C117.538 88.3146 117.557 88.2126 117.575 88.1105C117.473 88.1208 117.371 88.1341 117.271 88.1475C117.251 88.2525 117.229 88.3561 117.207 88.4582L117.209 88.4596Z" fill="black"/>
<path d="M106.974 186.855C107.126 191.573 122.964 189.898 122.964 194.996H99.6611C99.6611 191.876 100.477 190.827 100.741 186.88" fill="#272727"/>
<path d="M87.0974 158.931C88.015 155.571 88.0475 151.036 88.0667 149.114C88.117 143.941 88.0165 141.1 89.7379 132.223C90.8209 126.641 92.625 115.762 92.625 115.762L95.5122 96.7269L83.4863 96.2698C83.4863 96.2698 79.0713 125.83 79.0979 129.483C79.1895 142.063 77.477 146.718 76.9702 152.715C76.8653 153.957 76.7973 156.251 76.6865 158.898" fill="#ECD0A8"/>
<path d="M81.3795 185.181C81.2554 189.757 82.5187 189.404 82.5187 194.996H71.4621C71.4621 194.996 70.6524 193.199 72.4875 191.116C73.9695 189.433 76.1371 186.979 76.6883 185.315" fill="#272727"/>
<path d="M76.6894 185.315C76.7736 185.059 76.8209 184.822 76.8209 184.61C76.8209 183.368 76.3023 168.16 76.6894 158.9L87.0989 158.931C85.0657 166.374 81.6171 176.452 81.3807 185.181" fill="white"/>
<path d="M107.184 158.9C107.358 147.864 107.576 137.453 107.658 134.963C107.855 129.002 105.17 104.299 104.258 97.0332H90.6367L89.6689 120.152C89.6689 120.152 96.9888 128.801 97.5976 134.127C98.2048 139.453 95.8496 145.92 96.7613 152.008C97.0184 153.723 97.4306 156.112 97.8975 158.901" fill="#ECD0A8"/>
<path d="M97.8955 158.9C99.3125 167.389 101.217 179.576 100.676 187.64C100.676 187.64 102.047 187.59 104.075 187.488C106.102 187.386 106.997 187.006 106.997 187.006C106.861 182.789 106.996 170.786 107.183 158.898" fill="white"/>
<path d="M81.8361 96.2712H105.659C105.659 96.2712 107.732 119.618 108.28 129.205H93.6906L95.3617 122.889L94.8298 129.255H79.0996C79.0996 129.255 79.5045 113.809 80.1634 108.128C80.8668 102.06 81.8346 96.2712 81.8346 96.2712H81.8361Z" fill="#F24A24"/>
<path d="M96.0059 129.227L96.0679 106.017L99.3141 129.147L96.0059 129.227Z" fill="#E33E23"/>
<path d="M81.7183 62.0032C87.3921 61.1422 89.143 60.2175 90.1567 57.7319L96.8751 58.6463C96.8751 58.6463 98.3261 60.0429 102.652 61.08C102.652 61.08 106.267 65.912 106.342 70.2484C106.417 74.5848 105.658 96.2712 105.658 96.2712H81.835C81.835 96.2712 82.9713 90.7542 82.0626 80.6345C81.8985 78.8014 81.7168 62.0032 81.7168 62.0032H81.7183Z" fill="#272727"/>
<path d="M74.6845 139.975C72.8966 136.423 72.9365 131.857 72.5435 124.235C72.1504 116.613 72.1342 106.483 72.935 99.6548C73.7359 92.827 74.6032 83.4943 74.8751 79.2393C75.147 74.9843 74.8574 69.0397 75.2134 67.2229C75.7646 64.4044 80.2416 61.4277 82.5038 62.1009C84.7659 62.774 85.3156 70.2484 84.296 74.0256C83.2765 77.8027 82.3545 78.1001 81.9851 80.5072C81.0543 86.5702 79.8175 97.9031 79.7245 101.167C79.6048 105.426 76.2714 121.449 76.1945 124.188C76.1177 126.926 77.6825 127.295 77.6766 129.177C77.6573 134.352 75.7498 127.866 75.6612 135.945C75.5976 141.81 74.686 139.977 74.686 139.977L74.6845 139.975Z" fill="#ECD0A8"/>
<path d="M98.2508 42.8453C94.613 41.6987 90.7536 41.9827 89.4356 44.1635C88.8047 45.2066 89.2332 48.5265 89.9424 50.0978C90.6517 51.6705 90.9561 55.2967 90.1582 57.7319C90.0311 60.8004 94.681 66.9891 95.668 66.9891C97.9449 66.9891 97.3392 60.0917 97.3392 60.0917C97.3392 60.0917 95.6739 55.3145 96.5546 55.3736C96.6137 55.3781 97.6554 55.6148 97.7278 55.634C98.6793 55.9122 99.8215 55.9995 99.9234 54.8662C100.173 52.0818 100.987 43.7064 98.2523 42.8438L98.2508 42.8453Z" fill="#ECD0A8"/>
<path d="M90.387 51.6127C91.2588 52.2282 94.1282 52.7875 91.5898 49.4719C89.7901 47.1225 93.388 46.5973 93.4884 48.525C93.5904 50.4528 96.021 49.2352 94.6794 46.1416C94.1105 44.8293 98.4634 46.5943 99.9956 45.9626C99.9956 45.9626 99.9439 43.3646 98.2491 42.8438C97.1882 42.5183 95.5467 42.0537 93.914 42.002C92.1941 41.9472 90.486 42.3511 89.4842 43.8587C87.5309 46.7955 90.3855 51.6127 90.3855 51.6127H90.387Z" fill="#F24A24"/>
<path d="M99.9952 45.9641C100.546 45.6593 101.78 43.1264 100.373 42.184C98.9683 41.2415 97.0682 40.7666 96.4225 41.3939C95.7768 42.0212 93.915 42.005 93.915 42.005L96.1565 44.5896L99.5195 45.6933L99.9952 45.9656V45.9641Z" fill="#F24A24"/>
<path d="M126.916 162.977L116.293 162.763L122.145 187.634C122.094 189.373 116.371 192.761 116.219 194.984H127.351C127.351 194.984 127.135 190.845 126.916 187.254V162.977V162.977Z" fill="#F2CBD2"/>
<path d="M129.974 134.365C136.484 134.519 149.503 145.177 151.264 149.472L145.666 166.229L133.573 162.078L123.464 148.092L129.974 134.365V134.365Z" fill="white"/>
<path d="M101.293 150.144C104.855 147.249 124.844 134.442 129.975 134.365C135.107 134.288 129.975 142.877 129.975 142.877L112.59 151.388L101.293 150.142V150.144Z" fill="#D1B0B8"/>
<path d="M95.205 157.831C94.8534 160.546 95.5109 162.739 98.4985 161.896C101.485 161.052 129.319 144.973 131.736 144.565C132.255 144.478 131.677 146.877 133.314 147.407C134.915 147.923 139.545 146.784 139.545 146.784C139.545 146.784 137.678 139.64 135.974 139.646C132.209 139.66 102.021 149.32 98.9581 151.236C95.8951 153.152 95.3454 156.748 95.205 157.831V157.831Z" fill="#F2CBD2"/>
<path d="M139.755 138.502C140.235 142.341 140.235 145.945 142.15 146.712C144.065 147.478 144.261 141.828 144.261 141.828L139.755 138.502Z" fill="#F2CBD2"/>
<path d="M172.754 181.949C170.245 178.401 139.8 163.167 139.8 163.167C139.8 163.167 122.366 136.437 119.405 136.539C116.444 136.641 113.793 138.724 112.874 140.974C111.955 143.223 109.303 168.849 109.303 168.849L126.655 169.145L126.799 175.156L126.917 180.139L139.912 186.094L146.034 186.387L146.409 194.955C146.409 194.955 171.417 193.737 173.007 189.92C173.007 189.92 174.932 185.03 172.754 181.95V181.949Z" fill="#A269C7"/>
<path d="M126.655 169.145L125.235 153.064L132.95 175.32L158.823 181.105L144.727 181.11L131.542 182.258L126.917 180.138L126.655 169.145Z" fill="#7A5299"/>
<path d="M151.266 149.472C151.266 149.472 157.259 164.295 157.872 166.852C158.485 169.408 156.914 172.351 156.914 172.351C156.914 172.351 151.486 169.771 151.266 169.872C150.407 170.259 150.652 175.291 150.652 175.291C150.652 175.291 144.816 177.745 144.262 176.517C143.708 175.291 142.585 170.894 142.585 170.894C142.585 170.894 145.055 167.367 146.042 166.658C147.053 165.93 151.982 165.809 151.982 165.809L147.971 159.335L151.266 149.474V149.472Z" fill="#F2CBD2"/>
<path d="M142.694 194.984H134.599C134.599 194.984 131.087 184.915 130.312 182.779C130.312 182.779 132.552 181.719 134.331 181.434C136.987 181.008 145.702 181.117 145.702 181.117L146.033 186.835C146.033 186.835 138.703 185.705 138.106 186.088C137.509 186.471 138.658 191.61 138.658 191.61C138.658 191.61 141.492 191.61 142.694 194.984Z" fill="#F2CBD2"/>
<path d="M139.755 138.502C140.256 138.457 139.846 137.528 139.846 137.528L144.814 141.547C144.055 141.956 144.217 142.519 144.217 142.519C144.217 142.519 143.447 142.572 141.877 142.032C140.603 141.594 139.755 138.502 139.755 138.502V138.502Z" fill="#D1B0B8"/>
<path d="M142.663 127.225C137.403 127.984 138.608 133.053 139.373 136.043C140.138 139.033 141.922 141.872 144.679 141.564C147.436 141.257 148.201 137.883 148.201 136.043C148.201 134.202 149.385 126.256 142.663 127.225Z" fill="#F2CBD2"/>
<path d="M151.982 165.807C154.313 165.772 154.997 165.861 154.997 165.861L149.706 162.135L151.982 165.807V165.807Z" fill="#D1B0B8"/>
<path d="M139.097 134.921C139.059 133.612 139.277 132.016 139.755 131.634C140.3 131.199 141.585 131.995 143.483 131.696C146.37 131.239 146.401 129.964 147.271 130.746C148.141 131.529 148.28 133.637 148.28 133.637C148.28 133.637 149.356 126.496 142.663 127.225C136.887 127.855 139.097 134.921 139.097 134.921Z" fill="#D0B080"/>
</svg>
