<svg width="100%" height="100%" viewBox="0 0 300 225" fill="none" preserveAspectRatio="xMidYMid meet" xmlns="http://www.w3.org/2000/svg">
<g clip-path="url(#clip0_1077_10962)">
<g clip-path="url(#clip1_1077_10962)">
<path d="M300 -38H0V262H300V-38Z" fill="url(#paint0_linear_1077_10962)"/>
<path d="M232.535 180.086C222.018 180.086 211.323 178.877 200.183 176.444C169.16 169.667 140.086 154.428 111.968 139.69C69.7734 117.573 29.9194 96.6839 -11.8047 106.314L-11.9414 105.723C-1.8408 103.391 8.36766 102.751 19.2643 103.763C29.0033 104.667 39.1009 106.887 50.1358 110.546C70.6697 117.357 90.8678 127.943 112.252 139.152C169.238 169.02 228.161 199.906 300.075 161.977L300.359 162.514C291.586 167.14 282.667 170.896 273.847 173.674C265.458 176.318 256.889 178.164 248.377 179.161C243.12 179.776 237.851 180.085 232.536 180.085L232.535 180.086Z" fill="#97A1FF"/>
<path d="M234.68 194C231.899 194 229.108 193.93 226.314 193.789C209.782 192.961 193.049 189.661 176.582 183.979C82.287 151.45 53.6046 146.867 -11.7478 176.608L-12 176.056C5.17665 168.24 19.1449 163.164 31.9572 160.085C45.5016 156.829 58.1801 155.67 71.8552 156.435C84.9698 157.17 99.3178 159.714 117.009 164.441C132.105 168.474 149.421 173.97 176.779 183.408C213.935 196.226 245.369 194.339 265.196 190.499C286.683 186.338 299.546 179.05 299.674 178.976L299.978 179.502C299.85 179.576 286.918 186.905 265.341 191.088C255.349 193.026 245.069 194 234.68 194Z" fill="#97A1FF"/>
<path d="M252.192 160.712C215.328 160.712 179.533 146.309 141.708 131.091C94.7631 112.205 46.2197 92.6749 -11.8546 96.3097L-11.8926 95.7051C14.1542 94.0748 40.7858 97.043 69.5229 104.778C94.918 111.614 118.821 121.231 141.936 130.531C181.107 146.29 218.106 161.176 256.301 160.046C274.698 159.502 285.479 154.426 291.284 150.262C297.564 145.759 299.529 141.328 299.548 141.284L300.105 141.523C300.025 141.709 298.076 146.125 291.68 150.725C287.937 153.417 283.44 155.605 278.315 157.231C271.919 159.258 264.518 160.409 256.32 160.652C254.945 160.693 253.565 160.712 252.192 160.712Z" fill="#97A1FF"/>
<path d="M68.124 32.2009H134.186C133.56 23.0055 117.28 27.9934 117.28 27.9934C116.967 16.6162 77.1263 12.1556 76.4214 29.8631C76.4214 29.8631 68.124 25.0358 68.124 32.2009V32.2009Z" fill="#97A1FF"/>
<path d="M115.151 31.4782H58.6349C58.4663 31.4782 58.3311 31.3418 58.3311 31.1752C58.3311 29.5479 58.8172 28.4449 59.7773 27.8964C61.5501 26.8843 64.3847 28.1358 65.4588 28.6843C66.0998 21.2813 74.5765 18.6737 82.4106 18.7252C91.0179 18.7767 100.379 22.0131 100.964 27.1812C102.682 26.7025 109.818 24.9267 113.411 27.3873C114.654 28.2373 115.34 29.507 115.453 31.157C115.459 31.2403 115.429 31.3236 115.371 31.3843C115.313 31.4464 115.233 31.4797 115.149 31.4797L115.151 31.4782ZM58.9448 30.8721H114.815C114.654 29.5737 114.066 28.5691 113.066 27.8843C109.291 25.2994 100.86 27.8388 100.775 27.8646C100.684 27.8918 100.585 27.8767 100.508 27.8206C100.43 27.7646 100.383 27.6767 100.382 27.5828C100.248 22.7101 90.9784 19.3813 82.406 19.3298C82.3377 19.3298 82.2678 19.3298 82.1994 19.3298C74.5355 19.3298 66.3262 21.9131 66.036 29.1873C66.0315 29.2934 65.9722 29.3903 65.878 29.4403C65.7838 29.4918 65.6699 29.4903 65.5788 29.4358C65.5423 29.4146 61.9481 27.3525 60.078 28.4206C59.3777 28.8206 58.9964 29.6449 58.9448 30.8706V30.8721Z" fill="#97A1FF"/>
<path d="M10.9463 69.9946H63.3102C63.3102 69.9946 62.8287 66.1431 60.1414 66.1431C57.4541 66.1431 56.2144 68.0689 56.2144 68.0689C56.2144 68.0689 53.3889 57.7795 39.8156 57.7795C26.2423 57.7795 24.3814 67.9037 24.3814 67.9037C24.3814 67.9037 23.3484 63.8871 18.5191 63.8871C12.1115 63.8871 10.9463 69.9946 10.9463 69.9946" fill="#97A1FF"/>
<path d="M175.511 50.5782H278.713C277.735 40.0009 262.817 45.7388 262.817 45.7388C262.817 28.2495 215.189 30.0237 215.189 46.157C215.189 34.3858 188.473 41.4373 188.473 47.8903C188.473 42.8388 175.512 43.86 175.512 50.5797L175.511 50.5782Z" fill="#99A3FF"/>
<path d="M162.943 207.73L162.502 197.592H151.731L148.081 207.73H162.943Z" fill="#FAC734"/>
<path d="M176.807 207.73L177.248 197.592H188.019L191.669 207.73H176.807Z" fill="#0B49AB"/>
<path d="M148.154 206.48C147.492 199.638 152.348 134.962 152.127 129.223H171.772C171.772 129.223 165.701 170.942 166.253 180.544C166.806 190.146 166.032 195.333 164.929 198.093C163.826 200.853 165.813 199.653 165.591 201.797C165.37 203.942 162.943 207.252 162.943 207.252C162.943 207.252 159.521 204.493 154.886 204.383C150.252 204.273 148.154 206.48 148.154 206.48Z" fill="#F24A24"/>
<path d="M191.607 206.958C192.269 200.116 187.413 135.44 187.634 129.701H167.989C167.989 129.701 174.06 171.419 173.507 181.021C172.955 190.624 173.729 195.811 174.832 198.57C175.935 201.33 173.948 200.13 174.169 202.275C174.391 204.419 176.818 207.73 176.818 207.73C176.818 207.73 180.24 204.97 184.874 204.86C189.509 204.75 191.607 206.958 191.607 206.958Z" fill="#F24A24"/>
<path d="M152.462 129.704C152.462 129.704 165.373 130.259 169.949 130.312C174.525 130.364 186.776 129.223 186.776 129.223L187.627 130.243L187.731 133.707C187.731 133.707 158.937 135.774 152.462 129.705V129.704Z" fill="#E33E23"/>
<path d="M188.493 205.307L188.073 205.178C189.838 199.439 186.706 164.886 184.834 144.241C184.198 137.234 183.697 131.7 183.612 129.712L184.052 129.693C184.137 131.671 184.638 137.201 185.272 144.201C187.146 164.879 190.283 199.487 188.493 205.309V205.307Z" fill="#0B49AB"/>
<path d="M189.902 205.307L189.482 205.178C191.247 199.44 188.115 164.888 186.243 144.244C185.607 137.236 185.106 131.7 185.021 129.712L185.461 129.693C185.546 131.671 186.047 137.202 186.681 144.204C188.555 164.88 191.692 199.487 189.902 205.309V205.307Z" fill="#0B49AB"/>
<path d="M149.485 204.808C147.61 195.551 149.687 175.651 151.521 158.095C152.723 146.583 153.859 135.709 153.743 129.228L154.182 129.22C154.297 135.73 153.16 146.617 151.957 158.142C150.128 175.667 148.054 195.531 149.915 204.721L149.485 204.809V204.808Z" fill="#0B49AB"/>
<path d="M150.964 204.808C149.089 195.551 151.166 175.653 153 158.095C154.203 146.583 155.338 135.709 155.222 129.226L155.662 129.219C155.776 135.729 154.639 146.615 153.437 158.141C151.607 175.666 149.533 195.529 151.395 204.72L150.964 204.808Z" fill="#0B49AB"/>
<path d="M180.927 154.328L183.833 170.243L204.379 158.46L203.51 143.015L180.927 154.328Z" fill="#0E5DF7"/>
<path d="M187.626 130.243C186.548 131.605 176.653 131.413 167.534 131.56C155.672 131.75 152.225 129.581 152.225 129.581C146.284 127.281 155.798 82.3174 154.033 75.7696C154.033 75.7696 162.973 72.8267 171.581 72.6787C180.19 72.5323 184.715 74.0762 184.715 74.0762C183.832 98.2315 191.08 125.875 187.626 130.241V130.243Z" fill="#F24A24"/>
<path d="M166.181 73.0991C165.759 71.0527 165.935 70.2866 165.935 70.2866C165.935 70.2866 170.092 70.0112 172.888 70.0844C175.685 70.1577 178.957 70.7099 178.957 70.7099C178.957 70.7099 179.162 71.7162 178.793 72.8588C178.425 74.0014 172.442 82.7993 172.442 82.7993L166.181 73.0976V73.0991Z" fill="#E33E23"/>
<path d="M154.034 75.7681C147.523 77.6079 140.9 87.3198 137.809 92.0659C134.719 96.812 136.595 116.126 135.823 118.443C135.051 120.761 141.893 121.092 144.542 120.32C147.19 119.548 144.701 103.514 145.173 98.2315C145.645 92.9492 156.792 89.0132 156.792 89.0132L154.033 75.7695L154.034 75.7681Z" fill="#F24A24"/>
<path d="M137.748 119.816V123.499L143.408 123.925L143.571 120.695L137.908 120.406" fill="#F24A24"/>
<path d="M137.748 123.499C137.144 128.971 137.748 133.654 137.748 133.654C137.748 133.654 141.096 135.661 143.103 135.661C145.11 135.661 144.137 131.709 144.805 131.252C145.475 130.796 145.11 127.877 144.257 126.478C143.406 125.079 143.406 123.923 143.406 123.923L137.746 123.497L137.748 123.499Z" fill="#5E3721"/>
<path d="M197.594 137.231V142.165L191.934 142.591L191.631 136.571L197.594 137.231Z" fill="#F24A24"/>
<path d="M197.594 142.165C198.29 149.151 197.594 152.321 197.594 152.321C197.594 152.321 194.246 154.328 192.239 154.328C190.232 154.328 191.817 148.874 191.093 149.236C190.877 149.344 189.882 149.842 189.882 149.842C189.45 148.635 190.499 146.107 191.085 145.145C191.936 143.746 191.936 142.59 191.936 142.59L197.596 142.164L197.594 142.165Z" fill="#5E3721"/>
<path d="M184.715 74.0762C191.668 75.7681 194.207 82.3203 194.207 82.3203C194.207 82.3203 196.538 112.257 197.863 120.913C199.188 129.57 202.596 136.569 199.505 137.352C196.65 138.075 190.787 139.66 189.572 136.569C188.358 133.477 189.253 132.564 188.811 127.824C188.368 123.084 183.833 85.7744 183.833 85.7744L184.716 74.0762H184.715Z" fill="#F24A24"/>
<path d="M169.343 69.4502C169.356 70.3789 169.1 73.7261 169.1 73.7261L172.264 76.1167L175.335 74.0747L175.226 68.6665L169.344 69.4487L169.343 69.4502Z" fill="#422618"/>
<path d="M172.376 71.2065C175.369 71.2065 176.859 68.1157 177.349 64.8301C177.84 61.543 178.704 55.5591 172.597 55.5591C166.491 55.5591 166.923 60.1851 167.569 64.3877C168.115 67.9443 169.58 71.2065 172.376 71.2065Z" fill="#5E3721"/>
<path d="M165.934 70.2866C167.645 71.1875 171.158 71.7207 171.158 71.7207L172.318 75.5469L173.45 71.8101C173.45 71.8101 176.603 71.8496 178.955 70.7085C178.955 70.7085 178.883 73.5898 178.791 74.479C178.502 77.2666 172.684 82.9033 172.684 82.9033L167.755 80.769C167.755 80.769 165.927 73.9883 165.927 73.1211C165.927 72.4004 165.934 70.2852 165.934 70.2852V70.2866Z" fill="#F24A24"/>
<path d="M172.318 75.708C172.672 89.0645 170.214 121.083 170.037 123.812C169.841 126.833 170.034 131.125 170.034 131.125" stroke="#E33E23" stroke-width="3" stroke-miterlimit="10"/>
<path d="M188.565 125.504L184.251 89.2227C184.251 89.2227 184.238 121.771 188.358 128.275L188.565 125.504Z" fill="#E33E23"/>
<path d="M196.91 137.986L196.515 138.075C196.515 138.075 196.934 137.792 197.24 137.256C197.758 136.344 198.352 133.839 196.494 127.314C194.487 120.267 193.849 109.76 193.283 100.49C192.756 91.8242 192.3 84.3389 190.878 81.752C188.021 76.5547 182.61 75.1528 177.19 74.4131L177.52 74.2168C183.016 74.9683 188.215 76.3013 191.134 81.6113C192.589 84.2568 193.046 91.7715 193.576 100.473C194.14 109.728 194.779 120.217 196.775 127.235C198.58 133.577 198.122 136.265 197.474 137.435C197.234 137.87 196.926 137.984 196.909 137.987L196.91 137.986Z" fill="#0B49AB"/>
<path d="M198.289 137.659L197.889 137.756C197.909 137.746 200.276 136.392 197.499 126.641C195.492 119.593 194.854 109.086 194.288 99.8164C193.761 91.1504 193.305 83.665 191.883 81.0781C189.026 75.8809 183.615 74.479 178.195 73.7393L178.458 73.5063C183.954 74.2578 189.22 75.6274 192.139 80.9375C193.594 83.583 194.051 91.0977 194.581 99.7988C195.145 109.054 195.784 119.543 197.78 126.562C200.653 136.65 198.394 137.617 198.287 137.662L198.289 137.659Z" fill="#0B49AB"/>
<path d="M167.188 61.5679C169.283 60.7036 175.667 61.2031 177.676 61.9385C177.676 61.9385 178.737 55.4243 172.595 55.4243C165.924 55.4243 167.19 61.5679 167.19 61.5679H167.188Z" fill="#0E5DF7"/>
<path d="M167.239 61.8082C166.099 61.587 164.878 62.2989 165.235 61.3848C165.861 59.7852 167.312 58.9019 170.809 58.8287C174.306 58.7554 174.818 59.712 175.996 60.5572C176.608 60.9966 177.859 61.9825 177.675 61.9385C176.731 61.7159 175.334 61.2193 171.764 61.1255C168.18 61.0318 167.239 61.8082 167.239 61.8082Z" fill="#0B49AB"/>
<path d="M155.449 207.73H142.519C142.886 203.721 145.24 200.482 153.555 200.776C161.869 201.071 163.234 207.73 163.234 207.73H155.449Z" fill="white"/>
<path d="M184.301 207.73H197.231C196.863 203.721 194.509 200.482 186.195 200.776C177.88 201.071 176.807 207.73 176.807 207.73H184.301Z" fill="white"/>
<path d="M138.716 120.934L138.426 120.896C139.157 115.401 138.892 109.505 138.679 104.768C138.437 99.3784 138.247 95.123 139.567 93.7432C140.165 93.1177 141.153 91.8755 142.404 90.3022C146.269 85.4419 152.109 78.0986 155.642 77.2578C160.223 76.1665 166.507 74.4468 166.625 74.4233L166.971 74.5903C167.011 74.6431 160.294 76.4507 155.711 77.542C152.276 78.3594 146.241 85.9502 142.634 90.4839C141.379 92.063 140.387 93.3096 139.779 93.9453C138.546 95.2358 138.733 99.4355 138.972 104.754C139.185 109.503 139.45 115.413 138.716 120.934Z" fill="#0B49AB"/>
<path d="M137.625 120.26L137.335 120.222C138.066 114.727 137.801 108.831 137.588 104.094C137.347 98.7046 137.156 94.4492 138.476 93.0693C139.074 92.4438 140.062 91.2017 141.313 89.6284C145.178 84.7695 151.017 77.4248 154.551 76.584C159.132 75.4927 165.769 73.7422 165.961 73.6836L166.16 73.9312C165.885 74.0586 159.202 75.7769 154.619 76.8682C151.184 77.6855 145.148 85.2749 141.542 89.8101C140.287 91.3892 139.295 92.6372 138.687 93.2715C137.454 94.562 137.641 98.7617 137.88 104.081C138.092 108.83 138.357 114.739 137.624 120.26H137.625Z" fill="#0B49AB"/>
<path d="M123.686 77.4497C120.801 77.4497 120.486 72.4502 120.486 72.4502C121.838 72.1704 121.915 69.7827 122.02 68.1758H125.338C125.443 69.7827 125.52 72.1704 126.872 72.4502C126.872 72.4502 126.608 77.4497 123.678 77.4497" fill="#ECD0A8"/>
<path d="M121.925 69.4912C122.536 69.9512 125.445 69.6187 125.445 69.6187C125.445 69.6187 125.525 70.3013 125.646 70.8491C125.646 70.8491 122.785 71.2373 121.852 70.102L121.923 69.4927L121.925 69.4912Z" fill="#998570"/>
<path d="M123.838 55.6777C119.712 55.6777 117.998 57.9321 118.887 63.4663C119.776 69.002 122.187 70.0991 123.838 70.0991C125.489 70.0991 127.9 69.0005 128.789 63.4663C129.678 57.9307 127.965 55.6777 123.838 55.6777Z" fill="#ECD0A8"/>
<path d="M105.118 151.959C103.541 148.35 103.831 143.838 103.861 136.281C103.889 128.724 104.428 118.708 105.595 112.002C106.761 105.296 108.132 96.1176 108.633 91.9267C109.136 87.7358 109.175 81.8413 109.626 80.0659C110.327 77.3105 114.922 74.6123 117.123 75.4018C119.325 76.1914 119.46 83.6108 118.244 87.289C117.028 90.9673 116.099 91.2104 115.601 93.5688C114.348 99.5117 112.502 110.646 112.232 113.869C111.881 118.073 107.703 133.73 107.476 136.433C107.25 139.136 108.778 139.587 108.668 141.447C108.367 146.562 106.833 140.047 106.303 148.027C105.917 153.822 105.116 151.96 105.116 151.96L105.118 151.959Z" fill="#ECD0A8"/>
<path d="M112.017 101.029H106.297C106.297 101.029 108.299 82.2836 108.857 79.7583C109.416 77.2329 112.981 75.2407 115.64 75.0078C118.298 74.7749 112.019 101.028 112.019 101.028L112.017 101.029Z" fill="#0E5DF7"/>
<path d="M110.95 199.531C110.799 204.203 95.0977 202.544 95.0977 207.592H118.2C118.2 204.503 117.391 203.464 117.129 199.556" fill="white"/>
<path d="M134.667 188.023C133.758 184.697 130.059 168.925 129.979 167.023C129.746 161.593 129.954 153.326 128.246 144.537C127.172 139.01 125.174 129.143 125.174 129.143L122.312 110.296L138.123 130.124C138.123 130.124 138.609 139.112 138.583 142.728C138.492 155.183 139.419 159.729 139.922 165.667C140.026 166.896 140.886 185.492 140.996 188.113" fill="#ECD0A8"/>
<path d="M136.323 197.873C136.446 202.404 135.193 202.054 135.193 207.591H146.155C146.155 207.591 146.958 205.811 145.138 203.749C143.669 202.083 141.52 199.653 140.974 198.005" fill="white"/>
<path d="M140.972 198.006C140.889 197.753 140.842 197.519 140.842 197.309C140.842 196.079 140.76 193.06 140.994 188.114L134.666 188.025C135.665 191.101 136.081 193.574 136.321 197.875" fill="white"/>
<path d="M110.716 188.113C110.543 177.187 110.353 150.619 110.271 148.152C110.076 142.25 112.738 117.792 113.641 110.598H127.146L125.056 122.488C125.056 122.488 120.849 142.049 120.246 147.323C119.644 152.596 121.979 158.999 121.076 165.027C120.821 166.725 118.111 185.261 117.648 188.023" fill="#ECD0A8"/>
<path d="M117.647 188.023C117.169 193.354 116.964 195.462 117.19 200.309C117.19 200.309 115.831 200.259 113.821 200.158C111.811 200.057 110.923 199.681 110.923 199.681C111.058 195.506 110.714 190.373 110.714 188.113" fill="white"/>
<path d="M135.958 76.0112C131.405 75.0064 129.138 74.1611 127.585 72.2715L120.973 72.6963C120.973 72.6963 119.537 74.0762 115.261 75.0986C115.261 75.0986 111.689 79.8696 111.614 84.1514C111.539 88.4331 112.253 109.843 112.253 109.843H135.841C135.841 109.843 134.717 104.397 135.615 94.4053C135.778 92.5962 135.957 76.0098 135.957 76.0098L135.958 76.0112Z" fill="#0E5DF7"/>
<path d="M142.96 153.116C144.733 149.599 144.693 145.079 145.083 137.532C145.472 129.985 145.489 119.955 144.695 113.195C143.901 106.435 143.041 97.1943 142.771 92.9814C142.502 88.7686 142.789 82.8828 142.436 81.084C141.889 78.2935 136.648 78.2158 134.407 78.8823C132.164 79.5488 132.422 84.0796 133.431 87.8193C134.441 91.5591 135.356 91.8535 135.722 94.2368C136.645 100.24 137.871 111.46 137.964 114.692C138.082 118.909 141.387 134.773 141.463 137.485C141.539 140.196 139.988 140.561 139.994 142.424C140.013 147.548 141.904 141.126 141.992 149.126C142.055 154.933 142.959 153.118 142.959 153.118L142.96 153.116Z" fill="#ECD0A8"/>
<path d="M123.817 130.077L123.591 119.375L120.804 130.08L123.817 130.077Z" fill="black"/>
<path d="M112.017 101.029L111.57 85.3232L110.262 101.029H112.017Z" fill="#0B49AB"/>
<path d="M118.819 73.8374L122.571 76.2939L123.779 73.0552L125.433 76.2939L129.144 73.5649L127.342 70.7188L123.779 72.4121L119.733 71.1714L118.819 73.8374Z" fill="#0E5DF7"/>
<path d="M112.253 109.845C112.253 109.845 110.241 133.322 109.864 135.356C109.488 137.391 108.728 201.124 108.728 201.124H118.201L124.253 134.076L133.746 201.124H143.156C143.156 201.124 137.938 114.036 135.871 109.845H112.253V109.845Z" fill="#0E5DF7"/>
<path d="M121.821 95.8628L121.61 95.0791C121.575 94.9458 118.031 81.8999 118.349 74.1377L118.934 73.9063C118.547 80.5552 121.198 91.1592 121.967 94.1313C123.478 90.8018 128.543 76.8257 129.068 73.6221L129.588 73.8887C128.98 77.6123 122.48 94.4272 122.159 95.1245L121.821 95.8628V95.8628Z" fill="#272727"/>
<path d="M121.692 99.8032C123.018 99.8032 124.093 98.7283 124.093 97.4023C124.093 96.0764 123.018 95.0015 121.692 95.0015C120.366 95.0015 119.291 96.0764 119.291 97.4023C119.291 98.7283 120.366 99.8032 121.692 99.8032Z" fill="#272727"/>
<path d="M120.099 94.7426L119.13 95.6013L119.626 96.1616L120.596 95.3029L120.099 94.7426Z" fill="#272727"/>
<path d="M124.308 95.6941L123.393 94.7784L122.863 95.3077L123.779 96.2234L124.308 95.6941Z" fill="#272727"/>
<path d="M122.571 76.2939L119.092 74.0161L122.922 77.4497L123.779 73.0552L122.571 76.2939Z" fill="#0B49AB"/>
<path d="M125.433 76.2939L123.814 73.124L125.307 77.4497L128.878 73.7598L125.433 76.2939Z" fill="#0B49AB"/>
<path d="M134.796 101.261L144.785 100.884C144.785 100.884 143.562 83.2256 142.935 80.936C142.59 79.6792 139.252 76.8901 135.889 75.9746C133.136 75.2261 131.67 79.7993 131.015 83.4394C130.356 87.1045 129.536 89.5478 132.684 91.5371L134.094 92.4907L134.795 101.261H134.796Z" fill="#0E5DF7"/>
<path d="M135.892 101.224L133.896 85.6104L134.856 101.261L135.892 101.224Z" fill="#0B49AB"/>
<path d="M112.233 109.834L135.872 109.845L136.232 111.008L112.233 110.286V109.834Z" fill="#0B49AB"/>
<path d="M118.659 60.9746C119.619 59.7471 118.765 58.5078 119.422 58.2383C120.079 57.9673 121.434 59.7134 124.202 59.5552C126.971 59.397 127.104 57.3257 127.891 57.9102C128.676 58.4932 128.222 61.4111 129.019 60.7109C129.019 60.7109 129.845 55.6777 123.839 55.6777C117.476 55.6777 118.659 60.9746 118.659 60.9746Z" fill="#E5E5E5"/>
<path d="M140.763 60.2979C139.654 64.7144 137.938 74.9024 137.938 74.9024L155.398 75.7696C155.398 75.7696 153.605 58.9458 150.56 54.73C148.55 51.9468 143.377 53.4571 142.627 54.919C141.275 57.5542 140.763 60.2994 140.763 60.2994V60.2979Z" fill="#D0B080"/>
<path d="M144.139 67.8638H149.521L148.292 69.1997L144.713 69.3418L144.139 67.8638Z" fill="#E5E5E5"/>
<path d="M136.891 201.11H145.738L147.377 127.613V120.55L132.01 119.195L136.891 201.11Z" fill="#272727"/>
<path d="M156.606 201.11H148.187L147.377 124.996L146.119 120.55L161.487 119.195L156.606 201.11Z" fill="#272727"/>
<path d="M132.232 122.94L132.341 124.763L146.77 127.481L147.987 124.996L149.131 127.613L161.173 124.468L161.264 122.94L158.828 116.583L134.91 116.885L132.232 122.94Z" fill="black"/>
<path d="M146.676 74.6709C143.792 74.6709 143.477 69.6714 143.477 69.6714C144.829 69.3916 144.905 67.0039 145.01 65.397H148.328C148.434 67.0039 148.51 69.3916 149.862 69.6714C149.862 69.6714 149.598 74.6709 146.668 74.6709" fill="#F2CBD2"/>
<path d="M144.916 66.7124C145.527 67.1724 148.436 66.8398 148.436 66.8398C148.436 66.8398 148.517 67.5225 148.637 68.0703C148.637 68.0703 145.776 68.4585 144.843 67.3232L144.915 66.7139L144.916 66.7124Z" fill="#D1B0B8"/>
<path d="M146.783 53.356C142.764 53.356 141.095 55.5518 141.961 60.9438C142.827 66.3359 145.176 67.4053 146.783 67.4053C148.39 67.4053 150.74 66.3359 151.606 60.9438C152.471 55.5518 150.801 53.356 146.783 53.356Z" fill="#F2CBD2"/>
<path d="M144.024 85.4067L149.298 85.6323L150.133 69.6143L147.377 68.9844H144.515L142.029 70.4522L144.024 85.4067Z" fill="white"/>
<path d="M143.476 69.5718L144.195 68.2769L146.805 69.147L149.577 68.2769L150.133 69.6143L148.33 71.6958L146.906 69.6992L145.689 71.6958L143.476 69.5718Z" fill="#E5E5E5"/>
<path d="M146.348 69.2217H147.452L148.105 70.0347L147.344 71.1113H146.329L145.627 70.2222L146.348 69.2217Z" fill="#F24A24"/>
<path d="M146.373 70.6543L145.143 83.2095L146.805 85.814L148.985 82.3057L147.277 70.6543H146.373Z" fill="#F24A24"/>
<path d="M143.476 69.6143L144.139 67.8638L146.773 69.0019L149.521 67.8638L150.133 69.6143L148.274 71.2812L146.849 69.2847L145.633 71.2812L143.476 69.6143Z" fill="white"/>
<path d="M143.476 69.6143L134.487 72.8853L136.455 93.5806L129.976 122.623L145.595 124.996L147.987 120.299L146.783 83.9888L143.476 69.6714" fill="#272727"/>
<path d="M150.133 69.6143L159.008 72.8853L157.085 93.3477L163.563 122.39L149.737 124.996L147.987 120.299L146.77 83.9316L150.133 69.6143Z" fill="#272727"/>
<path d="M142.03 70.4521L140.761 75.5879L140.719 75.5249L143.284 75.8413L143.462 75.8633L143.319 75.9731L140.243 78.3081L140.259 78.1748C142.236 80.5566 146.164 85.3086 148.125 87.7007C148.147 98.0996 148.119 109.911 148.036 120.299C148.042 120.321 145.929 124.448 145.923 124.468L147.948 120.279C147.935 120.38 147.895 112.142 147.889 112.162C147.879 104.81 147.781 94.8843 147.885 87.8354C145.941 85.4668 142.042 80.6753 140.112 78.2935L140.051 78.2173L140.128 78.1587L143.23 75.856L143.263 75.9878L140.704 75.6274L140.647 75.6187L140.662 75.563L142.03 70.4536V70.4521Z" fill="black"/>
<path d="M150.974 70.4521C151.427 71.9639 152.013 74.1274 152.438 75.6699L152.307 75.689L149.75 76.0522L149.814 75.8047C150.649 76.4258 152.199 77.5859 153.028 78.2129C150.986 80.5566 148.922 82.8813 146.81 85.1606C148.736 82.7876 150.713 80.4556 152.711 78.1411L152.733 78.3491C151.828 77.6738 150.272 76.5005 149.375 75.8193C149.448 75.812 152.099 75.4839 152.278 75.4619L152.181 75.604C151.813 74.0952 151.304 71.9492 150.974 70.4521V70.4521Z" fill="black"/>
<path d="M135.648 97.1885L134.91 100.503L152.157 94.9854L147.94 93.5029L135.648 97.1885Z" fill="black"/>
<path d="M152.158 94.9854L157.972 97.3218L158.332 98.9419L149.238 95.9199L152.158 94.9854Z" fill="black"/>
<path d="M131.203 89.6841C132.353 87.5205 137.849 85.2383 138.753 85.1446C139.657 85.0508 142.228 85.1446 142.228 85.1446L137.643 88.3189L131.203 89.6841V89.6841Z" fill="#F2CBD2"/>
<path d="M159.009 72.8853L169.308 92.9185C170.174 94.6016 169.705 96.6641 168.198 97.8081L166.641 98.9902C166.053 99.4356 165.287 99.5718 164.583 99.355L137.32 89.7676C137.536 85.8374 142.226 85.1445 142.226 85.1445L159.656 89.0146L156.605 87.4033L159.009 72.8853Z" fill="#272727"/>
<path d="M154.827 85.2647C156.935 84.5147 159.775 85.6309 160.79 86.2036C161.805 86.7749 163.563 90.8428 163.563 90.8428L155.829 88.6323L154.825 85.2632L154.827 85.2647Z" fill="#F2CBD2"/>
<path d="M134.487 72.8853L124.188 92.9185C123.322 94.6016 123.791 96.6641 125.298 97.8081L126.855 98.9902C127.443 99.4356 128.209 99.5718 128.913 99.355L159.77 89.8643C159.555 85.9341 154.865 85.2412 154.865 85.2412L131.203 89.4878L135.814 86.2549L134.487 72.8867V72.8853Z" fill="#272727"/>
<path d="M159.771 89.7603L147.94 93.5029L149.238 93.9585L160.411 89.9419L159.771 89.7603Z" fill="black"/>
<path d="M135.814 86.2549L135.017 78.2334L134.605 87.1016L135.814 86.2549Z" fill="black"/>
<path d="M156.998 85.0405L158.179 77.9023V85.2295L156.998 85.0405Z" fill="black"/>
<path d="M146.919 53.0015C146.863 55.3115 146.902 58.1328 146.219 58.5005C145.536 58.8682 141.486 57.7285 141.707 61.332C141.707 61.332 141.165 56.0103 143.026 54.3813C144.574 53.0249 146.919 53 146.919 53V53.0015Z" fill="#D0B080"/>
<path d="M146.868 53.0015C146.926 55.3115 146.465 58.3496 147.227 58.5005C148 58.6543 152.245 57.7285 152.011 61.332C152.011 61.332 152.581 57.2466 151.082 54.9878C149.777 53.022 146.868 53 146.868 53V53.0015Z" fill="#D0B080"/>
<path d="M144.113 201.11H139.141C139.141 201.11 139.091 201.862 138.438 202.414C137.785 202.966 134.068 203.921 133.767 207.487V207.737H144.113C144.113 207.737 144.063 203.318 144.113 201.109" fill="#272727"/>
<path d="M149.391 201.11H154.362C154.362 201.11 154.412 201.862 155.065 202.414C155.719 202.966 159.435 203.921 159.737 207.487V207.737H149.391C149.391 207.737 149.44 203.318 149.391 201.109" fill="#272727"/>
</g>
</g>
<defs>
<linearGradient id="paint0_linear_1077_10962" x1="0" y1="-38" x2="300" y2="262" gradientUnits="userSpaceOnUse">
<stop stop-color="#838FFF"/>
<stop offset="1" stop-color="#6170FF"/>
</linearGradient>
<clipPath id="clip0_1077_10962">
<rect width="300" height="225" fill="white"/>
</clipPath>
<clipPath id="clip1_1077_10962">
<rect width="300" height="300" fill="white" transform="translate(0 -38)"/>
</clipPath>
</defs>
</svg>
