<svg width="100%" height="100%" viewBox="0 0 300 225" fill="none" preserveAspectRatio="xMidYMid meet" xmlns="http://www.w3.org/2000/svg">
<g clip-path="url(#clip0_1365_11533)">
<rect width="300" height="225" fill="white"/>
<path d="M300 -11H0V289H300V-11Z" fill="url(#paint0_linear_1365_11533)"/>
<path d="M181.614 135.215C177.701 127.891 158.598 102.877 157.006 100.795C156.936 100.705 156.899 100.656 156.899 100.656C156.899 100.656 156.48 103.064 156.583 113.488C156.788 113.57 156.991 113.652 157.195 113.737C164.988 116.976 172.262 122.729 174.042 129.594C176.031 131.059 177.234 131.956 177.234 131.956C177.234 131.956 176.207 131.217 174.339 130.021C178.469 132.895 181.614 135.216 181.614 135.216V135.215Z" fill="#9EAFCC"/>
<path d="M238.377 34.7236H174.794C175.396 25.8335 191.067 30.6558 191.067 30.6558C191.369 19.6563 229.714 15.3438 230.392 32.4634C230.392 32.4634 238.377 27.7964 238.377 34.7236Z" fill="#97A1FF"/>
<path d="M192.904 33.9311C192.848 33.8725 192.82 33.7919 192.826 33.7114C192.934 32.1162 193.595 30.8886 194.792 30.0668C198.25 27.6894 205.119 29.4047 206.773 29.8676C207.337 24.871 216.345 21.7436 224.629 21.6923C232.17 21.644 240.328 24.1635 240.945 31.3207C241.98 30.7905 244.708 29.5805 246.413 30.559C247.337 31.0893 247.804 32.1557 247.804 33.729C247.804 33.8901 247.673 34.0219 247.512 34.0219H193.117C193.037 34.0219 192.959 33.9882 192.904 33.9296V33.9311ZM246.121 31.0688C244.321 30.0361 240.863 32.0297 240.827 32.0502C240.738 32.1015 240.63 32.103 240.539 32.0546C240.448 32.0048 240.391 31.9125 240.387 31.81C240.108 24.7773 232.207 22.2797 224.83 22.2797C224.764 22.2797 224.697 22.2797 224.631 22.2797C216.379 22.3295 207.46 25.5478 207.329 30.2587C207.326 30.3496 207.281 30.436 207.208 30.4887C207.135 30.5415 207.038 30.5576 206.951 30.5312C206.869 30.5063 198.756 28.0512 195.123 30.5502C194.16 31.2123 193.595 32.1835 193.44 33.4389H247.213C247.161 32.2539 246.795 31.457 246.121 31.0703V31.0688Z" fill="#97A1FF"/>
<path d="M135.174 63.1606H35.8447C36.7866 52.9345 51.1436 58.4819 51.1436 58.4819C51.1436 41.5732 96.9844 43.2885 96.9844 58.8862C96.9844 47.5058 122.697 54.3232 122.697 60.5619C122.697 55.6782 135.171 56.6655 135.171 63.162L135.174 63.1606Z" fill="#99A3FF"/>
<path d="M90.8989 124.369L90.8594 124.397C92.8486 123.083 95.062 121.69 97.46 120.285V120.265C95.0796 121.656 92.8018 123.108 90.8989 124.371V124.369Z" fill="url(#paint1_linear_1365_11533)"/>
<path d="M100.334 118.647C99.3721 119.166 98.4082 119.709 97.4619 120.263V120.284C98.3979 119.736 99.3618 119.187 100.351 118.639C100.345 118.642 100.34 118.645 100.334 118.647V118.647Z" fill="#BED2FA"/>
<path d="M96.2959 153.602L95.9092 159.106L95.9619 159.099C96.1597 157.379 96.3398 155.519 96.501 153.543C96.4321 153.562 96.3647 153.583 96.2959 153.602Z" fill="#9EAFCC"/>
<path d="M157.966 166.025L94.7144 166.863C85.918 185.966 87.8955 238.652 66.8926 289H110.838L117.753 251.061C127.856 225.508 129.323 216.624 129.323 216.624C129.323 216.624 128.781 271.693 115.019 288.29L117.753 251.059L114.884 288.999H160.521C160.922 232.211 159.061 173.236 157.968 166.023L157.966 166.025Z" fill="#F24A24"/>
<path d="M139.517 36.5371C139.767 38.519 128.346 36.3086 126.739 37.7749C125.133 39.2412 127.647 44.1279 127.228 45.6646C126.809 47.2012 123.179 41.7637 120.317 41.062C117.455 40.3589 115.918 45.2456 118.851 47.9688C121.783 50.6919 120.179 55.8174 115.78 55.4541C117.431 57.6045 118.744 60.0566 118.6 62.9951C118.347 68.2012 115.074 73.1362 115.074 73.1362C115.074 73.1362 115.124 73.2783 115.219 73.5332C116.24 76.2622 122.69 92.2393 133.836 92.7051C146.025 93.2134 134.598 79.501 131.221 74.541C131.221 74.541 131.212 74.5103 131.198 74.4546C130.96 73.5508 128.98 65.7827 130.534 63.6309C132.185 61.3457 135.714 65.1045 140.183 62.8691C141.406 62.2583 141.922 45.2778 139.517 36.54V36.5371Z" fill="#4C381A"/>
<path d="M139.516 36.5371C138.819 31.041 131.839 28.9097 123.319 30.0435C122.842 30.0903 122.367 30.1445 121.898 30.2075C123.133 28.9902 123.899 27.2983 123.899 25.4277C123.899 21.7202 120.894 18.7144 117.186 18.7144C113.479 18.7144 110.473 21.7202 110.473 25.4277C110.473 28.3237 112.307 30.792 114.877 31.7339C113.643 32.2129 112.633 32.8354 111.792 33.7056C111.694 33.8008 111.601 33.8989 111.508 34C111.516 33.877 111.519 33.7539 111.519 33.6294C111.519 29.9219 108.513 26.916 104.805 26.916C101.098 26.916 98.0918 29.9219 98.0918 33.6294C98.0918 37.3369 101.098 40.3428 104.805 40.3428C106.485 40.3428 108.021 39.7231 109.198 38.7036C108.756 40.3164 108.735 41.9365 108.989 43.4995C107.758 41.9702 105.873 40.9902 103.756 40.9902C100.049 40.9902 97.043 43.9961 97.043 47.7036C97.043 51.4111 100.049 54.417 103.756 54.417C107.464 54.417 110.171 51.6997 110.446 48.2441C110.855 49.3721 111.343 50.3081 111.867 50.9307C112.242 51.3774 112.652 51.8359 113.076 52.3061C114.517 54.2441 115.77 55.4453 115.775 55.4512C120.174 55.8159 121.778 50.689 118.846 47.9658C115.913 45.2427 117.45 40.356 120.312 41.0591C123.174 41.7622 126.804 47.1982 127.223 45.6616C127.642 44.125 125.128 39.2383 126.734 37.772C128.339 36.3057 139.762 38.5161 139.512 36.5342L139.516 36.5371Z" fill="#272727"/>
<path d="M129.321 216.624C129.321 216.624 127.854 225.508 117.751 251.061L115.017 288.291C128.779 271.694 129.321 216.625 129.321 216.625V216.624Z" fill="#E33E23"/>
<path d="M157.795 154.513C148.655 152.626 139.409 151.173 131.395 149.668L138.391 144.805L146.154 139.409C143.295 141.175 138.877 142.713 133.453 144.221C129.667 145.274 125.393 146.311 120.815 147.402C113.252 149.204 104.866 151.151 96.502 153.543C96.3408 155.519 96.1606 157.379 95.9629 159.099L120.944 155.759L157.876 159.922L157.797 154.513H157.795Z" fill="#9EAFCC"/>
<path d="M174.044 129.594C172.264 122.729 164.99 116.976 157.197 113.737C156.993 113.652 156.788 113.569 156.584 113.488C154.383 112.614 152.152 111.941 150 111.502C148.548 111.206 147.133 111.017 145.787 110.942C147.063 112.63 147.927 114.747 148.513 117.115C149.304 120.314 149.587 123.974 149.687 127.664L151.32 127.967C152.811 128.244 154.329 127.634 155.213 126.402C155.799 125.588 156.532 124.933 157.352 124.454C159.388 123.262 161.963 123.146 164.161 124.319L171.231 128.094L172.646 128.85L174.041 129.594H174.044Z" fill="#4C381A"/>
<path d="M120.943 155.758L95.9614 159.098C95.604 162.2 95.1865 164.841 94.7119 166.863L157.964 166.025L157.875 159.921L120.943 155.758V155.758Z" fill="#BED2FA"/>
<path d="M207.848 141.276C202.884 128.452 171.705 85.9346 156.709 80.6494V80.5718C156.709 80.5718 142.982 76.5347 131.194 74.4531C131.209 74.5088 131.218 74.5396 131.218 74.5396C134.594 79.4995 146.021 93.2119 133.832 92.7036C122.686 92.2393 116.237 76.2622 115.216 73.5317C104.594 74.6611 92.8271 78.6865 92.8271 78.6865C78.0615 83.0854 47.7963 132.933 42.769 145.918C38.1035 157.97 42.5683 184.798 56.9062 172.204C66.832 163.485 81.5185 157.841 96.2944 153.602C96.3632 153.583 96.4306 153.562 96.4995 153.543C104.864 151.149 113.251 149.204 120.813 147.402C125.391 146.311 129.665 145.274 133.45 144.221C138.873 142.712 143.292 141.174 146.152 139.409L138.388 144.805L131.392 149.668C139.406 151.173 148.652 152.627 157.793 154.513C157.925 154.541 158.055 154.567 158.187 154.595C171.763 157.416 185.065 161.208 193.708 167.562C209.084 178.866 212.511 153.328 207.845 141.276H207.848ZM100.349 118.64C99.3603 119.188 98.3964 119.737 97.4604 120.285C95.0625 121.69 92.8476 123.083 90.8598 124.397L85.7519 127.932L79.9482 132.41L96.7514 101.582L98.0141 99.2646L99.2915 96.9224V108.656C100.112 107.985 100.854 107.465 101.473 107.141C105.482 105.054 109.706 107.641 116.027 111.383C116.093 111.423 116.158 111.461 116.224 111.499C116.224 111.499 107.607 114.732 100.351 118.639L100.349 118.64ZM174.34 130.021C173.477 129.468 172.437 128.816 171.234 128.094L164.164 124.319C161.966 123.146 159.391 123.262 157.355 124.454C156.535 124.935 155.802 125.588 155.216 126.402C154.331 127.634 152.814 128.245 151.323 127.967L149.689 127.664C149.59 123.974 149.306 120.314 148.516 117.115C147.93 114.747 147.066 112.63 145.79 110.942C147.135 111.016 148.55 111.206 150.003 111.502C152.155 111.941 154.386 112.614 156.587 113.488C156.485 103.066 156.904 100.656 156.904 100.656C156.904 100.656 156.94 100.705 157.011 100.795C158.603 102.877 177.706 127.891 181.619 135.215C181.619 135.215 178.472 132.895 174.344 130.019L174.34 130.021Z" fill="#BED2FA"/>
<path d="M90.4219 124.687C90.5669 124.59 90.7134 124.494 90.8599 124.396L90.8994 124.368C90.7368 124.475 90.5771 124.582 90.4219 124.686V124.687Z" fill="#9EAFCC"/>
<path d="M87.2954 126.829C86.3638 127.483 85.8042 127.892 85.7559 127.929C86.2422 127.576 86.7563 127.209 87.2954 126.829Z" fill="#9EAFCC"/>
<path d="M84.6084 127.762C81.9321 130.539 79.9473 132.41 79.9473 132.41C79.9473 132.41 82.0728 130.595 85.751 127.932C85.042 127.831 84.6128 127.763 84.6069 127.762H84.6084Z" fill="#9EAFCC"/>
<path d="M87.2959 126.829C86.7568 127.208 86.2427 127.576 85.7563 127.929L85.752 127.932L90.8599 124.397C90.7119 124.495 90.5654 124.592 90.4219 124.688C89.165 125.528 88.0942 126.269 87.2959 126.829Z" fill="#9EAFCC"/>
<path d="M79.9473 132.41L85.751 127.932C82.0728 130.596 79.9473 132.41 79.9473 132.41Z" fill="#9EAFCC"/>
<path d="M98.0142 99.2646L96.7515 101.582L79.9482 132.41C79.9482 132.41 81.9331 130.539 84.6094 127.762C84.0674 125.503 91.5351 115.901 97.2173 110.5C97.4912 110.241 97.7607 109.989 98.0244 109.75C98.4639 109.353 98.8872 108.985 99.2915 108.656V96.9224L98.0142 99.2646V99.2646Z" fill="#9EAFCC"/>
<path d="M90.4219 124.687C89.3027 125.433 88.2583 126.15 87.2959 126.827C88.0942 126.266 89.165 125.526 90.4219 124.687Z" fill="#4C381A"/>
<path d="M85.752 127.931L85.7569 127.927L85.752 127.931Z" fill="#4C381A"/>
<path d="M116.027 111.383C109.706 107.641 105.482 105.054 101.472 107.141C100.853 107.463 100.112 107.985 99.2912 108.656C98.8869 108.987 98.4621 109.353 98.0241 109.75C97.7605 109.989 97.4909 110.241 97.217 110.5C91.5349 115.901 84.0656 125.503 84.6091 127.762C84.6091 127.762 85.0427 127.831 85.7531 127.932L85.7575 127.929C85.8059 127.894 86.3654 127.483 87.2971 126.829C88.2595 126.15 89.3039 125.434 90.4231 124.688C90.5798 124.584 90.7395 124.478 90.9006 124.371C92.8049 123.108 95.0827 121.656 97.4616 120.265C98.4094 119.711 99.3718 119.167 100.334 118.649C100.34 118.646 100.344 118.643 100.35 118.64C107.607 114.735 116.223 111.5 116.223 111.5C116.157 111.461 116.093 111.423 116.027 111.385V111.383Z" fill="#4C381A"/>
<path d="M0 289L300 289L300 -11L0 -11L0 289Z" fill="url(#paint2_linear_1365_11533)"/>
<path d="M241.893 199.375C241.742 204.31 227.914 202.652 227.914 207.7H249.144C249.144 204.611 248.335 203.572 248.073 199.4L241.895 199.375H241.893Z" fill="white"/>
<path d="M254.988 198.643C254.531 203.153 253.816 202.207 253.11 207.699H264.023C264.023 207.699 264.063 205.633 262.522 203.357C261.277 201.517 260.89 200.347 260.559 198.643" fill="white"/>
<path d="M262.552 199.384H252.66L249.572 117.546L250.447 109.619L264.928 109.594L262.552 199.384Z" fill="#272727"/>
<path d="M240.338 199.381L250.138 199.447L252.095 117.321L249.426 109.52L239.212 109.736L240.338 199.381Z" fill="#272727"/>
<path d="M265.624 98.4286C265.631 98.1356 265.588 97.3534 265.514 96.2518L271.943 96.0087C271.943 96.0087 271.194 84.8876 270.635 82.5819C270.324 81.3016 267.772 77.2323 263.763 75.9843C263.749 75.9799 263.735 75.9784 263.721 75.974C260.74 74.6615 258.692 74.1957 255.436 72.2723H249.617C249.617 72.2723 245.712 75.8832 243.1 76.5995C243.1 76.5995 243.075 76.6229 243.033 76.6639C240.45 77.1942 237.453 80.4564 236.923 82.8588C236.363 85.3915 234.813 96.3251 234.813 96.3251H239.195C238.938 110.057 238.561 130.194 238.561 130.194L265.634 132.184C265.634 132.184 265.382 108.58 265.624 98.4271V98.4286Z" fill="#FAC734"/>
<path d="M171.232 98.4564C172.435 99.1786 173.477 99.829 174.338 100.383C173.79 100 173.225 99.6107 172.647 99.2123L171.232 98.4564Z" fill="url(#paint3_linear_1365_11533)"/>
<path d="M174.044 99.9564L172.649 99.2123C173.228 99.6093 173.792 100 174.34 100.383C176.208 101.581 177.234 102.318 177.234 102.318C177.234 102.318 176.033 101.423 174.042 99.9564H174.044Z" fill="#9EAFCC"/>
<path d="M174.764 141.385H204.823C212.312 141.385 218.383 135.314 218.383 127.825C218.383 120.336 212.312 114.265 204.823 114.265H174.764C167.275 114.265 161.204 120.336 161.204 127.825C161.204 135.314 167.275 141.385 174.764 141.385Z" fill="white"/>
<path d="M200.527 114.265H224.445L217.867 124.096L200.527 114.265Z" fill="white"/>
<path d="M180.88 129.644C181.885 129.644 182.699 128.83 182.699 127.825C182.699 126.82 181.885 126.006 180.88 126.006C179.875 126.006 179.061 126.82 179.061 127.825C179.061 128.83 179.875 129.644 180.88 129.644Z" fill="#4C4C4C"/>
<path d="M189.817 129.644C190.822 129.644 191.637 128.83 191.637 127.825C191.637 126.82 190.822 126.006 189.817 126.006C188.813 126.006 187.998 126.82 187.998 127.825C187.998 128.83 188.813 129.644 189.817 129.644Z" fill="#4C4C4C"/>
<path d="M198.707 129.644C199.712 129.644 200.526 128.83 200.526 127.825C200.526 126.82 199.712 126.006 198.707 126.006C197.702 126.006 196.888 126.82 196.888 127.825C196.888 128.83 197.702 129.644 198.707 129.644Z" fill="#4C4C4C"/>
<path d="M235.406 96.3265C235.406 96.3265 233.847 106.762 233.882 108.792C233.918 110.823 236.452 110.59 236.452 110.59L239.66 101.524V96.3251H235.407L235.406 96.3265Z" fill="#D1B797"/>
<path d="M248.473 74.9237C247.771 75.6444 246.699 76.1102 246.066 75.2474C244.51 73.1321 239.78 66.8011 241.766 64.6785C244.408 61.8558 247.931 60.0716 250.132 61.1439C251.185 61.6566 252.403 64.5569 252.535 66.1946C252.666 67.8323 253.566 70.7254 255.433 72.2723C257.017 74.6819 251.015 80.1312 250.263 80.1282C248.922 80.1224 249.334 77.6541 249.334 77.6541C249.334 77.6541 250.308 73.7064 249.483 73.888C249.483 73.888 248.702 74.7112 248.473 74.9222V74.9237Z" fill="#ECD0A8"/>
<path d="M253.145 67.9042C252.728 68.8754 250.592 70.8339 251.021 66.7206C251.326 63.8056 248.014 65.2265 248.926 66.9052C249.839 68.5853 247.154 68.8168 246.685 65.5106C246.487 64.1088 243.722 67.8544 242.099 68.1151C242.099 68.1151 240.798 65.8944 241.961 64.5775C242.689 63.7528 243.837 62.5106 245.188 61.6215C246.613 60.684 248.266 60.1405 249.892 60.892C253.062 62.3583 253.144 67.9027 253.144 67.9027L253.145 67.9042Z" fill="#4C381A"/>
<path d="M253.145 67.9041C254.09 67.4632 254.781 66.0994 253.863 65.3817C253.082 64.7723 253.281 63.807 253.646 63.3939C254.237 62.723 253.404 61.223 252.373 61.3167C251.617 61.387 251.282 59.4534 250.765 58.8866C249.843 57.8758 248.696 57.7103 247.62 58.4881C246.599 59.2264 246.016 58.9715 245.342 58.8836C244.67 58.7957 242.557 59.471 242.587 60.1903C242.614 60.9095 241.935 61.1424 240.543 61.7298C239.152 62.3187 238.725 63.5609 238.929 64.4222C239.133 65.2835 239.972 65.1839 240.241 65.9149C240.457 66.4964 240.363 67.5409 240.605 67.7694C241.131 68.263 241.719 68.3509 242.1 68.118C242.48 67.8851 246.889 62.0316 246.889 62.0316L249.862 63.9491L251.836 65.3905L253.147 67.9071L253.145 67.9041Z" fill="#4C381A"/>
<path d="M262.941 96.35L261.563 86.6967L260.789 96.1288L261.034 109.953L265.932 109.594" fill="#C69A2C"/>
<path d="M239.659 96.3265L239.413 85.431L238.104 96.3265H239.659Z" fill="#C69A2C"/>
<path d="M248.103 93.2709C248.103 93.2709 247.4 87.9726 246.897 87.3441C246.395 86.7157 241.624 86.4403 241.122 86.9926C240.619 87.5448 242.427 96.5859 242.879 96.8861C243.332 97.1879 248.027 97.7152 248.354 97.3388C248.68 96.9623 248.103 93.2709 248.103 93.2709V93.2709Z" fill="#272727"/>
<path d="M270.303 96.0717C270.804 99.9242 270.905 109.393 270.654 110.698C270.404 112.003 268.243 114.264 267.189 114.264C266.383 114.264 255.06 105.769 248.781 101.168C246.84 99.7455 244.365 99.3134 244.129 98.83C243.131 96.785 241.876 91.264 243.432 91.1117C244.989 90.9593 248.103 93.2694 248.103 93.2694L247.744 90.8773C247.744 90.8773 249.911 92.6161 249.911 93.4203C249.911 94.2245 250.463 96.785 250.463 97.1864C250.463 97.5878 263.713 104.404 263.713 104.404L262.939 96.347L270.301 96.0687L270.303 96.0717Z" fill="#ECD0A8"/>
<path d="M241.036 96.536C241.036 96.536 234.902 103.703 234.343 105.016C233.12 107.881 234.229 115.049 237.28 113.052C238.663 112.147 244.414 96.5741 244.414 96.5741C244.414 96.5741 244.677 92.4301 243.812 91.7152C242.946 91.0004 242.381 89.8944 241.439 90.8803L241.22 89.4872C241.22 89.4872 240.082 91.4896 240.233 92.3568C240.384 93.2225 241.037 96.5375 241.037 96.5375L241.036 96.536Z" fill="#ECD0A8"/>
<path d="M249.483 73.8895C250.543 73.0956 251.522 72.1625 251.62 71.972C251.718 71.7816 250.458 76.2904 249.332 77.6556C249.332 77.6556 249.744 74.3436 249.59 74.0199C249.496 73.8221 249.483 73.8895 249.483 73.8895V73.8895Z" fill="#D1B797"/>
</g>
<defs>
<linearGradient id="paint0_linear_1365_11533" x1="0" y1="-11" x2="300" y2="289" gradientUnits="userSpaceOnUse">
<stop stop-color="#838FFF"/>
<stop offset="1" stop-color="#6170FF"/>
</linearGradient>
<linearGradient id="paint1_linear_1365_11533" x1="-17.2461" y1="10.9242" x2="282.754" y2="310.924" gradientUnits="userSpaceOnUse">
<stop stop-color="#838FFF"/>
<stop offset="1" stop-color="#6170FF"/>
</linearGradient>
<linearGradient id="paint2_linear_1365_11533" x1="150" y1="-11" x2="150" y2="289" gradientUnits="userSpaceOnUse">
<stop stop-color="#838FFF" stop-opacity="0"/>
<stop offset="0.66" stop-color="#6271FF" stop-opacity="0.97"/>
<stop offset="1" stop-color="#6170FF"/>
</linearGradient>
<linearGradient id="paint3_linear_1365_11533" x1="18.7021" y1="-54.664" x2="318.703" y2="245.337" gradientUnits="userSpaceOnUse">
<stop stop-color="#838FFF"/>
<stop offset="1" stop-color="#6170FF"/>
</linearGradient>
<clipPath id="clip0_1365_11533">
<rect width="300" height="225" fill="white"/>
</clipPath>
</defs>
</svg>
