<svg width="100%" height="100%" viewBox="0 0 300 225" fill="none" preserveAspectRatio="xMidYMid meet" xmlns="http://www.w3.org/2000/svg">
<g clip-path="url(#clip0_1087_11652)">
<path d="M300 -11H0V289H300V-11Z" fill="url(#paint0_linear_1087_11652)"/>
<path d="M238.377 34.7236H174.794C175.396 25.8335 191.067 30.6558 191.067 30.6558C191.369 19.6563 229.714 15.3438 230.392 32.4634C230.392 32.4634 238.377 27.7964 238.377 34.7236Z" fill="#97A1FF"/>
<path d="M192.904 33.9311C192.848 33.8725 192.82 33.7919 192.826 33.7114C192.934 32.1162 193.595 30.8886 194.792 30.0668C198.25 27.6894 205.119 29.4047 206.773 29.8676C207.337 24.871 216.345 21.7436 224.629 21.6923C232.17 21.644 240.328 24.1635 240.945 31.3207C241.98 30.7905 244.708 29.5805 246.413 30.559C247.337 31.0893 247.804 32.1557 247.804 33.729C247.804 33.8901 247.673 34.0219 247.512 34.0219H193.117C193.037 34.0219 192.959 33.9882 192.904 33.9296V33.9311ZM246.121 31.0688C244.321 30.0361 240.863 32.0297 240.827 32.0502C240.738 32.1015 240.63 32.103 240.539 32.0546C240.448 32.0048 240.391 31.9125 240.387 31.81C240.108 24.7773 232.207 22.2797 224.83 22.2797C224.764 22.2797 224.697 22.2797 224.631 22.2797C216.379 22.3295 207.46 25.5478 207.329 30.2587C207.326 30.3496 207.281 30.436 207.208 30.4887C207.135 30.5415 207.038 30.5576 206.951 30.5312C206.869 30.5063 198.756 28.0512 195.123 30.5502C194.16 31.2123 193.595 32.1835 193.44 33.4389H247.213C247.161 32.2539 246.795 31.457 246.121 31.0703V31.0688Z" fill="#97A1FF"/>
<path d="M135.174 63.1606H35.8447C36.7866 52.9345 51.1436 58.4819 51.1436 58.4819C51.1436 41.5732 96.9844 43.2885 96.9844 58.8862C96.9844 47.5058 122.697 54.3232 122.697 60.562C122.697 55.6782 135.171 56.6655 135.171 63.162L135.174 63.1606Z" fill="#99A3FF"/>
<path d="M171.233 128.094C172.436 128.816 173.478 129.467 174.339 130.021C173.791 129.638 173.226 129.249 172.648 128.85L171.233 128.094Z" fill="url(#paint1_linear_1087_11652)"/>
<path d="M92.8291 78.6865C92.8291 78.6865 93.6919 81.1226 94.7437 84.7231C94.1929 82.0571 93.5557 79.9844 92.8291 78.6865Z" fill="url(#paint2_linear_1087_11652)"/>
<path d="M90.8999 124.369L90.8604 124.397C92.8496 123.083 95.063 121.69 97.4609 120.285V120.265C95.0806 121.656 92.8027 123.108 90.8999 124.371V124.369Z" fill="url(#paint3_linear_1087_11652)"/>
<path d="M120.944 155.758L95.9624 159.098C95.605 162.2 95.1875 164.841 94.7129 166.863L157.965 166.025L157.875 159.921L120.944 155.758V155.758Z" fill="#BED2FA"/>
<path d="M98.0142 99.2646L99.2915 96.9224V108.656C100.112 107.985 100.854 107.465 101.473 107.141C105.482 105.054 109.707 107.641 116.027 111.383C122.139 109.133 128.635 107.453 135.186 106.901C140.314 106.469 143.635 108.096 145.789 110.942C147.133 111.016 148.548 111.206 150.001 111.502C146.2 103.188 156.157 80.4663 156.157 80.4663C156.338 80.5205 156.524 80.582 156.712 80.648V80.5703C156.712 80.5703 142.985 76.5332 131.197 74.4517C131.212 74.5073 131.221 74.5381 131.221 74.5381C134.597 79.498 146.024 93.2104 133.835 92.7021C122.689 92.2378 116.24 76.2607 115.219 73.5303C104.597 74.6597 92.8301 78.6851 92.8301 78.6851C93.5581 79.9844 94.1938 82.0571 94.7446 84.7217C95.9092 88.7119 97.3066 94.1348 98.0156 99.2617L98.0142 99.2646Z" fill="#BED2FA"/>
<path d="M100.334 118.647C99.3721 119.166 98.4082 119.709 97.4619 120.263V120.284C98.3979 119.736 99.3618 119.187 100.351 118.639C100.345 118.642 100.34 118.645 100.334 118.647V118.647Z" fill="#BED2FA"/>
<path d="M157.877 159.922L158.021 159.938L158.192 154.595C158.06 154.567 157.93 154.541 157.798 154.513L157.877 159.922Z" fill="#9EAFCC"/>
<path d="M96.2959 153.602L95.9092 159.106L95.9619 159.099C96.1597 157.379 96.3398 155.519 96.501 153.543C96.4321 153.562 96.3647 153.583 96.2959 153.602Z" fill="#9EAFCC"/>
<path d="M157.877 159.922L157.798 154.513C148.657 152.626 139.411 151.173 131.397 149.668L130.161 150.528L120.816 147.404C113.253 149.206 104.867 151.152 96.5029 153.544C96.3418 155.521 96.1616 157.381 95.9639 159.101L120.945 155.761L157.877 159.924V159.922Z" fill="#9EAFCC"/>
<path d="M181.615 135.215C181.615 135.215 178.468 132.895 174.34 130.019C173.478 129.467 172.437 128.815 171.235 128.093L164.164 124.318C161.967 123.145 159.392 123.26 157.355 124.453L157.688 147.086L158.429 147.174L158.192 154.592C171.768 157.413 185.07 161.206 193.713 167.559C209.089 178.863 212.516 153.325 207.85 141.273C202.886 128.449 171.707 85.9316 156.711 80.6465L157.007 100.794C158.599 102.875 177.702 127.889 181.615 135.213V135.215Z" fill="#BED2FA"/>
<path d="M150 111.502C152.152 111.941 154.383 112.614 156.585 113.488C156.482 103.066 156.901 100.656 156.901 100.656C156.901 100.656 156.938 100.705 157.008 100.795L156.712 80.648C156.525 80.582 156.339 80.5205 156.157 80.4663C156.157 80.4663 146.201 103.188 150.002 111.502H150Z" fill="#BED2FA"/>
<path d="M155.217 126.402C154.332 127.634 152.814 128.245 151.323 127.967L149.69 127.664C149.753 130.003 149.744 132.354 149.744 134.608C149.744 136.423 148.452 137.988 146.155 139.407L138.392 144.804L157.688 147.087L157.355 124.454C156.535 124.935 155.803 125.588 155.217 126.402V126.402Z" fill="#BED2FA"/>
<path d="M157.688 147.087L157.797 154.513C157.929 154.541 158.06 154.567 158.191 154.595L158.429 147.177L157.688 147.089V147.087Z" fill="#BED2FA"/>
<path d="M138.392 144.804L131.396 149.667C139.41 151.171 148.656 152.626 157.796 154.511L157.687 147.086L138.39 144.802L138.392 144.804Z" fill="#BED2FA"/>
<path d="M174.044 129.594L172.649 128.85C173.228 129.247 173.792 129.638 174.34 130.021C176.208 131.219 177.234 131.956 177.234 131.956C177.234 131.956 176.033 131.061 174.042 129.594H174.044Z" fill="#9EAFCC"/>
<path d="M174.044 129.594C176.033 131.059 177.236 131.956 177.236 131.956C177.236 131.956 176.209 131.217 174.341 130.021C178.471 132.895 181.616 135.216 181.616 135.216C177.703 127.892 158.6 102.878 157.008 100.797L157.198 113.739C164.991 116.978 172.266 122.73 174.045 129.596L174.044 129.594Z" fill="#9EAFCC"/>
<path d="M157.007 100.795C156.937 100.705 156.9 100.656 156.9 100.656C156.9 100.656 156.481 103.064 156.584 113.488C156.789 113.57 156.992 113.652 157.196 113.737L157.005 100.795H157.007Z" fill="#9EAFCC"/>
<path d="M117.752 251.061C127.855 225.508 129.321 216.624 129.321 216.624C129.321 216.624 128.779 271.693 115.017 288.29L117.752 251.059L114.882 288.999H160.52C160.921 232.211 159.059 173.236 157.966 166.023L94.7144 166.861C85.918 185.964 87.8955 238.65 66.8926 288.999H110.838L117.753 251.059L117.752 251.061Z" fill="#F24A24"/>
<path d="M131.196 74.4517C130.958 73.5478 128.978 65.7798 130.532 63.6279C132.183 61.3428 135.712 65.1016 140.181 62.8662C141.404 62.2554 141.92 45.2749 139.515 36.5371C139.765 38.519 128.344 36.3086 126.737 37.7749C125.131 39.2412 127.645 44.1279 127.226 45.6646C126.807 47.2012 123.177 41.7637 120.315 41.062C117.453 40.3589 115.916 45.2456 118.849 47.9688C121.781 50.6919 120.177 55.8174 115.778 55.4541C117.429 57.6045 118.742 60.0566 118.598 62.9951C118.345 68.2012 115.072 73.1362 115.072 73.1362C115.072 73.1362 115.122 73.2783 115.217 73.5332C116.949 73.3486 118.651 73.2417 120.267 73.2417C123.237 73.2417 127.1 73.7295 131.197 74.4531L131.196 74.4517Z" fill="#4C381A"/>
<path d="M111.793 33.707C111.695 33.8022 111.601 33.9004 111.509 34.0015C111.509 34.0073 111.509 34.0132 111.509 34.019C111.601 33.9121 111.696 33.8081 111.794 33.707H111.793Z" fill="#4C381A"/>
<path d="M123.312 30.0449H123.318C122.84 30.0903 122.366 30.146 121.897 30.209C121.885 30.2207 121.874 30.231 121.863 30.2412C122.329 30.1768 122.811 30.1108 123.312 30.0449V30.0449Z" fill="#4C381A"/>
<path d="M110.449 48.2456C110.858 49.3735 111.346 50.3096 111.87 50.9321C112.245 51.3789 112.655 51.8374 113.079 52.3076C112.197 51.1211 111.245 49.6592 110.465 48.0273C110.462 48.1006 110.455 48.1724 110.449 48.2456V48.2456Z" fill="#4C381A"/>
<path d="M133.834 92.7036C146.023 93.2119 134.596 79.4995 131.219 74.5395C131.219 74.5395 131.21 74.5088 131.196 74.4531C127.099 73.7295 123.236 73.2417 120.265 73.2417C118.649 73.2417 116.949 73.3486 115.216 73.5332C116.237 76.2622 122.687 92.2393 133.833 92.7051L133.834 92.7036Z" fill="#4C381A"/>
<path d="M121.898 30.2075C123.133 28.9902 123.899 27.2983 123.899 25.4277C123.899 21.7202 120.894 18.7144 117.186 18.7144C113.479 18.7144 110.473 21.7202 110.473 25.4277C110.473 28.3237 112.307 30.792 114.877 31.7339C116.256 31.1992 117.916 30.8433 119.937 30.5239C120.576 30.4038 121.23 30.2983 121.898 30.2075V30.2075Z" fill="#272727"/>
<path d="M121.863 30.2412C121.875 30.2295 121.887 30.2192 121.897 30.209C121.23 30.2983 120.574 30.4053 119.936 30.5254C120.545 30.4287 121.187 30.3364 121.862 30.2427L121.863 30.2412Z" fill="#272727"/>
<path d="M108.992 43.501C107.761 41.9717 105.876 40.9917 103.759 40.9917C100.052 40.9917 97.0459 43.9976 97.0459 47.7051C97.0459 51.4126 100.052 54.4185 103.759 54.4185C107.467 54.4185 110.174 51.7012 110.449 48.2456C110.344 47.9526 110.243 47.6479 110.147 47.3315C109.625 46.1216 109.207 44.8311 108.992 43.4995V43.501Z" fill="#272727"/>
<path d="M110.147 47.3315C110.241 47.6479 110.342 47.9526 110.449 48.2456C110.455 48.1724 110.461 48.1006 110.465 48.0273C110.355 47.7988 110.25 47.5659 110.149 47.3315H110.147Z" fill="#272727"/>
<path d="M110.629 35.2407C110.881 34.7896 111.173 34.3735 111.508 34C111.516 33.877 111.519 33.7539 111.519 33.6294C111.519 29.9219 108.513 26.916 104.805 26.916C101.098 26.916 98.0918 29.9219 98.0918 33.6294C98.0918 37.3369 101.098 40.3428 104.805 40.3428C106.485 40.3428 108.021 39.7231 109.198 38.7036C109.226 38.604 109.254 38.5029 109.285 38.4033C109.67 37.148 110.111 36.1094 110.629 35.2422V35.2407Z" fill="#272727"/>
<path d="M111.509 34.0176C111.509 34.0176 111.509 34.0059 111.509 34C111.173 34.3721 110.882 34.7896 110.63 35.2407C110.899 34.7881 111.191 34.3838 111.507 34.0176H111.509Z" fill="#272727"/>
<path d="M115.779 55.4526C114.917 54.3306 113.965 53.2905 113.079 52.3076C114.521 54.2456 115.773 55.4468 115.779 55.4526Z" fill="#272727"/>
<path d="M109.547 38.3843C109.436 38.4956 109.32 38.6011 109.2 38.7036C108.758 40.3164 108.737 41.9365 108.991 43.4995C109.166 43.7192 109.33 43.9492 109.478 44.1895C109.219 42.272 109.201 40.2329 109.546 38.3828L109.547 38.3843Z" fill="#272727"/>
<path d="M115.133 31.8203C115.048 31.7925 114.961 31.7646 114.878 31.7339C113.643 32.2129 112.634 32.8354 111.793 33.7056C112.049 33.4565 112.328 33.228 112.631 33.0288C113.277 32.604 114.129 32.1938 115.133 31.8188V31.8203Z" fill="#272727"/>
<path d="M139.228 35.5688C139.329 35.8779 139.424 36.2016 139.516 36.5356C138.819 31.0395 131.839 28.9082 123.319 30.0419C130.116 29.3828 137.577 30.5063 139.228 35.5673V35.5688Z" fill="#272727"/>
<path d="M118.849 47.9673C115.917 45.2442 117.453 40.3575 120.316 41.0606C123.178 41.7637 126.808 47.1998 127.227 45.6631C127.646 44.1265 125.132 39.2398 126.737 37.7735C128.343 36.3072 139.766 38.5176 139.515 36.5357C139.423 36.2017 139.328 35.8765 139.227 35.5689C137.576 30.5079 130.115 29.3843 123.318 30.0435H123.313C122.813 30.1109 122.33 30.1768 121.864 30.2413C120.655 31.4175 119.006 32.1426 117.185 32.1426C116.469 32.1426 115.779 32.0298 115.131 31.8218C114.128 32.1968 113.276 32.607 112.63 33.0318C112.326 33.231 112.048 33.458 111.792 33.7085C111.695 33.8096 111.6 33.9122 111.506 34.0206C111.409 35.7227 110.678 37.2564 109.545 38.3858C109.2 40.2359 109.218 42.2749 109.477 44.1924C110.107 45.2149 110.47 46.419 110.47 47.7066C110.47 47.815 110.467 47.9219 110.462 48.0289C111.241 49.6607 112.193 51.1226 113.075 52.3091C113.961 53.292 114.913 54.3321 115.775 55.4541C120.173 55.8189 121.777 50.6919 118.845 47.9688L118.849 47.9673Z" fill="#272727"/>
<path d="M119.938 30.5239C117.916 30.8433 116.256 31.1992 114.878 31.7339C114.961 31.7646 115.048 31.7925 115.133 31.8203C116.501 31.3091 118.15 30.8608 119.938 30.5239V30.5239Z" fill="#272727"/>
<path d="M115.133 31.8203C115.78 32.0283 116.47 32.1411 117.187 32.1411C119.006 32.1411 120.655 31.416 121.865 30.2397C121.188 30.3335 120.547 30.4272 119.939 30.5225C118.152 30.8594 116.502 31.3076 115.134 31.8188L115.133 31.8203Z" fill="#272727"/>
<path d="M109.48 44.1895C109.332 43.9492 109.168 43.7192 108.992 43.4995C109.209 44.8311 109.625 46.1216 110.148 47.3315C109.859 46.3647 109.629 45.2983 109.48 44.1895V44.1895Z" fill="#272727"/>
<path d="M110.464 48.0273C110.468 47.9204 110.473 47.8135 110.473 47.7051C110.473 46.416 110.109 45.2134 109.479 44.1909C109.629 45.2998 109.86 46.3662 110.147 47.333C110.249 47.5674 110.355 47.8003 110.464 48.0288V48.0273Z" fill="#272727"/>
<path d="M110.629 35.2407C110.111 36.1094 109.671 37.1479 109.285 38.4019C109.254 38.5015 109.226 38.6025 109.198 38.7021C109.317 38.5996 109.434 38.4927 109.545 38.3828C109.758 37.2373 110.111 36.1665 110.629 35.2407Z" fill="#272727"/>
<path d="M109.547 38.3843C110.681 37.2534 111.412 35.7212 111.508 34.019C111.192 34.3838 110.9 34.7896 110.631 35.2422C110.112 36.168 109.761 37.2402 109.547 38.3843Z" fill="#272727"/>
<path d="M129.321 216.624C129.321 216.624 127.854 225.508 117.751 251.061L115.017 288.291C128.779 271.694 129.321 216.625 129.321 216.625V216.624Z" fill="#E33E23"/>
<path d="M120.816 147.401L130.161 150.525L131.397 149.666C127.534 148.94 123.957 148.204 120.818 147.399L120.816 147.401Z" fill="#9EAFCC"/>
<path d="M146.155 139.407C143.295 141.174 138.877 142.712 133.453 144.219L138.391 144.804L146.155 139.407Z" fill="#9EAFCC"/>
<path d="M133.454 144.219C129.668 145.272 125.394 146.31 120.816 147.401C123.957 148.204 127.534 148.942 131.396 149.667L138.392 144.804L133.454 144.219Z" fill="#9EAFCC"/>
<path d="M157.283 119.579L157.301 120.757C162.989 123.358 167.777 126.02 171.234 128.094L172.649 128.85C167.209 125.11 160.68 120.871 157.283 119.579Z" fill="#4C381A"/>
<path d="M157.299 120.757L157.282 119.579C156.71 119.361 156.226 119.226 155.852 119.192L156.17 116.718C154.671 115.668 153.176 114.629 151.718 113.629C150.968 113.115 150.406 112.39 150 111.502C148.548 111.206 147.133 111.017 145.787 110.942C147.063 112.63 147.927 114.747 148.513 117.115C151.619 118.267 154.563 119.504 157.299 120.757Z" fill="#4C381A"/>
<path d="M157.355 124.454C159.391 123.262 161.966 123.146 164.164 124.319L171.234 128.094C167.777 126.019 162.989 123.358 157.301 120.757L157.355 124.454Z" fill="#4C381A"/>
<path d="M148.515 117.115C149.306 120.314 149.589 123.974 149.688 127.664L151.322 127.967C152.813 128.244 154.331 127.634 155.215 126.402C155.801 125.588 156.534 124.933 157.354 124.454L157.3 120.757C154.563 119.506 151.619 118.268 148.514 117.115H148.515Z" fill="#4C381A"/>
<path d="M151.718 113.629C153.176 114.629 154.671 115.668 156.17 116.718L156.584 113.488C154.383 112.614 152.152 111.941 150 111.502C150.406 112.39 150.968 113.115 151.718 113.629V113.629Z" fill="#4C381A"/>
<path d="M174.044 129.594C170.316 126.849 163.818 122.1 157.253 117.479L157.284 119.579C160.679 120.871 167.208 125.11 172.65 128.85L174.044 129.594V129.594Z" fill="#4C381A"/>
<path d="M156.17 116.718L155.853 119.192C156.226 119.226 156.711 119.362 157.282 119.579L157.251 117.479C156.891 117.225 156.531 116.972 156.169 116.718H156.17Z" fill="#4C381A"/>
<path d="M157.197 113.737L157.253 117.479C163.818 122.102 170.316 126.849 174.044 129.594C172.265 122.729 164.99 116.976 157.197 113.737V113.737Z" fill="#4C381A"/>
<path d="M157.252 117.479L157.197 113.737C156.993 113.652 156.788 113.569 156.584 113.488L156.17 116.718C156.53 116.972 156.891 117.225 157.252 117.479Z" fill="#4C381A"/>
<path d="M97.2587 139.936C97.4755 133.634 97.5459 126.908 97.4609 120.284C95.0629 121.688 92.8481 123.082 90.8603 124.396L85.7524 127.93L79.9487 132.408L96.7519 101.581C96.2993 94.9126 95.6357 89.0386 94.7436 84.7231C93.6919 81.1211 92.8291 78.6865 92.8291 78.6865C78.0634 83.0854 47.7983 132.933 42.7709 145.918C38.1054 157.97 42.5703 184.798 56.9082 172.204C66.8339 163.485 81.5205 157.841 96.2963 153.602L97.2587 139.936V139.936Z" fill="#BED2FA"/>
<path d="M94.7432 84.7231C95.6353 89.04 96.2988 94.9126 96.7515 101.581L98.0142 99.2632C97.3052 94.1362 95.9077 88.7134 94.7432 84.7231Z" fill="#BED2FA"/>
<path d="M107.773 139.217C107.773 126.336 108.711 110.001 123.586 111.256C130.29 111.821 136.843 113.293 142.938 115.207L142.812 110.983C143.751 110.897 144.749 110.887 145.788 110.944C143.636 108.098 140.313 106.47 135.185 106.902C128.633 107.455 122.138 109.135 116.026 111.385C116.092 111.424 116.157 111.462 116.223 111.501C116.223 111.501 107.606 114.733 100.35 118.64C99.3608 119.188 98.397 119.737 97.4609 120.285C97.5459 126.908 97.4741 133.634 97.2588 139.938L108.34 141.249C107.97 140.616 107.773 139.94 107.773 139.218V139.217Z" fill="#BED2FA"/>
<path d="M97.2583 139.936L96.2959 153.602C96.3647 153.583 96.4321 153.562 96.501 153.543C96.8364 149.424 97.0913 144.808 97.2583 139.936V139.936Z" fill="#BED2FA"/>
<path d="M108.34 141.247L97.2583 139.936C97.0913 144.808 96.8364 149.424 96.501 153.543C104.865 151.149 113.253 149.204 120.814 147.402C114.45 145.773 109.876 143.874 108.338 141.249L108.34 141.247Z" fill="#BED2FA"/>
<path d="M149.743 134.608C149.743 132.355 149.751 130.003 149.688 127.664L143.275 126.471L142.938 115.205C136.842 113.292 130.288 111.82 123.586 111.254C108.711 109.999 107.773 126.335 107.773 139.215C107.773 139.939 107.97 140.613 108.34 141.246L131.598 143.998L146.155 139.406C148.452 137.988 149.744 136.422 149.744 134.607L149.743 134.608Z" fill="#BED2FA"/>
<path d="M131.597 144L108.34 141.247C109.878 143.872 114.45 145.772 120.816 147.401L131.597 144Z" fill="#BED2FA"/>
<path d="M131.598 144L133.454 144.219C138.876 142.71 143.296 141.172 146.155 139.407L131.598 144Z" fill="#BED2FA"/>
<path d="M120.816 147.401C125.394 146.31 129.668 145.272 133.454 144.219L131.598 144L120.816 147.401Z" fill="#BED2FA"/>
<path d="M142.812 110.982L142.938 115.205C144.844 115.803 146.706 116.444 148.514 117.115C147.928 114.747 147.063 112.63 145.788 110.942C144.749 110.885 143.751 110.897 142.812 110.982Z" fill="#BED2FA"/>
<path d="M149.688 127.664C149.588 123.974 149.304 120.314 148.515 117.115C146.707 116.444 144.845 115.804 142.939 115.205L143.276 126.471L149.689 127.664H149.688Z" fill="#BED2FA"/>
<path d="M90.4219 124.687C90.5669 124.59 90.7134 124.494 90.8599 124.396L90.8994 124.368C90.7368 124.475 90.5771 124.582 90.4219 124.686V124.687Z" fill="#9EAFCC"/>
<path d="M87.2964 126.829C86.3647 127.483 85.8052 127.892 85.7568 127.929C86.2432 127.576 86.7573 127.209 87.2964 126.829Z" fill="#9EAFCC"/>
<path d="M84.6084 127.762C81.9321 130.539 79.9473 132.41 79.9473 132.41C79.9473 132.41 82.0728 130.595 85.751 127.932C85.042 127.831 84.6128 127.763 84.6069 127.762H84.6084Z" fill="#9EAFCC"/>
<path d="M98.023 109.75C98.4624 109.353 98.8857 108.985 99.29 108.656V96.9224L98.0127 99.2646C98.5562 103.192 98.6968 106.946 98.0215 109.75H98.023Z" fill="#9EAFCC"/>
<path d="M87.2959 126.829C86.7568 127.208 86.2427 127.576 85.7563 127.929L85.752 127.932L90.8599 124.397C90.7119 124.495 90.5654 124.592 90.4219 124.688C89.165 125.528 88.0942 126.269 87.2959 126.829Z" fill="#9EAFCC"/>
<path d="M84.6079 127.762C84.0659 125.503 91.5337 115.901 97.2158 110.5C97.0986 107.421 96.9434 104.43 96.7515 101.582L79.9482 132.41C79.9482 132.41 81.9331 130.539 84.6094 127.762H84.6079Z" fill="#9EAFCC"/>
<path d="M79.9473 132.41L85.751 127.932C82.0728 130.596 79.9473 132.41 79.9473 132.41Z" fill="#9EAFCC"/>
<path d="M98.0234 109.75C98.6987 106.945 98.5581 103.192 98.0146 99.2646L96.752 101.582C96.9453 104.43 97.0991 107.422 97.2163 110.5C97.4902 110.241 97.7598 109.989 98.0234 109.75Z" fill="#9EAFCC"/>
<path d="M90.8994 124.369C92.8037 123.106 95.0815 121.655 97.4605 120.263C97.459 120.12 97.4561 119.978 97.4546 119.834L90.8994 124.369V124.369Z" fill="#4C381A"/>
<path d="M97.4551 119.834C97.4565 119.978 97.4595 120.12 97.4609 120.263C98.4087 119.709 99.3711 119.166 100.333 118.647C100.339 118.645 100.344 118.642 100.35 118.639C105.075 116.024 110.387 113.46 116.026 111.383C109.706 107.641 105.481 105.054 101.472 107.141C100.852 107.463 100.111 107.985 99.2905 108.656V118.565L97.4551 119.835V119.834Z" fill="#4C381A"/>
<path d="M116.224 111.5C116.158 111.461 116.093 111.423 116.027 111.385C110.388 113.462 105.075 116.025 100.351 118.64C107.607 114.735 116.224 111.5 116.224 111.5Z" fill="#4C381A"/>
<path d="M97.2646 111.849C94.6103 116.928 88.7715 123.442 84.6084 127.762C84.6143 127.762 85.042 127.831 85.7524 127.932L85.7568 127.929C85.8052 127.894 86.3647 127.483 87.2964 126.829C88.2588 126.15 89.3032 125.434 90.4224 124.688C90.5791 124.584 90.7388 124.478 90.8999 124.371L97.4551 119.835C97.417 117.142 97.354 114.468 97.2646 111.849Z" fill="#4C381A"/>
<path d="M97.2646 111.849C97.354 114.468 97.417 117.142 97.4551 119.835L99.2905 118.565V108.656C98.8862 108.987 98.4614 109.353 98.0234 109.75C97.8359 110.528 97.5869 111.234 97.2646 111.849V111.849Z" fill="#4C381A"/>
<path d="M90.4219 124.687C89.3027 125.433 88.2583 126.15 87.2959 126.827C88.0942 126.266 89.165 125.526 90.4219 124.687Z" fill="#4C381A"/>
<path d="M85.752 127.93L85.7565 127.927L85.752 127.93Z" fill="#4C381A"/>
<path d="M97.2644 111.849C97.2482 111.398 97.2321 110.948 97.216 110.5C91.5339 115.901 84.0647 125.503 84.6081 127.762C88.7712 123.442 94.6115 116.928 97.2644 111.849V111.849Z" fill="#4C381A"/>
<path d="M98.023 109.75C97.7593 109.989 97.4897 110.241 97.2158 110.5C97.2334 110.948 97.2495 111.398 97.2642 111.849C97.585 111.234 97.8355 110.528 98.023 109.75Z" fill="#4C381A"/>
<path d="M0 289L300 289L300 -11L0 -11L0 289Z" fill="url(#paint4_linear_1087_11652)"/>
<path d="M174.56 141.385H204.619C212.108 141.385 218.179 135.314 218.179 127.825C218.179 120.336 212.108 114.265 204.619 114.265H174.56C167.071 114.265 161 120.336 161 127.825C161 135.314 167.071 141.385 174.56 141.385Z" fill="white"/>
<path d="M200.323 114.265H224.241L217.663 124.096L200.323 114.265Z" fill="white"/>
<path d="M180.676 129.644C181.681 129.644 182.495 128.83 182.495 127.825C182.495 126.82 181.681 126.006 180.676 126.006C179.671 126.006 178.856 126.82 178.856 127.825C178.856 128.83 179.671 129.644 180.676 129.644Z" fill="#4C4C4C"/>
<path d="M189.613 129.644C190.618 129.644 191.433 128.83 191.433 127.825C191.433 126.82 190.618 126.006 189.613 126.006C188.608 126.006 187.794 126.82 187.794 127.825C187.794 128.83 188.608 129.644 189.613 129.644Z" fill="#4C4C4C"/>
<path d="M198.504 129.644C199.509 129.644 200.323 128.83 200.323 127.825C200.323 126.82 199.509 126.006 198.504 126.006C197.499 126.006 196.685 126.82 196.685 127.825C196.685 128.83 197.499 129.644 198.504 129.644Z" fill="#4C4C4C"/>
<path d="M238.337 199.375C238.187 204.31 224.358 202.652 224.358 207.7H245.588C245.588 204.611 244.78 203.572 244.518 199.4L238.339 199.375H238.337Z" fill="white"/>
<path d="M254.784 198.643C254.327 203.153 253.612 202.207 252.906 207.699H263.819C263.819 207.699 263.859 205.633 262.318 203.357C261.073 201.517 260.686 200.347 260.355 198.643" fill="white"/>
<path d="M262.348 199.384H252.456L249.368 117.546L250.243 109.619L264.724 109.594L262.348 199.384Z" fill="#272727"/>
<path d="M238.323 199.331L248.125 199.399L251.891 117.321L249.222 109.52L239.007 109.736L238.323 199.331Z" fill="#272727"/>
<path d="M263.625 76.0238C260.584 74.6732 258.526 74.2206 255.229 72.2738H249.411C249.411 72.2738 245.505 75.8846 242.894 76.6009C242.894 76.6009 239.287 79.8939 239.212 84.1874C239.138 88.4808 238.353 130.194 238.353 130.194L265.426 132.184C265.426 132.184 265.174 108.58 265.416 98.4271C265.459 96.6049 263.623 76.0223 263.623 76.0223L263.625 76.0238Z" fill="#FAC734"/>
<path d="M235.462 95.014C235.462 95.014 233.643 106.762 233.678 108.792C233.713 110.823 236.248 110.59 236.248 110.59L239.456 101.524V96.3251L235.462 95.0126V95.014Z" fill="#D1B797"/>
<path d="M239.849 96.3265H234.607C234.607 96.3265 236.157 85.3915 236.717 82.8602C237.276 80.3275 240.58 76.8353 243.246 76.6024C245.912 76.368 239.847 96.328 239.847 96.328L239.849 96.3265Z" fill="#FAC734"/>
<path d="M248.268 74.9237C247.567 75.6444 246.494 76.1102 245.862 75.2474C244.306 73.1321 239.576 66.8011 241.562 64.6785C244.203 61.8558 247.726 60.0716 249.928 61.1439C250.981 61.6566 252.199 64.5569 252.33 66.1946C252.462 67.8323 253.362 70.7254 255.229 72.2723C256.813 74.6819 250.811 80.1312 250.058 80.1282C248.718 80.1224 249.13 77.6541 249.13 77.6541C249.13 77.6541 250.104 73.7064 249.279 73.888C249.279 73.888 248.498 74.7112 248.268 74.9222V74.9237Z" fill="#ECD0A8"/>
<path d="M252.941 67.9042C252.524 68.8754 250.388 70.8339 250.817 66.7206C251.122 63.8056 247.81 65.2265 248.722 66.9052C249.635 68.5853 246.95 68.8168 246.481 65.5106C246.283 64.1088 243.518 67.8544 241.895 68.1151C241.895 68.1151 240.594 65.8944 241.757 64.5775C242.485 63.7528 243.633 62.5106 244.984 61.6215C246.409 60.684 248.062 60.1405 249.688 60.892C252.858 62.3583 252.94 67.9027 252.94 67.9027L252.941 67.9042Z" fill="#4C381A"/>
<path d="M252.941 67.9041C253.886 67.4632 254.577 66.0994 253.659 65.3817C252.878 64.7723 253.077 63.807 253.442 63.3939C254.032 62.723 253.2 61.223 252.169 61.3167C251.413 61.387 251.078 59.4534 250.561 58.8866C249.639 57.8758 248.492 57.7103 247.416 58.4881C246.395 59.2264 245.812 58.9715 245.138 58.8836C244.464 58.7957 242.353 59.471 242.383 60.1903C242.41 60.9095 241.731 61.1424 240.339 61.7298C238.947 62.3172 238.521 63.5609 238.725 64.4222C238.928 65.2835 239.768 65.1839 240.037 65.9149C240.253 66.4964 240.159 67.5409 240.401 67.7694C240.926 68.263 241.515 68.3509 241.896 68.118C242.276 67.8851 246.685 62.0316 246.685 62.0316L249.658 63.9491L251.632 65.3905L252.943 67.9071L252.941 67.9041Z" fill="#4C381A"/>
<path d="M262.737 96.35L261.358 86.6967L260.585 96.1288L260.83 109.953L265.728 109.594" fill="#C69A2C"/>
<path d="M239.455 96.3265L239.209 85.431L237.899 96.3265H239.455Z" fill="#C69A2C"/>
<path d="M247.9 93.2709C247.9 93.2709 247.197 87.9726 246.694 87.3441C246.192 86.7157 241.421 86.4403 240.918 86.9926C240.416 87.5448 242.224 96.5859 242.676 96.8861C243.129 97.1879 247.824 97.7152 248.15 97.3388C248.477 96.9623 247.9 93.2709 247.9 93.2709V93.2709Z" fill="#272727"/>
<path d="M270.099 96.0717C270.6 99.9242 270.701 109.393 270.45 110.698C270.2 112.003 268.039 114.264 266.984 114.264C266.179 114.264 254.856 105.769 248.577 101.168C246.636 99.7455 244.161 99.3134 243.925 98.83C242.927 96.785 241.672 91.264 243.228 91.1117C244.785 90.9593 247.899 93.2694 247.899 93.2694L247.54 90.8773C247.54 90.8773 249.707 92.6161 249.707 93.4203C249.707 94.2245 250.259 96.785 250.259 97.1864C250.259 97.5878 263.508 104.404 263.508 104.404L262.735 96.347L270.097 96.0687L270.099 96.0717Z" fill="#ECD0A8"/>
<path d="M240.832 96.536C240.832 96.536 234.698 103.703 234.139 105.016C232.916 107.881 234.025 115.049 237.076 113.052C238.459 112.147 244.21 96.5741 244.21 96.5741C244.21 96.5741 244.473 92.4301 243.608 91.7152C242.742 91.0004 242.176 89.8944 241.235 90.8803L241.016 89.4872C241.016 89.4872 239.878 91.4896 240.029 92.3568C240.18 93.224 240.833 96.5375 240.833 96.5375L240.832 96.536Z" fill="#ECD0A8"/>
<path d="M249.279 73.8895C250.339 73.0956 251.318 72.1625 251.416 71.972C251.514 71.7816 250.254 76.2904 249.128 77.6556C249.128 77.6556 249.54 74.3436 249.386 74.0199C249.292 73.8221 249.279 73.8895 249.279 73.8895V73.8895Z" fill="#D1B797"/>
<path d="M261.841 96.3836L271.737 96.0101C271.737 96.0101 270.989 84.889 270.429 82.5833C270.118 81.303 267.567 77.2337 263.557 75.9857C260.827 75.1361 259.327 79.8206 258.671 83.471C258.01 87.1463 259.106 83.4344 262.263 85.431L261.346 86.4622L261.839 96.3821L261.841 96.3836Z" fill="#FAC734"/>
</g>
<defs>
<linearGradient id="paint0_linear_1087_11652" x1="0" y1="-11" x2="300" y2="289" gradientUnits="userSpaceOnUse">
<stop stop-color="#838FFF"/>
<stop offset="1" stop-color="#6170FF"/>
</linearGradient>
<linearGradient id="paint1_linear_1087_11652" x1="18.7031" y1="-25.0262" x2="318.704" y2="274.975" gradientUnits="userSpaceOnUse">
<stop stop-color="#838FFF"/>
<stop offset="1" stop-color="#6170FF"/>
</linearGradient>
<linearGradient id="paint2_linear_1087_11652" x1="2.88032" y1="-9.20109" x2="302.88" y2="290.799" gradientUnits="userSpaceOnUse">
<stop stop-color="#838FFF"/>
<stop offset="1" stop-color="#6170FF"/>
</linearGradient>
<linearGradient id="paint3_linear_1087_11652" x1="-17.2451" y1="10.9242" x2="282.755" y2="310.924" gradientUnits="userSpaceOnUse">
<stop stop-color="#838FFF"/>
<stop offset="1" stop-color="#6170FF"/>
</linearGradient>
<linearGradient id="paint4_linear_1087_11652" x1="150" y1="-11" x2="150" y2="289" gradientUnits="userSpaceOnUse">
<stop stop-color="#838FFF" stop-opacity="0"/>
<stop offset="0.66" stop-color="#6271FF" stop-opacity="0.97"/>
<stop offset="1" stop-color="#6170FF"/>
</linearGradient>
<clipPath id="clip0_1087_11652">
<rect width="300" height="225" fill="white"/>
</clipPath>
</defs>
</svg>
