<svg width="100%" height="100%" viewBox="0 0 300 225" fill="none" preserveAspectRatio="xMidYMid meet" xmlns="http://www.w3.org/2000/svg">
<g clip-path="url(#clip0_1080_10890)">
<rect width="300" height="225" fill="#707DFF"/>
<path d="M299.376 -74H0V225.023H299.376V-74Z" fill="url(#paint0_linear_1080_10890)"/>
<path d="M42.3203 175.908H107.252C106.637 166.84 90.6335 171.759 90.6335 171.759C90.3254 160.539 51.1671 156.141 50.4745 173.603C50.4745 173.603 42.3203 168.842 42.3203 175.908Z" fill="#99A3FF"/>
<path d="M88.54 175.195H32.9925C32.828 175.195 32.6934 175.061 32.6934 174.897C32.6934 173.292 33.172 172.204 34.1145 171.663C35.8572 170.665 38.6426 171.899 39.6987 172.44C40.3285 165.14 48.6576 162.567 56.3601 162.619C64.8194 162.67 74.0192 165.861 74.5951 170.958C76.284 170.486 83.2983 168.735 86.8301 171.161C88.0523 171.999 88.727 173.251 88.8376 174.879C88.8436 174.961 88.8137 175.043 88.7584 175.103C88.7015 175.164 88.6222 175.197 88.54 175.197V175.195ZM33.2977 174.598H88.2109C88.0523 173.317 87.4749 172.327 86.4921 171.651C82.7807 169.102 74.4949 171.606 74.4126 171.632C74.3229 171.659 74.2257 171.644 74.1509 171.588C74.0761 171.533 74.0282 171.447 74.0267 171.354C73.8951 166.549 64.785 163.266 56.3586 163.215C56.2913 163.215 56.2224 163.215 56.1551 163.215C48.6217 163.215 40.5528 165.763 40.2686 172.936C40.2641 173.041 40.2058 173.136 40.113 173.186C40.0203 173.237 39.9096 173.235 39.8184 173.181C39.7825 173.16 36.2506 171.125 34.4122 172.18C33.724 172.575 33.3501 173.387 33.2977 174.596V174.598Z" fill="#99A3FF"/>
<path d="M250.918 45.7236H185.986C186.601 36.6556 202.604 41.5743 202.604 41.5743C202.913 30.3548 242.071 25.9561 242.763 43.4181C242.763 43.4181 250.918 38.6578 250.918 45.7236Z" fill="#99A3FF"/>
<path d="M260.247 45.0109H204.7C204.618 45.0109 204.538 44.9765 204.481 44.9168C204.425 44.857 204.396 44.7748 204.402 44.6927C204.513 43.064 205.187 41.8135 206.41 40.9752C209.941 38.5503 216.956 40.2999 218.645 40.772C219.221 35.6755 228.42 32.4855 236.88 32.4332C244.584 32.3869 252.911 34.9539 253.541 42.2542C254.597 41.7133 257.384 40.4792 259.125 41.4773C260.069 42.0181 260.546 43.1059 260.546 44.7106C260.546 44.8749 260.412 45.0094 260.247 45.0094V45.0109ZM205.029 44.4132H259.942C259.89 43.2045 259.516 42.3917 258.828 41.9972C256.989 40.9424 253.457 42.9774 253.421 42.9983C253.33 43.0506 253.219 43.0521 253.127 43.0028C253.034 42.952 252.976 42.8579 252.971 42.7533C252.687 35.5814 244.618 33.0324 237.085 33.0324C237.016 33.0324 236.949 33.0324 236.881 33.0324C228.455 33.0832 219.345 36.3658 219.213 41.171C219.21 41.2636 219.164 41.3518 219.089 41.4055C219.013 41.4608 218.915 41.4758 218.827 41.4489C218.743 41.4235 210.455 38.9208 206.746 41.4683C205.763 42.1437 205.186 43.1343 205.027 44.4147L205.029 44.4132Z" fill="#99A3FF"/>
<path d="M169.894 116.204C158.941 116.204 148.983 115.046 139.451 112.664C130.949 110.539 122.977 107.481 115.082 103.314C100.414 95.571 88.1956 85.0299 76.3795 74.8354C54.8384 56.2512 32.5644 37.0336 -6 32.8395L-5.93568 32.2449C3.37334 33.2579 11.9434 35.1271 20.2666 37.9585C27.6743 40.4791 34.7081 43.7109 41.7702 47.8347C54.8699 55.4862 66.0039 65.0921 76.7714 74.3811C101.343 95.58 124.552 115.603 169.896 115.603C199.602 115.603 221.315 105.437 242.314 95.6039C261.062 86.8258 278.771 78.5348 300.396 78.5348V79.1325C278.904 79.1325 261.255 87.3966 242.568 96.1448C221.511 106.005 199.735 116.199 169.897 116.199L169.894 116.204Z" fill="#99A3FF"/>
<path d="M166.384 126.087C150.298 126.087 133.197 123.733 114.099 118.889C97.237 114.611 80.9616 108.984 65.2217 103.542C40.0097 94.8255 16.1964 86.5913 -5.9834 85.372L-5.95049 84.7759C16.3131 86.0011 40.1653 94.2472 65.4176 102.979C97.43 114.048 130.531 125.493 166.385 125.493C198.956 125.493 222.891 118.464 244.009 112.264C264.298 106.306 281.823 101.161 300.453 104.917L300.334 105.503C281.848 101.775 264.391 106.901 244.177 112.836C223.02 119.048 199.041 126.089 166.384 126.089V126.087Z" fill="#99A3FF"/>
<path d="M87.3486 100.977C89.8154 102.419 92.2687 103.713 94.5095 104.554C106.671 109.118 109.065 105.435 120.547 111.179C128.152 114.983 139.254 124.191 146.621 119.435C153.988 124.191 165.088 114.983 172.694 111.179C184.177 105.435 186.57 109.12 198.732 104.554C206.228 101.74 216.091 93.8632 220.933 92.3482C225.775 90.8331 225.455 94.1725 228.321 93.3493C231.187 92.526 235.285 87.6865 242.697 85.8113C250.108 83.9362 227.356 86.6884 223.898 87.4773C220.439 88.2662 190.17 97.0428 186.514 97.5373C182.858 98.0304 146.622 104.554 146.622 104.554C146.622 104.554 110.387 98.0319 106.731 97.5373C105.135 97.3222 98.4692 95.5292 91.1752 93.5106" fill="white"/>
<path d="M195.285 104.047C189.793 105.544 182.296 104.534 176.86 105.098C171.423 105.661 153.574 113.858 146.635 113.499V119.434C154.002 124.19 165.102 114.981 172.708 111.177C184.191 105.434 186.584 109.118 198.746 104.552C203.923 102.608 210.229 98.25 215.231 95.2408C215.231 95.2408 202.71 102.023 195.286 104.046L195.285 104.047Z" fill="#E5E5E5"/>
<path d="M97.9942 104.047C103.486 105.544 110.983 104.534 116.419 105.098C121.855 105.661 139.705 113.858 146.644 113.499V119.434C139.277 124.19 128.177 114.981 120.57 111.177C109.088 105.434 106.694 109.118 94.5327 104.552C89.3554 102.608 83.0502 98.25 78.0479 95.2408C78.0479 95.2408 90.5686 102.023 97.9928 104.046L97.9942 104.047Z" fill="#E5E5E5"/>
<path d="M142.47 84.6161C142.47 84.6161 144.518 86.158 146.621 86.1072V92.4275L141.492 90.6659L141.35 84.6161H142.47Z" fill="#E7B89D"/>
<path d="M150.771 84.6161C150.771 84.6161 148.723 86.158 146.62 86.1072V92.4275L151.75 90.6659L151.892 84.6161H150.771Z" fill="#E7B89D"/>
<path d="M142.47 88.713C143.716 89.0716 145.082 83.237 145.082 83.237C145.082 83.237 143.245 82.5078 142.697 80.2995C141.62 75.962 141.35 70.74 146.621 70.74V93.7453L142.518 94.3041L141.35 89.6976L142.47 88.7115V88.713Z" fill="#E7B89D"/>
<path d="M150.771 88.713C149.525 89.0716 148.159 83.237 148.159 83.237C148.159 83.237 149.996 82.5078 150.544 80.2995C151.621 75.962 151.892 70.74 146.62 70.74V93.7453L150.723 94.3041L151.892 89.6976L150.771 88.7115V88.713Z" fill="#E7B89D"/>
<path d="M87.3489 100.977C81.5642 97.5986 75.7033 93.409 72.309 92.3482C67.4668 90.8331 67.7869 94.1725 64.9208 93.3493C62.0546 92.526 57.9573 87.6865 50.5451 85.8113C43.1344 83.9362 65.8856 86.6884 69.3442 87.4773C71.2933 87.9225 81.7572 90.9034 91.1739 93.5091L87.3489 100.975V100.977Z" fill="#E7B89D"/>
<path d="M205.89 100.977C211.675 97.5986 217.536 93.409 220.93 92.3482C225.773 90.8331 225.452 94.1725 228.319 93.3493C231.185 92.526 235.282 87.6865 242.694 85.8113C250.105 83.9362 227.354 86.6884 223.895 87.4773C221.946 87.9225 211.482 90.9034 202.065 93.5091L205.89 100.975V100.977Z" fill="#E7B89D"/>
<path d="M150.771 84.616C150.771 84.616 152.648 89.5511 146.62 89.6497C140.591 89.5511 142.47 84.616 142.47 84.616C142.47 84.616 137.988 81.7323 133.417 79.4911L138.336 103.127L146.62 104.554L156.607 103.127L159.823 79.4911C155.253 81.7338 150.769 84.616 150.769 84.616H150.771Z" fill="#F44A24"/>
<path d="M138.808 -42.9104H135.816V145.962H138.808V-42.9104Z" fill="#272727"/>
<path d="M157.733 -43H154.741V145.873H157.733V-43Z" fill="#272727"/>
<path d="M162.88 78.3452C164.732 78.5827 166.735 84.8073 166.331 92.0225C165.579 105.495 160.72 129.346 160.051 134.214C156.527 159.876 160.686 158.338 157.921 161.177C156.723 162.408 148.935 161.569 148.935 161.569C148.935 161.569 146.685 155.896 151.339 155.766C152.753 155.727 152.25 138.372 152.753 128.212C153.006 123.102 154.344 97.1205 154.892 90.8377C155.441 84.5548 154.884 77.3187 162.879 78.3467L162.88 78.3452Z" fill="#E7B89D"/>
<path d="M141.9 155.764C141.25 155.746 141.004 152.048 140.882 147.071L140.838 145.052C140.738 139.581 140.728 133.072 140.487 128.209C140.234 123.099 138.895 97.1175 138.348 90.8346C137.8 84.5518 138.355 77.3156 130.361 78.3436C128.509 78.5812 126.506 84.8058 126.91 92.021C127.662 105.494 132.521 129.345 133.19 134.213C133.785 138.544 134.161 142.1 134.388 145.033L134.521 146.938C135.288 159.425 133.128 158.926 135.32 161.176C136.518 162.407 144.306 161.567 144.306 161.567C144.306 161.567 146.556 155.894 141.902 155.764H141.9Z" fill="#E7B89D"/>
<path d="M134.321 158.639C132.294 157.497 130.921 155.328 130.921 152.843C130.921 150.358 132.384 148.045 134.52 146.938L134.387 145.026L134.289 145.066C131.257 146.349 129.124 149.353 129.124 152.843C129.124 156.623 131.625 159.831 135.061 160.904C134.372 160.134 134.253 159.659 134.319 158.64L134.321 158.639Z" fill="#272727"/>
<path d="M140.838 145.054L140.882 147.073C142.883 148.22 144.234 150.378 144.234 152.843C144.234 154.672 143.506 156.377 142.183 157.642C142.188 158.338 143.028 158.843 143.425 158.936C145.103 157.328 146.028 155.165 146.028 152.841C146.028 149.341 143.883 146.33 140.837 145.054H140.838Z" fill="#272727"/>
<path d="M158.921 158.639C160.948 157.497 162.321 155.328 162.321 152.843C162.321 150.278 160.858 148.045 158.722 146.938L158.855 145.026L158.953 145.066C161.985 146.349 164.118 149.353 164.118 152.843C164.118 156.623 161.617 159.831 158.181 160.904C158.87 160.134 158.988 159.659 158.923 158.64L158.921 158.639Z" fill="#272727"/>
<path d="M152.403 145.054L152.36 147.073C150.358 148.22 149.007 150.378 149.007 152.843C149.007 154.672 149.736 156.377 151.058 157.642C151.054 158.338 150.213 158.843 149.817 158.936C148.138 157.328 147.214 155.165 147.214 152.841C147.214 149.341 149.359 146.33 152.405 145.054H152.403Z" fill="#272727"/>
<path d="M103.685 59.2022C108.681 59.2022 112.731 55.1571 112.731 50.1671C112.731 45.1772 108.681 41.1321 103.685 41.1321C98.6896 41.1321 94.6396 45.1772 94.6396 50.1671C94.6396 55.1571 98.6896 59.2022 103.685 59.2022Z" fill="#99A3FF"/>
<path d="M143.44 199.393H244.876C243.914 188.962 229.253 194.621 229.253 194.621C229.253 177.374 182.44 179.123 182.44 195.033C182.44 183.425 156.183 190.379 156.183 196.742C156.183 191.761 143.443 192.768 143.443 199.394L143.44 199.393Z" fill="#99A3FF"/>
<path d="M200.088 137.834H251.556C251.556 137.834 251.082 134.036 248.442 134.036C245.801 134.036 244.582 135.935 244.582 135.935C244.582 135.935 241.806 125.789 228.465 125.789C215.125 125.789 213.295 135.772 213.295 135.772C213.295 135.772 212.28 131.811 207.533 131.811C201.235 131.811 200.089 137.834 200.089 137.834" fill="#99A3FF"/>
<path d="M133.867 140.177L140.651 140.241C141.113 140.246 141.49 140.616 141.499 141.078L141.729 151.706C141.74 152.189 141.348 152.585 140.865 152.58L134.531 152.516C134.082 152.511 133.713 152.162 133.684 151.715L133.004 141.086C132.972 140.59 133.369 140.171 133.867 140.176V140.177Z" fill="white"/>
<path d="M159.086 140.177L152.302 140.241C151.84 140.246 151.463 140.616 151.454 141.078L151.224 151.706C151.213 152.189 151.605 152.585 152.088 152.58L158.422 152.516C158.871 152.511 159.24 152.162 159.269 151.715L159.949 141.086C159.981 140.59 159.584 140.171 159.086 140.176V140.177Z" fill="white"/>
<path d="M139.158 93.9828C141.273 96.1344 144.35 97.6718 144.35 97.6718C144.35 97.6718 141.043 97.4029 139.158 96.9412V93.9828Z" fill="#E53E23"/>
<path d="M154.029 93.9828C151.914 96.1344 148.837 97.6718 148.837 97.6718C148.837 97.6718 152.144 97.4029 154.029 96.9412V93.9828Z" fill="#E53E23"/>
<path d="M145.082 83.2384C146.226 83.6583 147.13 83.7315 148.159 83.2384C149.188 82.7454 145.082 83.2384 145.082 83.2384Z" fill="#E7B89D"/>
<path d="M145.082 83.2384C145.495 83.5612 147.311 83.7644 148.159 83.2384L148.325 83.8929C148.325 83.8929 147.433 85.1151 144.742 84.5249L145.082 83.2369V83.2384Z" fill="#CCA28D"/>
<path d="M146.704 73.9151C145.17 73.9151 144.826 73.1979 143.775 72.9155C142.723 72.6331 142.723 76.7569 142.065 75.7842C142.065 75.7842 141.775 75.451 141.466 75.0162C141.158 74.5814 141.929 73.2995 141.902 72.7362C141.875 72.1729 141.876 71.251 142.44 70.9178C143.004 70.5846 143.686 70.0901 143.984 69.6881C144.523 68.962 146.237 69.9123 146.702 69.8734V73.9136" fill="#4C381A"/>
<path d="M146.703 73.9151C148.236 73.9151 148.58 73.1979 149.632 72.9155C150.684 72.6331 150.684 76.7569 151.342 75.7842C151.342 75.7842 151.632 75.451 151.94 75.0162C152.248 74.5814 151.478 73.2995 151.505 72.7362C151.532 72.1729 151.53 71.251 150.966 70.9178C150.402 70.5846 149.72 70.0901 149.423 69.6881C148.884 68.962 147.17 69.9123 146.705 69.8734V73.9136" fill="#4C381A"/>
</g>
<defs>
<linearGradient id="paint0_linear_1080_10890" x1="0" y1="-74" x2="299.023" y2="225.376" gradientUnits="userSpaceOnUse">
<stop stop-color="#8591FF"/>
<stop offset="1" stop-color="#6170FF"/>
</linearGradient>
<clipPath id="clip0_1080_10890">
<rect width="300" height="225" fill="white"/>
</clipPath>
</defs>
</svg>
