<svg width="100%" height="100%" viewBox="0 0 300 225" fill="none" preserveAspectRatio="xMidYMid meet" xmlns="http://www.w3.org/2000/svg">
<g clip-path="url(#clip0_1081_11535)">
<path d="M300 -38H0V262.427H300V-38Z" fill="url(#paint0_linear_1081_11535)"/>
<path d="M191.037 37.363H242.371C242.371 37.363 241.898 33.5649 239.265 33.5649C236.632 33.5649 235.416 35.464 235.416 35.464C235.416 35.464 232.646 25.3173 219.341 25.3173C206.035 25.3173 204.21 35.3011 204.21 35.3011C204.21 35.3011 203.197 31.3401 198.463 31.3401C192.181 31.3401 191.039 37.363 191.039 37.363" fill="#99A3FF"/>
<path d="M82.9072 27.5032H147.67C147.056 18.4353 131.095 23.354 131.095 23.354C130.787 12.1345 91.731 7.73575 91.0402 25.1978C91.0402 25.1978 82.9072 20.4374 82.9072 27.5032V27.5032Z" fill="#99A3FF"/>
<path d="M129.005 26.789H73.6021C73.438 26.789 73.3037 26.6545 73.3037 26.4902C73.3037 24.8854 73.7812 23.7977 74.7211 23.2568C76.4593 22.2587 79.2375 23.4929 80.2908 24.0338C80.913 16.7992 89.0758 14.2113 96.703 14.2113C96.7716 14.2113 96.8403 14.2113 96.9089 14.2113C105.346 14.2621 114.524 17.4536 115.097 22.5501C116.78 22.078 123.777 20.3268 127.3 22.7533C128.519 23.5915 129.192 24.8436 129.302 26.4707C129.308 26.5529 129.278 26.6351 129.223 26.6948C129.166 26.7561 129.087 26.789 129.005 26.789V26.789ZM73.9065 26.1913H128.677C128.519 24.9108 127.943 23.9202 126.963 23.2449C123.264 20.6974 114.997 23.2001 114.913 23.2255C114.824 23.2523 114.727 23.2374 114.652 23.1821C114.577 23.1268 114.53 23.0402 114.528 22.9475C114.397 18.1424 105.31 14.8598 96.9059 14.809C89.3354 14.7701 81.1443 17.2922 80.8578 24.5298C80.8533 24.6344 80.7951 24.7301 80.7026 24.7794C80.6101 24.8302 80.4997 24.8287 80.4087 24.7749C80.3729 24.754 76.8502 22.7204 75.0165 23.7738C74.3302 24.1683 73.9572 24.9811 73.905 26.1898L73.9065 26.1913Z" fill="#99A3FF"/>
<path d="M153.5 112.245H62.317C62.2021 112.245 62.0887 112.212 61.9917 112.148L0.271539 71.9629C-0.00448388 71.7836 -0.0835607 71.4131 0.0969731 71.1367C0.276015 70.8603 0.646035 70.7811 0.922057 70.9619L62.493 111.051H153.5C153.83 111.051 154.097 111.319 154.097 111.649C154.097 111.979 153.83 112.246 153.5 112.246V112.245Z" fill="#99A3FF"/>
<path d="M153.5 124.255H65.6828C65.6515 124.255 65.6216 124.25 65.5918 124.241L0.505624 103.383C0.348963 103.332 0.262426 103.165 0.311662 103.008C0.362391 102.851 0.529497 102.765 0.686158 102.814L65.7276 123.657H153.498C153.662 123.657 153.797 123.792 153.797 123.956C153.797 124.12 153.662 124.255 153.498 124.255H153.5Z" fill="#99A3FF"/>
<path d="M153.5 135.912H66.3243C66.3139 135.912 66.3019 135.912 66.2915 135.911L0.563735 128.701C0.399614 128.684 0.281745 128.536 0.299649 128.371C0.317553 128.207 0.465262 128.09 0.629384 128.107L66.3422 135.313H153.501C153.665 135.313 153.8 135.447 153.8 135.612C153.8 135.776 153.665 135.911 153.501 135.911L153.5 135.912Z" fill="#99A3FF"/>
<path d="M0.597277 180.422C0.47344 180.422 0.358555 180.345 0.315286 180.222C0.261574 180.067 0.343635 179.897 0.498804 179.841L69.1419 155.966C69.1733 155.956 69.2061 155.95 69.2404 155.95H153.5C153.665 155.95 153.799 156.084 153.799 156.249C153.799 156.413 153.665 156.548 153.5 156.548H69.2896L0.69575 180.406C0.662926 180.418 0.630102 180.422 0.597277 180.422Z" fill="#99A3FF"/>
<path d="M0.59656 155.062C0.445866 155.062 0.317553 154.949 0.299649 154.797C0.281745 154.632 0.399614 154.484 0.563735 154.466L68.4877 146.972C68.4982 146.972 68.5101 146.97 68.5205 146.97H153.258C153.422 146.97 153.556 147.105 153.556 147.269C153.556 147.433 153.422 147.568 153.258 147.568H68.537L0.629384 155.061C0.61894 155.061 0.607004 155.062 0.59656 155.062V155.062Z" fill="#99A3FF"/>
<path d="M244.683 112.245H153.5C153.17 112.245 152.903 111.977 152.903 111.647C152.903 111.317 153.17 111.05 153.5 111.05H244.507L306.078 70.9603C306.354 70.781 306.724 70.8587 306.903 71.1352C307.082 71.4116 307.005 71.7821 306.729 71.9614L245.008 112.148C244.911 112.211 244.798 112.245 244.683 112.245V112.245Z" fill="#99A3FF"/>
<path d="M241.317 124.255H153.5C153.335 124.255 153.201 124.12 153.201 123.956C153.201 123.792 153.335 123.657 153.5 123.657H241.27L306.312 102.814C306.468 102.763 306.637 102.85 306.686 103.008C306.737 103.165 306.65 103.334 306.492 103.383L241.406 124.24C241.376 124.249 241.346 124.253 241.315 124.253L241.317 124.255Z" fill="#99A3FF"/>
<path d="M240.675 135.912H153.5C153.335 135.912 153.201 135.778 153.201 135.613C153.201 135.449 153.335 135.314 153.5 135.314H240.659L306.371 128.108C306.534 128.09 306.682 128.208 306.701 128.373C306.719 128.537 306.601 128.685 306.437 128.703L240.709 135.911C240.699 135.911 240.687 135.912 240.677 135.912H240.675Z" fill="#99A3FF"/>
<path d="M306.403 180.422C306.37 180.422 306.337 180.417 306.304 180.406L237.709 156.548H153.5C153.335 156.548 153.201 156.413 153.201 156.249C153.201 156.084 153.335 155.95 153.5 155.95H237.76C237.792 155.95 237.827 155.956 237.858 155.966L306.501 179.841C306.656 179.895 306.74 180.065 306.685 180.222C306.641 180.346 306.527 180.422 306.403 180.422V180.422Z" fill="#99A3FF"/>
<path d="M306.403 155.062C306.393 155.062 306.381 155.062 306.37 155.061L238.463 147.568H153.742C153.578 147.568 153.443 147.433 153.443 147.269C153.443 147.105 153.578 146.97 153.742 146.97H238.479C238.49 146.97 238.502 146.97 238.512 146.972L306.436 154.466C306.6 154.484 306.718 154.632 306.7 154.797C306.684 154.949 306.554 155.062 306.403 155.062V155.062Z" fill="#99A3FF"/>
<path d="M71.2567 152.407L67.9728 103.775H59.625L66.4674 152.407H71.2567Z" fill="#99A3FF"/>
<path d="M237.327 152.407L240.613 103.775H248.959L242.117 152.407H237.327Z" fill="#99A3FF"/>
<path d="M122.889 108.861C122.889 108.861 129.913 116.557 130.431 120.744C130.761 123.406 141.32 172.998 141.32 172.998L132.976 173.563C132.976 173.563 122.155 146.788 121.339 137.323C120.042 122.268 111.811 118.54 111.811 118.54L122.886 108.861H122.889Z" fill="#4C381A"/>
<path d="M186.325 71.927C174.777 72.9609 167.46 73.8111 164.954 73.6378C164.508 73.6064 162.972 73.5078 162.397 73.4211C154.616 72.2602 135.152 66.9321 135.152 66.9321L135.6 63.125C135.6 63.125 153.018 64.9344 157.333 65.8832C161.648 66.832 164.815 67.2145 166.817 66.9112C169.021 66.578 183.562 65.16 183.562 65.16L186.325 71.9285V71.927Z" fill="#F4E8CB"/>
<path d="M67.6768 185.095L85.6481 136.484L84.3649 121.861H100.052V136.09L77.7553 185.095H67.6768Z" fill="#4C381A"/>
<path d="M224.516 118.32C229.324 126.32 240.043 152.4 258.198 185.247L248.919 185.74C246.539 180.863 231.697 167.444 226.748 152.029C224.04 143.595 206.789 127.693 206.789 127.693L224.516 118.319V118.32Z" fill="#F4E8CB"/>
<path d="M248.919 185.74C252.213 193.419 251.118 204.411 251.118 204.411H274.58C274.58 204.411 272.066 200.245 267.398 198.088C262.729 195.93 258.198 185.247 258.198 185.247L248.919 185.74V185.74Z" fill="#272727"/>
<path d="M84.797 122.359H103.216L102.668 114.129L110.146 121.618L124.301 109.358L103.301 86.5054L102.634 83.8398L87.05 84.8469C87.05 84.8469 84.706 94.4721 84.336 105.681C83.966 116.892 84.7985 122.357 84.7985 122.357L84.797 122.359Z" fill="#F44A24"/>
<path d="M86.8622 85.449C86.8622 85.449 85.9028 73.7633 87.2038 70.8288C87.2038 70.8288 91.4143 68.5981 92.0216 68.4561C92.0216 68.4561 93.2197 71.6207 95.5606 71.044C97.5599 70.5509 97.0243 66.7289 97.0243 66.7289C97.0243 66.7289 99.9188 65.7981 100.872 65.94C101.826 66.082 103.771 73.1896 103.901 75.4144C104.031 77.6391 102.633 83.8398 102.633 83.8398C102.633 83.8398 100.346 86.0168 95.1429 86.0646C89.9402 86.1124 86.8622 85.449 86.8622 85.449V85.449Z" fill="#0E5DF9"/>
<path d="M166.5 115.378C166.5 115.378 189.793 90.4425 188.985 89.4533C188.176 88.4642 188.357 85.7673 188.357 85.7673C190.511 85.0486 205.055 83.6097 205.055 83.6097C213.134 97.4544 224.517 118.32 224.517 118.32L204.649 132.277C202.708 128.843 195.493 118.547 195.493 118.547C194.684 120.884 185.058 131.098 185.058 131.098L172.32 121.57" fill="#F44A24"/>
<path d="M101.361 65.9639C104.76 64.8822 114.066 75.4816 114.066 75.4816C114.066 75.4816 110.724 64.3652 108.55 60.6732C108.55 60.6732 110.008 58.3737 112.844 58.4215C112.844 58.4215 122.391 76.9294 121.683 82.3248C120.974 87.7201 118.846 89.4727 116.814 88.0518C114.782 86.6324 107.332 77.923 105.479 76.8816C103.626 75.8402 101.363 65.9639 101.363 65.9639H101.361Z" fill="#4C381A"/>
<path d="M109.227 61.976C109.227 61.976 107.071 58.0434 106.221 57.2262C106.221 57.2262 108.345 53.9121 110.613 53.8046L113.539 59.802C112.838 60.0187 110.046 61.335 109.227 61.9745V61.976Z" fill="white"/>
<path d="M102.464 49.382C98.1387 51.405 97.7493 52.826 100.195 55.8785C102.64 58.931 104.839 58.3633 106.221 57.2277L107.091 58.3498L111.741 56.1206C111.741 56.1206 110.616 50.4114 107.993 48.992C105.371 47.5726 102.463 49.382 102.463 49.382H102.464Z" fill="#FCC934"/>
<path d="M132.978 173.563C132.978 173.563 134.719 179.085 134.719 181.371C134.719 183.657 132.724 189.247 133.849 191.617H162.736C162.736 191.617 162.397 186.62 153.491 185.943C143.374 185.174 141.321 172.997 141.321 172.997L132.978 173.561V173.563Z" fill="#272727"/>
<path d="M67.6763 185.095C63.2182 195.721 60.7295 199.652 60.7295 204.559H80.3301C80.1988 194.317 72.2941 198.532 77.7534 185.095H67.6748H67.6763Z" fill="#272727"/>
<path d="M204.042 80.4675C204.042 80.4675 199.212 67.4028 195.561 63.7825L191.555 62.8232C191.555 62.8232 189.11 74.0771 185.848 73.2598C182.587 72.444 186.806 62.0776 186.806 62.0776H184.611C184.611 62.0776 178.191 72.2662 179.183 75.3904C180.175 78.5147 185.872 83.3706 185.872 83.3706L204.043 80.4675H204.042Z" fill="#0E5DF9"/>
<path d="M185.872 83.3706L188.607 90.3901L207.291 87.7096L204.042 80.4675L185.872 83.3706Z" fill="#272727"/>
<path d="M132.335 68.4681C132.874 67.0606 135.119 66.956 135.119 66.956L135.7 63.131C129.833 60.8121 124.356 59.832 122.866 61.5278C121.375 63.2237 119.056 69.2555 124.581 70.4075C128 71.1202 131.627 70.3179 132.335 68.4681V68.4681Z" fill="#272727"/>
<path d="M166.5 115.378L181.119 128.128C174.233 132.849 182.93 135.93 179.019 159.115C177.753 166.621 180.146 186.172 180.146 186.172H170.797C170.797 186.172 158.445 128.207 162.018 121.734C165.688 115.084 166.5 115.378 166.5 115.378Z" fill="#F4E8CB"/>
<path d="M191.555 62.8232C187.763 62.1224 193.601 55.5333 191.326 52.4568C189.05 49.3804 181.192 51.3213 181.807 56.5747C182.421 61.8281 182.22 65.4977 184.61 64.7402C184.61 64.7402 186.099 63.9333 185.829 64.8044C185.559 65.6755 184.206 70.5927 184.891 72.1601C185.666 73.9351 186.967 73.7214 188.465 71.4518C189.914 69.257 191.554 62.8232 191.554 62.8232H191.555Z" fill="#F4E8CB"/>
<path d="M180.146 186.171C181.971 194.647 181.17 200.644 181.17 200.644H149.491C149.491 200.644 150.479 196.869 157.121 196.419C163.764 195.969 170.797 186.171 170.797 186.171H180.146V186.171Z" fill="#272727"/>
<path d="M135.701 63.131C135.701 63.131 140.663 63.7451 142.585 63.887L141.961 68.6354L135.12 66.956L135.701 63.131V63.131Z" fill="white"/>
<path d="M187.526 56.8182C187.548 56.742 187.596 56.1593 187.549 56.0637C187.351 55.6558 186.195 55.7679 185.75 55.9008C184.583 56.2505 182.594 55.8889 181.798 55.5318C181.798 55.5318 181.616 54.5292 182.921 53.0396C184.612 51.1076 188.649 50.0856 190.89 51.9832C193.601 54.2782 190.445 59.9305 190.445 59.9305C190.025 59.8543 188.645 60.1248 188.645 60.1248C188.219 59.2492 191.047 57.4264 189.935 56.1967C189.735 55.9755 189.219 56.0876 189.056 56.2041C188.682 56.4731 188.539 58.5903 187.588 57.9194C187.37 57.7655 187.524 56.8182 187.524 56.8182H187.526Z" fill="#272727"/>
<path d="M86.2896 89.2038C89.3079 90.1257 100.54 90.5411 103.3 86.5039L102.633 83.8384C102.633 83.8384 100.664 85.4625 96.0086 85.5402C91.3535 85.6164 86.7745 84.9769 86.7745 84.9769L86.2881 89.2038H86.2896Z" fill="#272727"/>
<path d="M88.9558 70.9185C85.5152 67.6344 76.5676 87.5722 73.6999 96.5759C72.8196 99.3415 74.0535 101.507 76.5676 101.575C77.803 101.608 92.8335 100.937 95.7907 100.328L96.4159 94.6409C96.4159 94.6409 83.9963 94.6589 81.5106 94.8531C81.5106 94.8531 88.2978 83.4214 90.6984 78.9525C92.5008 75.5981 90.9208 72.7936 88.9558 70.9185V70.9185Z" fill="#4C381A"/>
<path d="M89.7837 94.629C89.5569 95.7736 89.0794 100.005 90.0045 100.912C90.0045 100.912 95.4653 100.761 95.9024 100.6L94.3597 94.6485L89.7837 94.6276V94.629Z" fill="white"/>
<path d="M92.0215 68.4577C93.5016 67.8301 92.6974 65.3842 92.6974 65.3842L96.1603 64.7448C96.1603 64.7448 99.9381 69.8502 95.841 71.2383C93.321 72.0914 92.0215 68.4592 92.0215 68.4592V68.4577Z" fill="#3D2C16"/>
<path d="M95.9042 100.601C95.9042 100.601 100.186 102.548 104.943 100.939C109.698 99.3296 106.685 89.2322 104.057 89.4055C101.428 89.5788 99.5477 90.9012 98.6644 90.8025C97.7811 90.7039 93.4871 90.6681 94.3361 96.3891C94.9239 100.349 95.9042 100.601 95.9042 100.601V100.601Z" fill="#FCC934"/>
<path d="M95.8384 70.4583C98.1705 71.3592 100.276 72.172 100.667 70.4583C101.058 68.7445 102.083 63.255 101.997 61.477C101.945 60.3698 101.684 56.8138 96.9858 56.8182C92.2874 56.8227 89.8868 59.4136 91.9741 64.0783C94.0629 68.743 93.6452 69.6096 95.8369 70.4568L95.8384 70.4583Z" fill="#4C381A"/>
<path d="M94.3771 61.1453C94.8739 60.4595 100.229 63.9692 101.606 60.6104C102.274 58.9818 99.8856 56.3954 96.6539 56.6479C93.4222 56.9019 88.979 58.4633 92.0988 64.4742L93.3744 65.3737C93.3744 65.3737 92.3106 63.5509 92.8075 62.865C93.3043 62.1792 94.7217 63.6704 94.8157 63.7884C94.9097 63.9065 93.6385 62.1658 94.3756 61.1453H94.3771Z" fill="#FAE8DC"/>
<path d="M92.0229 54.341C90.4607 55.3391 89.7072 59.1626 94.0087 57.8163C98.3102 56.4701 95.2799 52.2581 92.0229 54.341Z" fill="#FAE8DC"/>
<path d="M102.669 114.129V109.313L108.668 120.137L102.669 114.129Z" fill="#D83423"/>
<path d="M195.492 118.547L192.373 112.964C192.373 112.964 190.904 124.174 187.546 128.404C187.546 128.404 192.755 122.64 194.021 120.85C195.288 119.06 195.492 118.547 195.492 118.547Z" fill="#D83423"/>
<path d="M193.872 68.7266L202.354 80.738L204.042 80.4675L200.531 70.8034L193.872 68.7266Z" fill="#0D56BF"/>
<path d="M193.747 64.3741C195.573 59.9799 211.796 74.3401 218.043 81.4223C219.962 83.5978 219.284 85.455 217.431 87.1553C213.536 90.7278 207.793 94.7037 203.065 98.3763L200.715 94.3959C200.715 94.3959 208.928 86.6085 212.271 83.4528C212.271 83.4528 199.817 73.7215 195.821 70.6002C192.822 68.2574 192.706 66.8813 193.749 64.3727L193.747 64.3741Z" fill="#F4E8CB"/>
<path d="M203.321 98.2059C203.321 98.2059 202.404 102.726 198.362 105.708C194.32 108.69 187.78 100.435 189.429 98.3763C191.076 96.3173 193.683 95.0593 194.108 94.2778C194.533 93.4964 196.576 90.3617 200.713 94.3959C203.05 96.6729 203.321 98.2059 203.321 98.2059Z" fill="#272727"/>
<path d="M200.713 94.396L204.226 91.067C204.226 91.067 205.959 92.1114 207.487 95.028L203.32 98.206L200.712 94.396H200.713Z" fill="white"/>
<path d="M106.221 57.2276C107.301 56.4865 108.477 55.0521 108.477 54.5143C108.477 53.9764 108.169 52.7975 108.169 52.7975C108.169 52.7975 108.885 54.078 108.911 54.5905C108.936 55.1029 106.958 58.1779 106.958 58.1779L106.221 57.2261V57.2276Z" fill="#E0AD2F"/>
<path d="M135.119 66.9561C130.233 66.3838 127.727 67.1936 127.727 67.1936C127.727 67.1936 132.58 67.1623 132.505 68.1394C132.505 68.1394 132.911 67.6284 133.302 67.4461C134.211 67.0263 135.118 66.9546 135.118 66.9546L135.119 66.9561Z" fill="#020200"/>
<path d="M185.086 64.525C186.339 64.0812 188.037 62.5184 188.088 62.2868C188.139 62.0552 185.399 66.3957 185.399 66.3957C185.36 66.3284 185.495 66.0714 185.623 65.5276C185.735 65.0539 186.045 64.4548 185.632 64.4458C185.302 64.4383 185.086 64.525 185.086 64.525V64.525Z" fill="#E0CFC5"/>
<path d="M64.5479 192.298C67.8616 185.964 72.184 172.904 72.184 172.904H83.3025C83.3025 172.904 76.4332 187.379 76.1363 190.03C75.8379 192.68 75.7932 192.802 75.8887 193.354C75.8887 193.354 73.3866 194.314 69.8564 194.314C66.3263 194.314 64.5479 192.298 64.5479 192.298V192.298Z" fill="white"/>
<path d="M129.45 164.434H139.454C139.454 164.434 140.934 172.389 144.164 180.098C144.164 180.098 142.917 182.084 140.846 182.045C138.775 182.006 134.656 180.485 134.656 180.485C134.656 180.485 134.569 177.884 132.576 172.562C131.535 169.783 129.45 164.435 129.45 164.435V164.434Z" fill="white"/>
<path d="M191.433 52.908C192.63 52.0712 196.771 53.283 195.288 61.3185H199.381C199.381 61.3185 199.973 47.3931 191.039 52.3237L191.433 52.908V52.908Z" fill="#272727"/>
</g>
<defs>
<linearGradient id="paint0_linear_1081_11535" x1="0" y1="-38" x2="300.427" y2="262" gradientUnits="userSpaceOnUse">
<stop stop-color="#8591FF"/>
<stop offset="1" stop-color="#6170FF"/>
</linearGradient>
<clipPath id="clip0_1081_11535">
<rect width="300" height="225" fill="white"/>
</clipPath>
</defs>
</svg>
