<svg width="100%" height="100%" viewBox="0 0 300 150" fill="none" preserveAspectRatio="xMidYMid meet" xmlns="http://www.w3.org/2000/svg">
<g clip-path="url(#clip0_1080_11011)">
<rect width="300" height="150" fill="white"/>
<path d="M300.796 -151H-1V151H300.796V-151Z" fill="url(#paint0_linear_1080_11011)"/>
<path d="M76.7705 143C75.3246 143 73.8845 142.977 72.4517 142.931C42.2061 141.953 16.5014 131.119 0.0729618 112.426C-0.0337635 112.304 -0.0220676 112.119 0.0992777 112.012C0.220623 111.905 0.404834 111.916 0.511559 112.038C19.1943 133.296 47.6988 142.596 76.6228 142.596C102.977 142.596 129.676 134.883 149.642 121.462C170.212 107.636 196.721 96.7577 224.288 90.8304C252.163 84.8371 278.971 84.407 299.778 89.6179C299.935 89.6576 300.03 89.8161 299.992 89.9732C299.952 90.1302 299.796 90.2271 299.638 90.1875C257.104 79.5337 192.76 93.1878 149.968 121.949C139.62 128.904 127.078 134.489 113.693 138.103C101.762 141.324 89.0848 143 76.7705 143V143Z" fill="#99A3FF"/>
<path d="M75.7793 135.382C74.3333 135.382 72.8933 135.359 71.4605 135.313C41.2149 134.335 15.5101 123.501 -0.918249 104.808C-1.02497 104.686 -1.01328 104.501 -0.891933 104.394C-0.770588 104.287 -0.586377 104.298 -0.479652 104.42C18.2031 125.678 46.7076 134.978 75.6316 134.978C101.985 134.978 128.684 127.265 148.651 113.844C169.221 100.018 195.73 89.1397 223.297 83.2125C251.171 77.2192 277.98 76.7891 298.787 82C298.943 82.0396 299.038 82.1982 299 82.3552C298.961 82.5123 298.805 82.6092 298.647 82.5696C256.113 71.9157 191.769 85.5699 148.977 114.331C138.629 121.286 126.086 126.871 112.702 130.485C100.771 133.706 88.0936 135.382 75.7793 135.382Z" fill="#99A3FF"/>
<path d="M64.3537 112C37.3536 112 12.2951 105.087 0.153208 98.4947C0.0113947 98.4169 -0.041237 98.2393 0.0347866 98.0969C0.112272 97.9545 0.289173 97.9016 0.430987 97.9779C12.836 104.714 38.8156 111.79 66.5408 111.398C89.5745 111.075 121.247 105.44 141.331 80.428C150.741 68.7065 161.967 57.7147 173.79 48.6402C186.644 38.7759 200.003 31.2121 213.497 26.1603C228.283 20.6254 242.841 18.2809 256.768 19.1911C272.107 20.1938 286.609 25.1634 299.869 33.9619C300.004 34.0514 300.04 34.2335 299.952 34.3686C299.865 34.5036 299.682 34.5403 299.547 34.4522C245.511 -1.40081 179.889 33.3423 141.785 80.7965C121.559 105.987 89.7076 111.661 66.5481 111.985C65.8157 111.996 65.0832 112 64.3537 112V112Z" fill="#99A3FF"/>
</g>
<defs>
<linearGradient id="paint0_linear_1080_11011" x1="-1" y1="-151" x2="301" y2="150.796" gradientUnits="userSpaceOnUse">
<stop stop-color="#838FFF"/>
<stop offset="1" stop-color="#6170FF"/>
</linearGradient>
<clipPath id="clip0_1080_11011">
<rect width="300" height="150" fill="white"/>
</clipPath>
</defs>
</svg>
