<svg width="100%" height="100%" viewBox="0 0 300 225" fill="none" preserveAspectRatio="xMidYMid meet" xmlns="http://www.w3.org/2000/svg">
<g clip-path="url(#clip0_1077_11295)">
<path d="M299.707 -32H0.291992V266.026H299.707V-32Z" fill="url(#paint0_linear_1077_11295)"/>
<path d="M241.411 139.594C227.679 139.594 214.022 137.849 199.834 134.294C170.144 126.852 143.606 112.771 117.94 99.1534C78.5705 78.2625 41.3848 58.5328 0.358525 68.0003C0.20063 68.0367 0.0441971 67.9392 0.00764744 67.7821C-0.0289023 67.6249 0.0690509 67.4692 0.226946 67.4328C10.1655 65.1394 20.0647 64.4511 30.4901 65.33C39.8278 66.1173 49.4185 68.1575 59.8088 71.5671C79.1728 77.9219 98.1378 87.9847 118.215 98.6383C168.147 125.132 224.739 155.16 299.61 128.578C299.762 128.524 299.929 128.602 299.984 128.754C300.038 128.905 299.959 129.071 299.807 129.126C282.054 135.429 264.246 138.92 246.878 139.502C245.054 139.563 243.231 139.594 241.413 139.594H241.411Z" fill="#97A1FF"/>
<path d="M241.217 146.027C240.758 146.027 240.297 146.027 239.834 146.024C222.652 145.966 202.987 144.816 181.386 142.606C149.844 139.38 125.724 134.246 106.344 130.12C66.3717 121.612 42.2459 116.476 0.414074 135.51C0.267876 135.577 0.093899 135.513 0.0266475 135.366C-0.040604 135.219 0.0237235 135.048 0.171384 134.981C19.955 125.979 36.6085 121.952 54.1699 121.924C70.5208 121.897 86.3848 125.276 106.467 129.55C125.834 133.672 149.936 138.803 181.446 142.025C230.318 147.024 259.853 145.596 276.022 143.518C293.5 141.271 299.499 137.821 299.559 137.786C299.698 137.705 299.877 137.75 299.959 137.888C300.041 138.026 299.996 138.205 299.857 138.287C299.614 138.431 293.695 141.833 276.098 144.095C266.133 145.375 254.402 146.024 241.217 146.024V146.027Z" fill="#97A1FF"/>
<path d="M253.952 120.247C218.541 120.247 184.155 106.413 147.822 91.7988C102.727 73.6582 56.0951 54.8991 0.311514 58.3916C0.147771 58.4003 0.0118064 58.2795 0.0015725 58.1195C-0.00866142 57.9594 0.114146 57.8211 0.274964 57.811C25.2954 56.2452 50.8773 59.0959 78.4826 66.5247C102.877 73.0906 125.838 82.3268 148.043 91.2589C185.67 106.394 221.209 120.69 257.899 119.606C275.57 119.084 285.926 114.209 291.502 110.21C297.534 105.885 299.421 101.629 299.44 101.586C299.504 101.44 299.676 101.371 299.825 101.434C299.972 101.498 300.043 101.668 299.978 101.815C299.901 101.994 298.028 106.234 291.885 110.652C288.29 113.238 283.969 115.34 279.045 116.901C272.902 118.848 265.792 119.954 257.917 120.187C256.595 120.226 255.271 120.245 253.952 120.245V120.247Z" fill="#97A1FF"/>
<path d="M95.4619 41.843H158.921C158.32 33.0114 142.68 37.8019 142.68 37.8019C142.379 26.8748 104.108 22.5906 103.431 39.5976C103.431 39.5976 95.4619 34.9614 95.4619 41.843Z" fill="#97A1FF"/>
<path d="M140.633 41.1489H86.3451C86.1843 41.1489 86.0527 41.0179 86.0527 40.8578C86.0527 39.2949 86.5206 38.2355 87.4416 37.7087C89.1434 36.7367 91.8671 37.9387 92.8992 38.4654C93.5147 31.3553 101.658 28.8509 109.183 28.9004C117.45 28.9499 126.442 32.0582 127.004 37.0219C128.655 36.562 135.51 34.8565 138.962 37.2198C140.157 38.0362 140.816 39.2556 140.924 40.8403C140.93 40.9204 140.901 41.0004 140.847 41.0586C140.791 41.1183 140.714 41.1503 140.633 41.1503V41.1489ZM86.6434 40.5668H140.312C140.157 39.3197 139.592 38.3549 138.632 37.6971C135.004 35.2145 126.907 37.6534 126.826 37.6782C126.738 37.7044 126.643 37.6898 126.57 37.636C126.497 37.5821 126.45 37.4977 126.449 37.4075C126.32 32.7276 117.417 29.5305 109.181 29.481C109.116 29.481 109.048 29.481 108.983 29.481C101.62 29.481 93.734 31.9621 93.4562 38.9486C93.4519 39.0504 93.3948 39.1436 93.3042 39.1916C93.2136 39.2411 93.1054 39.2396 93.0162 39.1872C92.9811 39.1669 89.5293 37.1863 87.7326 38.2122C87.0601 38.5964 86.6946 39.388 86.6434 40.5653V40.5668Z" fill="#97A1FF"/>
<path d="M178.602 27.7653H228.903C228.903 27.7653 228.439 24.0662 225.859 24.0662C223.278 24.0662 222.087 25.9158 222.087 25.9158C222.087 25.9158 219.373 16.0334 206.335 16.0334C193.297 16.0334 191.509 25.7571 191.509 25.7571C191.509 25.7571 190.517 21.8994 185.878 21.8994C179.723 21.8994 178.603 27.7653 178.603 27.7653" fill="#97A1FF"/>
<path d="M185.159 76.4288C187.911 76.4288 203.378 92.8333 204.074 94.7425C204.77 96.6503 205.109 97.4318 205.109 97.4318L204.251 128.078C204.139 133.467 203.913 140.763 201.658 141.718C199.402 142.673 200.191 140.277 200.191 140.277C200.191 140.277 200.529 133.467 198.5 132.793C197.449 132.444 199.364 128.378 200.492 126.581C201.62 124.785 197.277 98.7778 196.761 97.4318C196.245 96.0842 186.32 86.6545 186.32 86.6545L183.345 76.2891L185.161 76.4288H185.159Z" fill="#ECD0A8"/>
<path d="M197.808 102.912C197.914 102.345 197.979 101.762 198.004 101.173C196.479 101.435 194.648 101.591 192.653 101.591C189.752 101.591 186.504 101.262 183.337 100.456C183.337 103.659 185.033 106.466 187.58 108.037C188.79 107.885 190.007 107.011 191.397 106.01C193.189 104.721 195.201 103.273 197.809 102.911L197.808 102.912Z" fill="#F24A24"/>
<path d="M198.011 100.884C198.022 100.303 197.992 99.7209 197.922 99.1432C197.574 99.1723 197.244 99.1854 196.931 99.1854C193.64 99.1854 192.188 97.6778 190.659 96.0901C189.658 95.0511 188.624 93.9801 187.006 93.2598C184.856 94.827 183.435 97.3227 183.342 100.156C188.706 101.536 194.304 101.531 198.01 100.884H198.011Z" fill="#F24A24"/>
<path d="M190.872 95.8907C192.494 97.5744 194.027 99.1649 197.886 98.855C197.678 97.4041 197.217 96.0071 196.507 94.827C195.374 92.9454 193.729 91.8103 191.799 91.5571C190.133 91.6474 188.586 92.1901 187.283 93.0662C188.862 93.8069 189.883 94.8634 190.871 95.8907H190.872Z" fill="#F24A24"/>
<path d="M196.735 105.939C197.2 105.123 197.536 104.197 197.747 103.218C195.257 103.595 193.306 104.995 191.568 106.246C190.276 107.176 189.13 108.001 187.969 108.264C189.08 108.876 190.334 109.257 191.669 109.349C194.396 109.049 195.921 107.369 196.735 105.939V105.939Z" fill="#F24A24"/>
<path d="M198.24 99.1141C198.231 99.1141 198.222 99.1155 198.212 99.117C198.279 99.6845 198.31 100.259 198.303 100.831C199.536 100.598 200.542 100.291 201.234 99.9406C201.174 98.9045 200.939 97.915 200.553 97.004C200.5 97.378 200.377 97.7811 200.124 98.1376C199.728 98.6964 199.093 99.0253 198.238 99.1141H198.24Z" fill="#F24A24"/>
<path d="M196.758 94.6771C197.489 95.8922 197.963 97.3329 198.175 98.8288C198.186 98.8288 198.197 98.8274 198.208 98.8259C198.974 98.7459 199.539 98.4592 199.885 97.9717C200.227 97.4915 200.299 96.8978 200.293 96.4481C198.939 93.7793 196.28 91.8788 193.148 91.5834C194.602 92.1029 195.843 93.1535 196.76 94.6771H196.758Z" fill="#F24A24"/>
<path d="M200.339 103.621C200.105 103.245 199.479 103.077 198.532 103.132C198.37 103.142 198.21 103.157 198.052 103.176C197.838 104.223 197.484 105.214 196.99 106.083C196.295 107.301 195.108 108.694 193.145 109.332C196.402 109.027 199.15 106.984 200.449 104.145C200.463 103.967 200.44 103.782 200.34 103.621H200.339Z" fill="#F24A24"/>
<path d="M198.109 102.876C198.242 102.861 198.377 102.85 198.514 102.842C199.592 102.778 200.291 102.989 200.589 103.469C200.621 103.52 200.644 103.573 200.666 103.627C201.042 102.641 201.25 101.575 201.25 100.459C201.25 100.392 201.247 100.326 201.245 100.259C200.528 100.598 199.519 100.895 198.297 101.122C198.276 101.714 198.213 102.302 198.111 102.876H198.109Z" fill="#F24A24"/>
<path d="M197.809 102.912C197.908 102.899 198.009 102.886 198.11 102.876C198.212 102.302 198.275 101.714 198.295 101.122C198.199 101.14 198.102 101.157 198.004 101.175C197.981 101.762 197.915 102.346 197.809 102.914V102.912Z" fill="black"/>
<path d="M198.212 99.1169C198.114 99.1271 198.019 99.1359 197.924 99.1431C197.993 99.7194 198.023 100.303 198.013 100.884C198.111 100.866 198.209 100.849 198.304 100.831C198.311 100.259 198.281 99.6859 198.213 99.1169H198.212Z" fill="black"/>
<path d="M196.507 94.827C197.217 96.0072 197.677 97.4042 197.886 98.855C197.981 98.8477 198.077 98.839 198.175 98.8288C197.963 97.3329 197.489 95.8937 196.758 94.6771C195.842 93.155 194.6 92.1029 193.147 91.5834C192.867 91.5572 192.581 91.5426 192.293 91.5426C192.128 91.5426 191.963 91.5484 191.801 91.5572C193.731 91.8118 195.377 92.9454 196.508 94.827H196.507Z" fill="black"/>
<path d="M196.988 106.083C197.484 105.214 197.836 104.223 198.051 103.176C197.947 103.187 197.846 103.203 197.745 103.219C197.533 104.199 197.197 105.124 196.734 105.94C195.919 107.371 194.396 109.05 191.668 109.35C191.874 109.365 192.082 109.373 192.292 109.373C192.579 109.373 192.862 109.359 193.143 109.333C195.105 108.694 196.294 107.303 196.988 106.083V106.083Z" fill="black"/>
<path d="M183.336 100.456C183.336 100.355 183.34 100.256 183.343 100.157Z" fill="black"/>
<path d="M198.004 101.173C198.008 101.077 198.01 100.98 198.011 100.884C194.305 101.531 188.707 101.536 183.343 100.156C183.34 100.255 183.336 100.355 183.336 100.454C186.503 101.262 189.753 101.589 192.652 101.589C194.647 101.589 196.478 101.434 198.003 101.172L198.004 101.173Z" fill="black"/>
<path d="M198.302 100.831C198.302 100.929 198.299 101.025 198.295 101.121C199.517 100.894 200.526 100.597 201.244 100.258C201.241 100.152 201.239 100.045 201.232 99.9406C200.541 100.291 199.535 100.597 198.301 100.831H198.302Z" fill="black"/>
<path d="M198.004 101.173C198.102 101.156 198.2 101.138 198.295 101.121C198.298 101.025 198.301 100.927 198.302 100.831C198.207 100.849 198.109 100.866 198.011 100.884C198.01 100.98 198.007 101.077 198.004 101.173Z" fill="black"/>
<path d="M187.009 93.2612C187.099 93.1942 187.192 93.1287 187.285 93.0662Z" fill="black"/>
<path d="M199.884 97.9717C199.538 98.4578 198.974 98.7459 198.207 98.8259C198.196 98.8259 198.186 98.8274 198.174 98.8288C198.187 98.9249 198.199 99.0209 198.21 99.1184C198.219 99.1184 198.228 99.117 198.238 99.1155C199.092 99.0268 199.726 98.6979 200.124 98.1391C200.377 97.7826 200.5 97.3795 200.552 97.0055C200.472 96.8163 200.384 96.6315 200.292 96.4496C200.298 96.9007 200.226 97.493 199.884 97.9732V97.9717Z" fill="black"/>
<path d="M190.661 96.0915C192.189 97.6777 193.642 99.1868 196.933 99.1868C197.246 99.1868 197.576 99.1722 197.924 99.1446C197.912 99.0485 197.901 98.951 197.886 98.855C194.028 99.1649 192.494 97.5744 190.873 95.8907C189.883 94.8633 188.864 93.8069 187.285 93.0662C187.192 93.1287 187.101 93.1957 187.009 93.2612C188.627 93.9829 189.661 95.0525 190.662 96.0915H190.661Z" fill="black"/>
<path d="M198.175 98.8289C198.077 98.839 197.981 98.8478 197.886 98.8551C197.899 98.9511 197.912 99.0471 197.924 99.1446C198.019 99.1374 198.115 99.1286 198.212 99.1185C198.2 99.0224 198.188 98.9249 198.175 98.8289Z" fill="black"/>
<path d="M198.515 102.841C198.379 102.85 198.243 102.861 198.11 102.874C198.092 102.975 198.073 103.075 198.053 103.174C198.211 103.157 198.37 103.141 198.532 103.13C199.481 103.075 200.105 103.244 200.339 103.619C200.44 103.781 200.462 103.966 200.447 104.143C200.525 103.973 200.598 103.8 200.665 103.625C200.643 103.571 200.62 103.519 200.588 103.468C200.29 102.989 199.591 102.778 198.513 102.841H198.515Z" fill="black"/>
<path d="M197.747 103.218C197.769 103.116 197.789 103.014 197.81 102.912C195.201 103.274 193.188 104.721 191.397 106.012C190.008 107.011 188.791 107.886 187.58 108.039C187.707 108.117 187.837 108.195 187.97 108.266C189.131 108.001 190.277 107.177 191.57 106.247C193.308 104.996 195.26 103.596 197.748 103.219L197.747 103.218Z" fill="black"/>
<path d="M197.747 103.218C197.847 103.202 197.948 103.186 198.052 103.174C198.073 103.075 198.092 102.975 198.109 102.874C198.008 102.884 197.907 102.898 197.808 102.911C197.789 103.014 197.767 103.116 197.745 103.216L197.747 103.218Z" fill="black"/>
<path d="M187.619 199.999C187.77 204.64 203.441 202.993 203.441 208.007H180.384C180.384 204.938 181.191 203.906 181.453 200.024" fill="#272727"/>
<path d="M167.953 172.533C168.86 169.229 168.893 164.769 168.912 162.878C168.961 157.789 168.862 154.995 170.565 146.264C171.637 140.774 173.422 130.073 173.422 130.073L176.279 111.351L164.379 110.901C164.379 110.901 160.011 139.976 160.037 143.569C160.128 155.943 158.434 160.521 157.932 166.42C157.828 167.641 157.761 169.898 157.651 172.501" fill="#ECD0A8"/>
<path d="M162.297 198.352C162.174 202.853 163.424 202.505 163.424 208.006H152.484C152.484 208.006 151.683 206.238 153.498 204.189C154.965 202.534 157.109 200.12 157.655 198.483" fill="#272727"/>
<path d="M157.655 198.484C157.738 198.232 157.785 198 157.785 197.792C157.785 196.569 157.272 181.611 157.655 172.503L167.954 172.534C165.943 179.855 162.53 189.768 162.297 198.353" fill="white"/>
<path d="M187.827 172.503C188 161.649 188.215 151.408 188.297 148.959C188.491 143.096 185.835 118.799 184.933 111.652H171.455L170.497 134.391C170.497 134.391 177.74 142.898 178.342 148.137C178.943 153.376 176.613 159.736 177.515 165.725C177.769 167.411 178.177 169.761 178.639 172.504" fill="#ECD0A8"/>
<path d="M178.639 172.503C180.041 180.853 181.925 192.84 181.39 200.772C181.39 200.772 182.747 200.722 184.753 200.622C186.759 200.522 187.645 200.148 187.645 200.148C187.51 196 187.643 184.194 187.829 172.502" fill="white"/>
<path d="M162.747 110.903H186.318C186.318 110.903 188.369 133.866 188.912 143.295L175.603 143.345L176.13 137.083L175.603 143.345H160.039C160.039 143.345 160.44 128.153 161.092 122.565C161.788 116.597 162.745 110.903 162.745 110.903H162.747Z" fill="#F24A24"/>
<path d="M176.768 143.317L176.829 120.488L180.041 143.237L176.768 143.317Z" fill="#E33E23"/>
<path d="M162.63 77.1972C168.244 76.3502 169.977 75.4407 170.98 72.996L177.627 73.8953C177.627 73.8953 179.063 75.269 183.344 76.2891C183.344 76.2891 186.92 81.0418 186.994 85.307C187.069 89.5722 186.318 110.903 186.318 110.903H162.746C162.746 110.903 163.87 105.476 162.971 95.5226C162.809 93.7196 162.629 77.1972 162.629 77.1972H162.63Z" fill="#272727"/>
<path d="M178.988 58.3537C175.388 57.2259 171.57 57.5053 170.265 59.6503C169.641 60.6762 170.065 63.9417 170.767 65.4871C171.469 67.034 171.77 70.6007 170.98 72.996C170.855 76.0141 175.455 82.1012 176.432 82.1012C178.685 82.1012 178.086 75.3171 178.086 75.3171C178.086 75.3171 176.438 70.6182 177.309 70.6764C177.368 70.6808 178.398 70.9136 178.47 70.9325C179.412 71.2061 180.542 71.292 180.643 70.1773C180.89 67.4386 181.695 59.2006 178.989 58.3523L178.988 58.3537Z" fill="#ECD0A8"/>
<path d="M171.207 66.9772C172.07 67.5826 174.909 68.1327 172.397 64.8716C170.617 62.5607 174.177 62.0441 174.276 63.9402C174.377 65.8364 176.782 64.6387 175.454 61.5959C174.891 60.3051 179.198 62.0412 180.715 61.4198C180.715 61.4198 180.663 58.8645 178.986 58.3522C177.937 58.0321 176.312 57.5752 174.697 57.5242C172.995 57.4704 171.305 57.8677 170.314 59.3505C168.381 62.2391 171.206 66.9772 171.206 66.9772H171.207Z" fill="#F24A24"/>
<path d="M180.716 61.4198C181.262 61.12 182.482 58.6287 181.091 57.7017C179.7 56.7748 177.82 56.3076 177.181 56.9247C176.542 57.5417 174.7 57.5257 174.7 57.5257L176.918 60.0679L180.246 61.1535L180.716 61.4212V61.4198Z" fill="#F24A24"/>
<path d="M159.577 154.386C164.529 150.739 169.957 149.569 169.957 149.569L171.099 143.434L160.848 143.316L159.577 154.386V154.386Z" fill="#CBB192"/>
<path d="M160.04 154.052C158.584 150.826 158.362 146.301 157.434 138.85C156.505 131.399 155.773 121.463 156.078 114.708C156.384 107.953 156.58 98.7357 156.548 94.5418C156.514 90.3479 155.809 84.5358 156.03 82.7284C156.374 79.9257 160.583 76.6879 162.862 77.1884C165.141 77.689 166.213 84.984 165.476 88.7617C164.739 92.5394 163.849 92.8959 163.654 95.2825C163.165 101.297 162.746 112.502 162.887 115.711C163.07 119.897 160.915 135.854 161.033 138.544C161.151 141.236 162.722 141.488 162.849 143.335C163.197 148.414 161.112 142.174 161.34 150.118C161.521 156.465 160.042 154.054 160.042 154.054L160.04 154.052Z" fill="#ECD0A8"/>
<path d="M178.161 147.142C178.161 147.142 185.022 143.64 186.863 143.317L176.579 143.296C176.579 143.296 177.462 144.602 178.162 147.142H178.161Z" fill="#CBB192"/>
<path d="M163.734 191.169C166.43 194.334 167.217 196.837 167.682 200.973C167.905 202.962 166.629 207.958 166.629 207.958H178.71C178.71 207.958 173.797 201.671 173.196 199.327C172.596 196.982 169.6 191.169 169.6 191.169H163.736H163.734Z" fill="#4C381A"/>
<path d="M152.249 110.936C150.82 104.874 150.82 83.1707 152.926 79.4294C152.926 79.4294 147.211 77.4838 143.076 77.4838C138.942 77.4838 129.993 80.1031 129.993 80.1031L129.541 110.638L152.247 110.938L152.249 110.936Z" fill="#BED2FA"/>
<path d="M129.376 103.902L129.522 108.461L142.832 106.968L151.819 108.164L151.335 101.314L129.376 103.902Z" fill="#9EAFCC"/>
<path d="M130.192 80.0653C124.891 81.6369 113.439 97.1538 111.635 101.793C109.959 106.099 111.19 115.225 116.709 111.185C125.468 104.775 147.56 105.659 147.56 101.057C147.56 96.4538 147.224 90.617 141.883 91.0652C131.784 91.9136 122.624 98.462 122.624 98.462C122.624 98.462 127.619 94.7571 131.784 91.9136C134.57 90.0102 130.192 80.0638 130.192 80.0638V80.0653Z" fill="#BED2FA"/>
<path d="M130.039 91.8642C130.075 88.1403 129.925 87.2788 129.925 87.2788C129.925 87.2788 122.518 96.8963 121.052 99.6277C121.052 99.6277 128.645 94.0528 130.3 93.9029L130.037 91.8642H130.039Z" fill="#9EAFCC"/>
<path d="M129.543 110.636C128.792 115.575 127.024 188.469 131.911 193.558H148.153C147.1 183.679 144.882 153.294 143.98 141.021C143.98 141.021 145.819 150.67 147.023 157.523C148.226 164.376 153.547 183.381 159.619 192.346H175.71C172.67 173.801 166.631 164.521 161.425 152.098C153.885 134.107 155.41 117.762 152.252 110.936L129.546 110.636H129.543Z" fill="#F24A24"/>
<path d="M146.372 193.558H139.429C140.556 199.695 140.857 202.614 139.053 203.512C137.249 204.41 128.54 204.486 127.022 207.853H147.097C147.097 207.853 146.834 204.486 145.669 202.314C144.922 200.922 146.37 193.558 146.37 193.558H146.372Z" fill="#4C381A"/>
<path d="M139.143 77.9465C137.931 79.7189 133.829 84.6186 138.205 84.4367C142.58 84.2548 144.94 77.4444 144.94 77.4444C144.94 77.4444 143.765 75.6807 143.674 73.821C143.583 71.9612 145.133 70.6457 146.089 69.5106C147.045 68.3756 147.684 64.3388 145.816 63.1135C143.947 61.8883 137.249 61.0268 136.268 64.0216C135.287 67.0164 135.469 73.5488 135.924 73.7758C137.528 74.5748 138.795 73.2316 139.387 74.048C139.98 74.8643 139.14 77.9465 139.14 77.9465H139.143Z" fill="#4C381A"/>
<path d="M144.182 62.7964C145.512 62.7964 146.591 61.7227 146.591 60.3982C146.591 59.0737 145.512 58 144.182 58C142.851 58 141.772 59.0737 141.772 60.3982C141.772 61.7227 142.851 62.7964 144.182 62.7964Z" fill="#272727"/>
<path d="M149.002 70.7563C150.333 70.7563 151.411 69.6826 151.411 68.3581C151.411 67.0337 150.333 65.96 149.002 65.96C147.671 65.96 146.593 67.0337 146.593 68.3581C146.593 69.6826 147.671 70.7563 149.002 70.7563Z" fill="#272727"/>
<path d="M148.626 65.7271C149.957 65.7271 151.036 64.6534 151.036 63.329C151.036 62.0045 149.957 60.9308 148.626 60.9308C147.295 60.9308 146.217 62.0045 146.217 63.329C146.217 64.6534 147.295 65.7271 148.626 65.7271Z" fill="#272727"/>
<path d="M136.166 64.368C136.075 65.0767 140.176 64.2865 140.752 64.8104C141.328 65.3342 140.426 67.0805 140.576 67.6291C140.727 68.1777 142.03 66.235 143.057 65.9847C144.085 65.7344 144.636 67.4792 143.584 68.4527C142.531 69.4263 143.107 71.2569 144.686 71.1274C144.686 71.1274 147.94 68.0249 147.016 65.0345C146.293 62.6901 145.04 62.4544 141.981 62.0484C138.921 61.6424 136.416 62.4034 136.164 64.368H136.166Z" fill="#272727"/>
<path d="M143.979 141.021C140.352 131.891 139.825 128.716 139.825 128.716C139.825 128.716 140.02 148.393 144.96 154.323L143.979 141.02V141.021Z" fill="#E33E23"/>
<path d="M142.879 103.982L133.782 101.125L139.523 105.098L142.879 103.982Z" fill="#9EAFCC"/>
<path d="M123.771 97.6195C124.822 93.5842 131.209 90.6243 134.982 90.9692L134.816 96.5034L131.927 97.0374C131.392 97.1364 130.847 96.9181 130.529 96.4786C129.797 95.4644 128.424 95.1457 127.317 95.7336L123.771 97.6181V97.6195Z" fill="#4C381A"/>
<path d="M152.926 79.4279C158.227 80.9995 169.091 98.8112 170.895 103.452C172.57 107.758 170.967 117.345 165.82 112.844C155.848 104.126 132.494 104.012 132.494 99.4108C132.494 94.8094 132.38 89.0613 137.719 89.511C147.819 90.3594 157.55 98.6249 157.55 98.6249C157.55 98.6249 152.898 94.2593 151.334 91.2776C149.768 88.2959 152.926 79.4279 152.926 79.4279Z" fill="#BED2FA"/>
<path d="M150.605 89.5096V85.9443L157.55 98.625L155.467 97.0243L150.605 93.6773V89.5096Z" fill="#9EAFCC"/>
<path d="M155.467 97.0243C155.723 96.9879 155.878 96.9632 155.878 96.9632C156.129 95.9227 151.593 90.5123 149.824 89.5955C148.369 88.8417 146.837 89.7934 144.528 91.1526C144.528 91.1526 147.626 92.3094 150.233 93.7064C152.84 95.1034 155.468 97.0229 155.468 97.0229L155.467 97.0243Z" fill="#4C381A"/>
</g>
<defs>
<linearGradient id="paint0_linear_1077_11295" x1="0.291992" y1="-32" x2="298.315" y2="267.412" gradientUnits="userSpaceOnUse">
<stop stop-color="#838FFF"/>
<stop offset="1" stop-color="#6170FF"/>
</linearGradient>
<clipPath id="clip0_1077_11295">
<rect width="300" height="225" fill="white"/>
</clipPath>
</defs>
</svg>
