<svg width="100%" height="100%" viewBox="0 0 203 195" fill="none" preserveAspectRatio="xMidYMid meet" xmlns="http://www.w3.org/2000/svg">
<path d="M113.846 194.73L113.405 184.592H102.634L98.9834 194.73H113.846Z" fill="#FAC734"/>
<path d="M127.709 194.73L128.15 184.592H138.921L142.571 194.73H127.709Z" fill="#0B49AB"/>
<path d="M99.0562 193.48C98.3941 186.638 103.25 121.962 103.029 116.223H122.674C122.674 116.223 116.604 157.942 117.156 167.544C117.708 177.146 116.935 182.333 115.832 185.093C114.729 187.853 116.715 186.653 116.494 188.797C116.273 190.942 113.845 194.252 113.845 194.252C113.845 194.252 110.423 191.493 105.789 191.383C101.154 191.273 99.0562 193.48 99.0562 193.48Z" fill="#F24A24"/>
<path d="M142.509 193.958C143.171 187.116 138.315 122.44 138.537 116.701H118.892C118.892 116.701 124.962 158.419 124.41 168.021C123.857 177.624 124.631 182.811 125.734 185.57C126.837 188.33 124.851 187.13 125.072 189.275C125.293 191.419 127.72 194.73 127.72 194.73C127.72 194.73 131.142 191.97 135.777 191.86C140.412 191.75 142.509 193.958 142.509 193.958V193.958Z" fill="#F24A24"/>
<path d="M103.364 116.704C103.364 116.704 116.275 117.259 120.852 117.312C125.428 117.364 137.678 116.223 137.678 116.223L138.529 117.243L138.633 120.707C138.633 120.707 109.839 122.774 103.364 116.705V116.704Z" fill="#E33E23"/>
<path d="M139.396 192.307L138.975 192.178C140.74 186.439 137.608 151.886 135.736 131.241C135.101 124.234 134.6 118.7 134.515 116.712L134.954 116.693C135.039 118.671 135.54 124.201 136.174 131.201C138.048 151.879 141.186 186.487 139.396 192.309V192.307Z" fill="#0B49AB"/>
<path d="M140.805 192.307L140.384 192.178C142.149 186.44 139.018 151.888 137.146 131.244C136.51 124.236 136.009 118.7 135.924 116.712L136.363 116.693C136.448 118.671 136.949 124.202 137.584 131.204C139.457 151.88 142.595 186.487 140.805 192.309V192.307Z" fill="#0B49AB"/>
<path d="M100.387 191.808C98.512 182.551 100.589 162.651 102.423 145.095C103.626 133.583 104.761 122.709 104.645 116.228L105.085 116.22C105.199 122.73 104.062 133.617 102.86 145.142C101.03 162.667 98.9558 182.531 100.818 191.721L100.387 191.809V191.808Z" fill="#0B49AB"/>
<path d="M101.866 191.808C99.9915 182.551 102.069 162.653 103.903 145.095C105.105 133.583 106.241 122.709 106.125 116.226L106.564 116.219C106.679 122.729 105.542 133.615 104.339 145.141C102.51 162.666 100.435 182.529 102.297 191.72L101.866 191.808V191.808Z" fill="#0B49AB"/>
<path d="M131.829 141.328L134.735 157.243L155.281 145.46L154.413 130.015L131.829 141.328Z" fill="#0E5DF7"/>
<path d="M138.528 117.243C137.45 118.605 127.555 118.413 118.436 118.56C106.574 118.75 103.127 116.581 103.127 116.581C97.186 114.281 106.7 69.3174 104.935 62.7696C104.935 62.7696 113.875 59.8267 122.484 59.6787C131.093 59.5323 135.618 61.0762 135.618 61.0762C134.734 85.2315 141.982 112.875 138.528 117.241V117.243Z" fill="#F24A24"/>
<path d="M117.083 60.0991C116.661 58.0527 116.837 57.2866 116.837 57.2866C116.837 57.2866 120.994 57.0112 123.791 57.0844C126.587 57.1577 129.86 57.7099 129.86 57.7099C129.86 57.7099 130.065 58.7162 129.696 59.8588C129.328 61.0014 123.344 69.7993 123.344 69.7993L117.083 60.0976V60.0991Z" fill="#E33E23"/>
<path d="M104.936 62.7681C98.4251 64.6079 91.8025 74.3198 88.7117 79.0659C85.6209 83.812 87.4973 103.126 86.7254 105.443C85.9534 107.761 92.7957 108.092 95.4441 107.32C98.0926 106.548 95.6038 90.5137 96.0755 85.2315C96.5472 79.9492 107.695 76.0132 107.695 76.0132L104.935 62.7695L104.936 62.7681Z" fill="#F24A24"/>
<path d="M88.6504 106.816V110.499L94.3105 110.925L94.4731 107.695L88.8101 107.406" fill="#F24A24"/>
<path d="M88.6501 110.499C88.0465 115.971 88.6501 120.654 88.6501 120.654C88.6501 120.654 91.9987 122.661 94.0055 122.661C96.0124 122.661 95.0397 118.709 95.7077 118.252C96.3771 117.796 96.0124 114.877 95.1598 113.478C94.3088 112.079 94.3088 110.923 94.3088 110.923L88.6486 110.497L88.6501 110.499Z" fill="#5E3721"/>
<path d="M148.497 124.231V129.165L142.836 129.591L142.533 123.571L148.497 124.231Z" fill="#F24A24"/>
<path d="M148.497 129.165C149.193 136.151 148.497 139.321 148.497 139.321C148.497 139.321 145.148 141.328 143.141 141.328C141.134 141.328 142.719 135.874 141.996 136.236C141.779 136.344 140.784 136.842 140.784 136.842C140.352 135.635 141.401 133.107 141.987 132.145C142.838 130.746 142.838 129.59 142.838 129.59L148.498 129.164L148.497 129.165Z" fill="#5E3721"/>
<path d="M135.617 61.0762C142.571 62.7681 145.109 69.3203 145.109 69.3203C145.109 69.3203 147.44 99.2573 148.766 107.913C150.09 116.57 153.499 123.569 150.408 124.352C147.553 125.075 141.689 126.66 140.475 123.569C139.26 120.477 140.155 119.564 139.713 114.824C139.271 110.084 134.735 72.7744 134.735 72.7744L135.619 61.0762H135.617Z" fill="#F24A24"/>
<path d="M120.245 56.4502C120.258 57.3789 120.002 60.7261 120.002 60.7261L123.166 63.1167L126.238 61.0747L126.128 55.6665L120.247 56.4487L120.245 56.4502Z" fill="#422618"/>
<path d="M123.279 58.2065C126.271 58.2065 127.761 55.1157 128.252 51.8301C128.743 48.543 129.607 42.5591 123.5 42.5591C117.393 42.5591 117.825 47.1851 118.471 51.3877C119.017 54.9443 120.482 58.2065 123.279 58.2065Z" fill="#5E3721"/>
<path d="M116.836 57.2866C118.547 58.1875 122.06 58.7207 122.06 58.7207L123.22 62.5469L124.353 58.8101C124.353 58.8101 127.505 58.8496 129.857 57.7085C129.857 57.7085 129.786 60.5898 129.693 61.479C129.405 64.2666 123.586 69.9033 123.586 69.9033L118.657 67.769C118.657 67.769 116.829 60.9883 116.829 60.1211C116.829 59.4004 116.836 57.2852 116.836 57.2852V57.2866Z" fill="#F24A24"/>
<path d="M123.22 62.708C123.575 76.0645 121.117 108.083 120.94 110.812C120.743 113.833 120.937 118.125 120.937 118.125" stroke="#E33E23" stroke-width="3" stroke-miterlimit="10"/>
<path d="M139.467 112.504L135.153 76.2227C135.153 76.2227 135.14 108.771 139.261 115.275L139.467 112.504Z" fill="#E33E23"/>
<path d="M147.812 124.986L147.417 125.075C147.417 125.075 147.836 124.792 148.142 124.256C148.661 123.344 149.254 120.839 147.396 114.314C145.39 107.267 144.751 96.7598 144.186 87.4902C143.658 78.8242 143.203 71.3389 141.78 68.752C138.924 63.5547 133.513 62.1528 128.093 61.4131L128.422 61.2168C133.918 61.9683 139.117 63.3013 142.037 68.6113C143.491 71.2568 143.948 78.7715 144.479 87.4727C145.042 96.7275 145.681 107.217 147.678 114.235C149.482 120.577 149.024 123.265 148.376 124.435C148.136 124.87 147.829 124.984 147.811 124.987L147.812 124.986Z" fill="#0B49AB"/>
<path d="M149.191 124.659L148.791 124.756C148.812 124.746 151.179 123.392 148.401 113.641C146.395 106.593 145.756 96.0859 145.19 86.8164C144.663 78.1504 144.208 70.665 142.785 68.0781C139.929 62.8809 134.518 61.479 129.098 60.7393L129.36 60.5063C134.856 61.2578 140.122 62.6274 143.042 67.9375C144.496 70.583 144.953 78.0977 145.483 86.7988C146.047 96.0537 146.686 106.543 148.683 113.562C151.555 123.65 149.296 124.617 149.189 124.662L149.191 124.659Z" fill="#0B49AB"/>
<path d="M118.09 48.5679C120.185 47.7036 126.569 48.2031 128.579 48.9385C128.579 48.9385 129.639 42.4243 123.497 42.4243C116.826 42.4243 118.092 48.5679 118.092 48.5679H118.09Z" fill="#0E5DF7"/>
<path d="M118.141 48.8082C117.002 48.587 115.78 49.2989 116.138 48.3848C116.763 46.7852 118.215 45.9019 121.711 45.8287C125.208 45.7554 125.721 46.712 126.898 47.5572C127.511 47.9966 128.762 48.9825 128.577 48.9385C127.634 48.7159 126.236 48.2193 122.666 48.1255C119.082 48.0318 118.141 48.8082 118.141 48.8082V48.8082Z" fill="#0B49AB"/>
<path d="M106.351 194.73H93.4209C93.7886 190.721 96.1426 187.482 104.457 187.776C112.771 188.071 114.137 194.73 114.137 194.73H106.351V194.73Z" fill="white"/>
<path d="M135.203 194.73H148.133C147.766 190.721 145.412 187.482 137.097 187.776C128.783 188.071 127.709 194.73 127.709 194.73H135.203V194.73Z" fill="white"/>
<path d="M89.6182 107.934L89.3281 107.896C90.0591 102.401 89.7939 96.5049 89.5815 91.7676C89.3398 86.3784 89.1494 82.123 90.4692 80.7432C91.0669 80.1177 92.0557 78.8755 93.3066 77.3022C97.1709 72.4419 103.011 65.0986 106.544 64.2578C111.125 63.1665 117.409 61.4468 117.528 61.4233L117.874 61.5903C117.913 61.6431 111.197 63.4507 106.613 64.542C103.178 65.3594 97.1431 72.9502 93.5366 77.4839C92.2812 79.063 91.2895 80.3096 90.6816 80.9453C89.4482 82.2358 89.6357 86.4355 89.8745 91.7544C90.0869 96.5034 90.352 102.413 89.6182 107.934V107.934Z" fill="#0B49AB"/>
<path d="M88.5273 107.26L88.2373 107.222C88.9683 101.727 88.7031 95.8311 88.4907 91.0937C88.249 85.7046 88.0586 81.4492 89.3784 80.0693C89.9761 79.4438 90.9648 78.2017 92.2158 76.6284C96.0801 71.7695 101.919 64.4248 105.454 63.584C110.034 62.4927 116.671 60.7422 116.863 60.6836L117.062 60.9312C116.787 61.0586 110.104 62.7769 105.521 63.8682C102.086 64.6855 96.0508 72.2749 92.4443 76.8101C91.189 78.3892 90.1973 79.6372 89.5894 80.2715C88.356 81.562 88.5435 85.7617 88.7822 91.0806C88.9946 95.8296 89.2598 101.739 88.5259 107.26H88.5273Z" fill="#0B49AB"/>
<path d="M74.5879 64.4497C71.7036 64.4497 71.3887 59.4502 71.3887 59.4502C72.7407 59.1704 72.8169 56.7827 72.9224 55.1758H76.2402C76.3457 56.7827 76.4219 59.1704 77.7739 59.4502C77.7739 59.4502 77.5103 64.4497 74.5806 64.4497" fill="#ECD0A8"/>
<path d="M72.8271 56.4912C73.438 56.9512 76.3472 56.6187 76.3472 56.6187C76.3472 56.6187 76.4277 57.3013 76.5478 57.8491C76.5478 57.8491 73.687 58.2373 72.7539 57.102L72.8257 56.4927L72.8271 56.4912Z" fill="#998570"/>
<path d="M74.7405 42.6777C70.614 42.6777 68.9001 44.9321 69.7893 50.4663C70.6785 56.002 73.0896 57.0991 74.7405 57.0991C76.3914 57.0991 78.8025 56.0005 79.6916 50.4663C80.5808 44.9307 78.8669 42.6777 74.7405 42.6777Z" fill="#ECD0A8"/>
<path d="M56.0199 138.959C54.4437 135.35 54.7337 130.838 54.763 123.281C54.7909 115.724 55.3299 105.708 56.4974 99.0024C57.6634 92.2964 59.0345 83.1176 59.5355 78.9267C60.0379 74.7358 60.0775 68.8413 60.5287 67.0659C61.2289 64.3105 65.8241 61.6123 68.0257 62.4018C70.2274 63.1914 70.3622 70.6108 69.1463 74.289C67.9305 77.9673 67.0018 78.2104 66.5038 80.5688C65.2498 86.5117 63.4041 97.646 63.1346 100.869C62.7831 105.073 58.6053 120.73 58.3783 123.433C58.1527 126.136 59.6805 126.587 59.5707 128.447C59.2689 133.562 57.7352 127.047 57.2049 135.027C56.8197 140.822 56.0184 138.96 56.0184 138.96L56.0199 138.959Z" fill="#ECD0A8"/>
<path d="M62.9194 88.0293H57.1992C57.1992 88.0293 59.2017 69.2836 59.7598 66.7583C60.3179 64.2329 63.8833 62.2407 66.542 62.0078C69.2007 61.7749 62.9209 88.0278 62.9209 88.0278L62.9194 88.0293Z" fill="#0E5DF7"/>
<path d="M61.8525 186.531C61.7017 191.203 46 189.544 46 194.592H69.102C69.102 191.503 68.2935 190.464 68.0312 186.556" fill="white"/>
<path d="M85.5698 175.023C84.6602 171.697 80.9614 155.925 80.8809 154.023C80.648 148.593 80.856 140.326 79.148 131.537C78.0742 126.01 76.0762 116.143 76.0762 116.143L73.2139 97.2959L89.0254 117.124C89.0254 117.124 89.5117 126.112 89.4854 129.728C89.3945 142.183 90.3218 146.729 90.8242 152.667C90.9282 153.896 91.7881 172.492 91.898 175.113" fill="#ECD0A8"/>
<path d="M87.2251 184.873C87.3481 189.404 86.0957 189.054 86.0957 194.591H97.0571C97.0571 194.591 97.8599 192.811 96.0405 190.749C94.5713 189.083 92.4224 186.653 91.876 185.005" fill="white"/>
<path d="M91.8745 185.006C91.791 184.753 91.7441 184.519 91.7441 184.309C91.7441 183.079 91.6621 180.06 91.8965 175.114L85.5684 175.025C86.5674 178.101 86.9834 180.574 87.2236 184.875" fill="white"/>
<path d="M61.6186 175.113C61.4457 164.187 61.2553 137.619 61.1732 135.152C60.9784 129.25 63.64 104.792 64.5438 97.5977H78.0482L75.9579 109.488C75.9579 109.488 71.7509 129.049 71.1488 134.323C70.5468 139.596 72.8817 145.999 71.9779 152.027C71.723 153.725 69.0131 172.261 68.5502 175.023" fill="#ECD0A8"/>
<path d="M68.5493 175.023C68.0718 180.354 67.8667 182.462 68.0923 187.309C68.0923 187.309 66.7329 187.259 64.7231 187.158C62.7134 187.057 61.8257 186.681 61.8257 186.681C61.9604 182.506 61.6162 177.373 61.6162 175.113" fill="white"/>
<path d="M86.8605 63.0112C82.3077 62.0064 80.0401 61.1611 78.4874 59.2715L71.8751 59.6963C71.8751 59.6963 70.4396 61.0762 66.1637 62.0986C66.1637 62.0986 62.5909 66.8696 62.5162 71.1514C62.4415 75.4331 63.1549 96.8433 63.1549 96.8433H86.7433C86.7433 96.8433 85.6197 91.397 86.5177 81.4053C86.6803 79.5962 86.859 63.0098 86.859 63.0098L86.8605 63.0112Z" fill="#0E5DF7"/>
<path d="M93.8626 140.116C95.635 136.599 95.5955 132.079 95.9851 124.532C96.3748 116.985 96.3909 106.955 95.597 100.195C94.803 93.4346 93.9431 84.1943 93.6736 79.9814C93.4041 75.7686 93.6912 69.8828 93.3382 68.084C92.7918 65.2935 87.5506 65.2158 85.3093 65.8823C83.0667 66.5488 83.3245 71.0796 84.3338 74.8193C85.343 78.5591 86.2586 78.8535 86.6248 81.2368C87.5476 87.2397 88.7737 98.4605 88.866 101.692C88.9846 105.909 92.2893 121.773 92.3655 124.485C92.4417 127.196 90.8904 127.561 90.8963 129.424C90.9153 134.548 92.8064 128.126 92.8943 136.126C92.9573 141.933 93.8611 140.118 93.8611 140.118L93.8626 140.116Z" fill="#ECD0A8"/>
<path d="M74.7192 117.077L74.4936 106.375L71.7061 117.08L74.7192 117.077Z" fill="black"/>
<path d="M62.919 88.0293L62.4722 72.3232L61.1641 88.0293H62.919Z" fill="#0B49AB"/>
<path d="M69.7217 60.8374L73.4731 63.2939L74.6816 60.0552L76.3354 63.2939L80.0459 60.5649L78.2441 57.7188L74.6816 59.4121L70.6357 58.1714L69.7217 60.8374Z" fill="#0E5DF7"/>
<path d="M63.1558 96.8447C63.1558 96.8447 61.1431 120.322 60.7666 122.356C60.3901 124.391 59.6299 188.124 59.6299 188.124H69.103L75.1558 121.076L84.6479 188.124H94.0581C94.0581 188.124 88.8403 101.036 86.7734 96.8447H63.1558V96.8447Z" fill="#0E5DF7"/>
<path d="M72.7233 82.8628L72.5124 82.0791C72.4772 81.9458 68.9337 68.8999 69.2516 61.1377L69.8361 60.9063C69.4494 67.5552 72.1007 78.1592 72.8698 81.1313C74.38 77.8018 79.4455 63.8257 79.9699 60.6221L80.4899 60.8887C79.882 64.6123 73.3825 81.4272 73.0617 82.1245L72.7233 82.8628V82.8628Z" fill="#272727"/>
<path d="M72.5942 86.8032C73.9202 86.8032 74.9951 85.7283 74.9951 84.4023C74.9951 83.0764 73.9202 82.0015 72.5942 82.0015C71.2683 82.0015 70.1934 83.0764 70.1934 84.4023C70.1934 85.7283 71.2683 86.8032 72.5942 86.8032Z" fill="#272727"/>
<path d="M71.0015 81.7426L70.0322 82.6013L70.5286 83.1616L71.4978 82.3029L71.0015 81.7426Z" fill="#272727"/>
<path d="M75.2106 82.6941L74.2949 81.7784L73.7656 82.3077L74.6813 83.2234L75.2106 82.6941Z" fill="#272727"/>
<path d="M73.4731 63.2939L69.9941 61.0161L73.8247 64.4497L74.6816 60.0552L73.4731 63.2939Z" fill="#0B49AB"/>
<path d="M76.3354 63.2939L74.7168 60.124L76.2095 64.4497L79.7808 60.7598L76.3354 63.2939Z" fill="#0B49AB"/>
<path d="M85.6984 88.2607L95.6871 87.8843C95.6871 87.8843 94.464 70.2256 93.837 67.936C93.4928 66.6792 90.1544 63.8901 86.7911 62.9746C84.0387 62.2261 82.5724 66.7993 81.9176 70.4394C81.2584 74.1045 80.4381 76.5478 83.5861 78.5371L84.9967 79.4907L85.6969 88.2607H85.6984Z" fill="#0E5DF7"/>
<path d="M86.7944 88.2241L84.7979 72.6104L85.7588 88.2607L86.7944 88.2241Z" fill="#0B49AB"/>
<path d="M63.1357 96.8345L86.7739 96.8447L87.1343 98.0078L63.1357 97.2856V96.8345Z" fill="#0B49AB"/>
<path d="M69.5616 47.9746C70.5211 46.7471 69.6671 45.5078 70.3248 45.2383C70.9811 44.9673 72.336 46.7134 75.1046 46.5552C77.8732 46.397 78.0065 44.3257 78.7931 44.9102C79.5782 45.4932 79.1241 48.4111 79.921 47.7109C79.921 47.7109 80.7472 42.6777 74.7413 42.6777C68.378 42.6777 69.5616 47.9746 69.5616 47.9746Z" fill="#E5E5E5"/>
<path d="M91.665 47.2979C90.5561 51.7144 88.8408 61.9024 88.8408 61.9024L106.3 62.7696C106.3 62.7696 104.507 45.9458 101.462 41.73C99.4521 38.9468 94.2798 40.4571 93.5298 41.919C92.1777 44.5542 91.665 47.2994 91.665 47.2994V47.2979Z" fill="#D0B080"/>
<path d="M95.041 54.8638H100.423L99.1938 56.1997L95.6152 56.3418L95.041 54.8638Z" fill="#E5E5E5"/>
<path d="M87.793 188.11H96.6406L98.2798 114.613V107.55L82.9121 106.195L87.793 188.11Z" fill="#272727"/>
<path d="M107.508 188.11H99.0898L98.2798 111.996L97.0215 107.55L112.389 106.195L107.508 188.11Z" fill="#272727"/>
<path d="M83.1348 109.94L83.2432 111.763L97.6719 114.481L98.8892 111.996L100.033 114.613L112.076 111.468L112.167 109.94L109.73 103.583L85.8125 103.885L83.1348 109.94Z" fill="black"/>
<path d="M97.5781 61.6709C94.6939 61.6709 94.3789 56.6714 94.3789 56.6714C95.731 56.3916 95.8071 54.0039 95.9126 52.397H99.2305C99.3359 54.0039 99.4121 56.3916 100.764 56.6714C100.764 56.6714 100.5 61.6709 97.5708 61.6709" fill="#F2CBD2"/>
<path d="M95.8184 53.7124C96.4292 54.1724 99.3384 53.8398 99.3384 53.8398C99.3384 53.8398 99.4189 54.5225 99.539 55.0703C99.539 55.0703 96.6782 55.4585 95.7451 54.3232L95.8169 53.7139L95.8184 53.7124Z" fill="#D1B0B8"/>
<path d="M97.6856 40.356C93.6661 40.356 91.9976 42.5518 92.8634 47.9438C93.7291 53.3359 96.0787 54.4053 97.6856 54.4053C99.2926 54.4053 101.642 53.3359 102.508 47.9438C103.374 42.5518 101.704 40.356 97.6856 40.356Z" fill="#F2CBD2"/>
<path d="M94.9268 72.4067L100.2 72.6323L101.035 56.6143L98.2798 55.9844H95.4175L92.9316 57.4522L94.9268 72.4067Z" fill="white"/>
<path d="M94.3779 56.5718L95.0972 55.2769L97.7075 56.147L100.479 55.2769L101.036 56.6143L99.2324 58.6958L97.8086 56.6992L96.5913 58.6958L94.3779 56.5718Z" fill="#E5E5E5"/>
<path d="M97.25 56.2217H98.3545L99.0078 57.0347L98.2461 58.1113H97.2309L96.5293 57.2222L97.25 56.2217Z" fill="#F24A24"/>
<path d="M97.2754 57.6543L96.0449 70.2095L97.7075 72.814L99.8872 69.3057L98.1792 57.6543H97.2754Z" fill="#F24A24"/>
<path d="M94.3779 56.6143L95.0415 54.8638L97.6753 56.0019L100.423 54.8638L101.036 56.6143L99.1768 58.2812L97.7515 56.2847L96.5356 58.2812L94.3779 56.6143Z" fill="white"/>
<path d="M94.3779 56.6143L85.3896 59.8853L87.3569 80.5806L80.8779 109.623L96.4976 111.996L98.8897 107.299L97.6856 70.9888L94.3779 56.6714" fill="#272727"/>
<path d="M101.035 56.6143L109.911 59.8853L107.987 80.3477L114.465 109.39L100.64 111.996L98.8892 107.299L97.6719 70.9316L101.035 56.6143Z" fill="#272727"/>
<path d="M92.9321 57.4521L91.6636 62.5879L91.6211 62.5249L94.186 62.8413L94.3648 62.8633L94.2212 62.9731L91.145 65.3081L91.1611 65.1748C93.1387 67.5566 97.0659 72.3086 99.0273 74.7007C99.0493 85.0996 99.0215 96.9107 98.938 107.299C98.9438 107.321 96.8316 111.448 96.8257 111.468L98.8501 107.279C98.8369 107.38 98.7974 99.1416 98.7915 99.1621C98.7813 91.8101 98.6831 81.8843 98.7871 74.8354C96.8433 72.4668 92.9439 67.6753 91.0147 65.2935L90.9531 65.2173L91.0308 65.1587L94.1318 62.856L94.1655 62.9878L91.6065 62.6274L91.5493 62.6187L91.564 62.563L92.9321 57.4536V57.4521Z" fill="black"/>
<path d="M101.876 57.4521C102.329 58.9639 102.915 61.1274 103.34 62.6699L103.209 62.689L100.652 63.0522L100.716 62.8047C101.551 63.4258 103.101 64.5859 103.93 65.2129C101.888 67.5566 99.8242 69.8813 97.7119 72.1606C99.6382 69.7876 101.616 67.4556 103.614 65.1411L103.636 65.3491C102.73 64.6738 101.175 63.5005 100.277 62.8193C100.35 62.812 103.001 62.4839 103.18 62.4619L103.084 62.604C102.716 61.0952 102.206 58.9492 101.876 57.4521V57.4521Z" fill="black"/>
<path d="M86.5508 84.1885L85.8125 87.5034L103.06 81.9854L98.8423 80.5029L86.5508 84.1885Z" fill="black"/>
<path d="M103.06 81.9854L108.874 84.3218L109.234 85.9419L100.141 82.9199L103.06 81.9854Z" fill="black"/>
<path d="M82.1055 76.6841C83.2554 74.5205 88.7515 72.2383 89.6553 72.1446C90.5591 72.0508 93.1299 72.1446 93.1299 72.1446L88.5449 75.3189L82.1055 76.6841V76.6841Z" fill="#F2CBD2"/>
<path d="M109.911 59.8853L120.21 79.9185C121.076 81.6016 120.607 83.6641 119.1 84.8081L117.543 85.9902C116.956 86.4356 116.189 86.5718 115.485 86.355L88.2227 76.7676C88.438 72.8374 93.1284 72.1445 93.1284 72.1445L110.559 76.0146L107.507 74.4033L109.911 59.8853Z" fill="#272727"/>
<path d="M105.729 72.2647C107.837 71.5147 110.677 72.6309 111.692 73.2036C112.708 73.7749 114.465 77.8428 114.465 77.8428L106.731 75.6323L105.728 72.2632L105.729 72.2647Z" fill="#F2CBD2"/>
<path d="M85.3894 59.8853L75.0901 79.9185C74.2244 81.6016 74.6931 83.6641 76.2005 84.8081L77.7576 85.9902C78.345 86.4356 79.1111 86.5718 79.8157 86.355L110.673 76.8643C110.457 72.9341 105.767 72.2412 105.767 72.2412L82.1052 76.4878L86.7166 73.2549L85.3894 59.8867V59.8853Z" fill="#272727"/>
<path d="M110.673 76.7603L98.8428 80.5029L100.141 80.9585L111.313 76.9419L110.673 76.7603Z" fill="black"/>
<path d="M86.7163 73.2549L85.9194 65.2334L85.5078 74.1016L86.7163 73.2549Z" fill="black"/>
<path d="M107.9 72.0405L109.081 64.9023V72.2295L107.9 72.0405Z" fill="black"/>
<path d="M97.8215 40.0015C97.7658 42.3115 97.8039 45.1328 97.1213 45.5005C96.4387 45.8682 92.3884 44.7285 92.6096 48.332C92.6096 48.332 92.0676 43.0103 93.928 41.3813C95.4763 40.0249 97.8215 40 97.8215 40V40.0015Z" fill="#D0B080"/>
<path d="M97.7701 40.0015C97.8287 42.3115 97.3673 45.3496 98.129 45.5005C98.9024 45.6543 103.148 44.7285 102.913 48.332C102.913 48.332 103.483 44.2466 101.984 41.9878C100.679 40.022 97.7701 40 97.7701 40V40.0015Z" fill="#D0B080"/>
<path d="M95.0151 188.11H90.0435C90.0435 188.11 89.9937 188.862 89.3403 189.414C88.687 189.966 84.9707 190.921 84.6689 194.487V194.737H95.0151C95.0151 194.737 94.9653 190.318 95.0151 188.109" fill="#272727"/>
<path d="M100.293 188.11H105.265C105.265 188.11 105.314 188.862 105.968 189.414C106.621 189.966 110.337 190.921 110.639 194.487V194.737H100.293C100.293 194.737 100.343 190.318 100.293 188.109" fill="#272727"/>
<path d="M101 11.9277H151.786C151.786 11.9277 151.319 8.1668 148.713 8.1668C146.108 8.1668 144.905 10.0472 144.905 10.0472C144.905 10.0472 142.165 0 129.001 0C115.838 0 114.032 9.88597 114.032 9.88597C114.032 9.88597 113.03 5.96384 108.347 5.96384C102.132 5.96384 101.001 11.9277 101.001 11.9277" fill="#97A1FF"/>
<path d="M138.689 37.8668H202.761C202.154 28.8878 186.363 33.7582 186.363 33.7582C186.059 22.6487 147.419 18.2931 146.736 35.5839C146.736 35.5839 138.689 30.8703 138.689 37.8668Z" fill="#97A1FF"/>
<path d="M184.296 37.161H129.485C129.322 37.161 129.189 37.0279 129.189 36.8651C129.189 35.2761 129.662 34.1991 130.592 33.6635C132.31 32.6752 135.06 33.8973 136.102 34.4328C136.723 27.204 144.945 24.6578 152.543 24.7081C160.89 24.7584 169.968 27.9186 170.536 32.9652C172.203 32.4977 179.124 30.7637 182.609 33.1664C183.815 33.9964 184.481 35.2362 184.59 36.8474C184.596 36.9287 184.567 37.0101 184.512 37.0693C184.456 37.1299 184.378 37.1625 184.296 37.1625V37.161ZM129.786 36.5692H183.972C183.815 35.3013 183.245 34.3204 182.276 33.6517C178.613 31.1276 170.437 33.6073 170.356 33.6324C170.268 33.6591 170.172 33.6443 170.098 33.5895C170.024 33.5348 169.977 33.449 169.975 33.3572C169.845 28.5992 160.856 25.3487 152.541 25.2984C152.475 25.2984 152.407 25.2984 152.34 25.2984C144.907 25.2984 136.945 27.821 136.664 34.924C136.66 35.0276 136.602 35.1223 136.511 35.1711C136.419 35.2214 136.31 35.2199 136.22 35.1667C136.185 35.1459 132.7 33.1324 130.885 34.1754C130.206 34.566 129.837 35.3708 129.786 36.5677V36.5692Z" fill="#97A1FF"/>
<path d="M0 29.2521H103.1C102.122 18.6749 87.2196 24.4127 87.2196 24.4127C87.2196 6.92345 39.6382 8.69768 39.6382 24.8309C39.6382 13.0598 12.9497 20.1112 12.9497 26.5642C12.9497 21.5127 0.00151908 22.534 0.00151908 29.2536L0 29.2521Z" fill="#99A3FF"/>
</svg>
