<svg width="100%" height="100%" viewBox="0 0 203 195" fill="none" preserveAspectRatio="xMidYMid meet" xmlns="http://www.w3.org/2000/svg">
<path d="M145.929 177.092C148.837 180.31 149.686 182.855 150.187 187.06C150.428 189.082 149.051 194.161 149.051 194.161H162.084C162.084 194.161 156.784 187.77 156.136 185.386C155.487 183.003 152.256 177.092 152.256 177.092H145.929Z" fill="#4C381A"/>
<path d="M135.345 95.5206C133.901 89.357 133.901 67.2919 136.029 63.4881C136.029 63.4881 130.253 61.51 126.075 61.51C121.896 61.51 112.852 64.1731 112.852 64.1731L112.396 95.2173L135.344 95.522L135.345 95.5206Z" fill="#BED2FA"/>
<path d="M112.229 88.3687L112.376 93.0054L125.828 91.486L134.911 92.7021L134.422 85.7382L112.229 88.3687Z" fill="#9EAFCC"/>
<path d="M113.053 64.1345C107.695 65.7324 96.1217 81.5082 94.2984 86.2248C92.6051 90.6027 93.8492 99.8805 99.427 95.7735C108.279 89.2563 130.607 90.1558 130.607 85.4762C130.607 80.7966 130.267 74.8623 124.869 75.318C114.662 76.1806 105.405 82.8383 105.405 82.8383C105.405 82.8383 110.453 79.0715 114.662 76.1806C117.478 74.2454 113.053 64.1331 113.053 64.1331V64.1345Z" fill="#BED2FA"/>
<path d="M112.898 76.1303C112.935 72.3442 112.783 71.4684 112.783 71.4684C112.783 71.4684 105.297 81.2463 103.815 84.0234C103.815 84.0234 111.49 78.3554 113.163 78.203L112.897 76.1303H112.898Z" fill="#9EAFCC"/>
<path d="M112.396 95.2158C111.636 100.237 109.85 174.348 114.789 179.522H131.204C130.14 169.477 127.898 138.586 126.987 126.108C126.987 126.108 128.845 135.918 130.061 142.885C131.278 149.852 136.656 169.174 142.792 178.289H159.054C155.982 159.435 149.879 150 144.617 137.37C136.997 119.079 138.538 102.461 135.347 95.5206L112.399 95.2158H112.396Z" fill="#F24A24"/>
<path d="M129.405 179.522H122.388C123.527 185.761 123.832 188.728 122.009 189.641C120.185 190.554 111.383 190.631 109.85 194.055H130.138C130.138 194.055 129.872 190.631 128.694 188.424C127.939 187.008 129.404 179.522 129.404 179.522H129.405Z" fill="#4C381A"/>
<path d="M122.1 61.9804C120.876 63.7824 116.729 68.7639 121.152 68.579C125.574 68.394 127.959 61.47 127.959 61.47C127.959 61.47 126.771 59.6768 126.679 57.7861C126.588 55.8953 128.154 54.5578 129.12 53.4038C130.087 52.2498 130.732 48.1457 128.844 46.9C126.956 45.6542 120.186 44.7784 119.194 47.8232C118.203 50.868 118.387 57.5094 118.847 57.7402C120.468 58.5524 121.749 57.1869 122.347 58.0169C122.946 58.8469 122.097 61.9804 122.097 61.9804H122.1Z" fill="#4C381A"/>
<path d="M127.192 46.5775C128.537 46.5775 129.627 45.4858 129.627 44.1393C129.627 42.7927 128.537 41.701 127.192 41.701C125.847 41.701 124.757 42.7927 124.757 44.1393C124.757 45.4858 125.847 46.5775 127.192 46.5775Z" fill="#272727"/>
<path d="M132.062 54.6702C133.407 54.6702 134.497 53.5786 134.497 52.232C134.497 50.8854 133.407 49.7938 132.062 49.7938C130.717 49.7938 129.627 50.8854 129.627 52.232C129.627 53.5786 130.717 54.6702 132.062 54.6702Z" fill="#272727"/>
<path d="M131.682 49.5572C133.027 49.5572 134.117 48.4656 134.117 47.119C134.117 45.7724 133.027 44.6808 131.682 44.6808C130.337 44.6808 129.247 45.7724 129.247 47.119C129.247 48.4656 130.337 49.5572 131.682 49.5572Z" fill="#272727"/>
<path d="M119.09 48.1753C118.999 48.8958 123.143 48.0924 123.725 48.6251C124.308 49.1577 123.396 50.9331 123.548 51.4908C123.7 52.0486 125.017 50.0735 126.056 49.819C127.094 49.5645 127.651 51.3384 126.588 52.3282C125.524 53.318 126.106 55.1792 127.702 55.0475C127.702 55.0475 130.991 51.8933 130.057 48.8529C129.325 46.4694 128.059 46.2298 124.968 45.817C121.876 45.4042 119.343 46.178 119.089 48.1753H119.09Z" fill="#272727"/>
<path d="M126.987 126.108C123.321 116.825 122.789 113.597 122.789 113.597C122.789 113.597 122.986 133.603 127.978 139.632L126.987 126.106V126.108Z" fill="#E33E23"/>
<path d="M125.874 88.45L116.681 85.5458L122.485 89.5863L125.874 88.45Z" fill="#9EAFCC"/>
<path d="M106.562 81.9817C107.625 77.8791 114.08 74.8698 117.894 75.2204L117.726 80.8469L114.806 81.3899C114.265 81.4905 113.714 81.2686 113.393 80.8218C112.653 79.7906 111.266 79.4665 110.147 80.0643L106.562 81.9802V81.9817Z" fill="#4C381A"/>
<path d="M136.029 63.488C141.387 65.0859 152.367 83.1949 154.19 87.913C155.883 92.2908 154.262 102.038 149.061 97.4616C138.983 88.598 115.38 88.4826 115.38 83.8044C115.38 79.1263 115.265 73.2823 120.661 73.7394C130.868 74.602 140.703 83.0055 140.703 83.0055C140.703 83.0055 136.001 78.567 134.42 75.5355C132.838 72.5041 136.029 63.488 136.029 63.488V63.488Z" fill="#BED2FA"/>
<path d="M133.685 73.7379V70.1117L140.702 83.004L138.596 81.3766L133.685 77.9737V73.7379Z" fill="#9EAFCC"/>
<path d="M138.596 81.3766C138.855 81.3396 139.011 81.3145 139.011 81.3145C139.266 80.2566 134.681 74.7559 132.893 73.8238C131.423 73.0574 129.874 74.025 127.541 75.4069C127.541 75.4069 130.672 76.5831 133.306 78.0034C135.941 79.4237 138.598 81.3751 138.598 81.3751L138.596 81.3766Z" fill="#4C381A"/>
<path d="M103.787 60.387C106.568 60.387 122.2 77.0653 122.904 79.0064C123.607 80.946 123.95 81.7405 123.95 81.7405L123.082 112.899C122.969 118.377 122.741 125.795 120.461 126.766C118.181 127.736 118.979 125.301 118.979 125.301C118.979 125.301 119.32 118.377 117.27 117.692C116.207 117.337 118.143 113.203 119.284 111.376C120.423 109.551 116.034 83.1091 115.513 81.7405C114.991 80.3705 104.96 70.7834 104.96 70.7834L101.953 60.245L103.788 60.387H103.787Z" fill="#ECD0A8"/>
<path d="M116.571 87.3123C116.679 86.7353 116.744 86.1435 116.769 85.5443C115.228 85.8106 113.378 85.969 111.361 85.969C108.43 85.969 105.147 85.6346 101.946 84.8149C101.946 88.0713 103.66 90.9252 106.234 92.5231C107.458 92.3678 108.687 91.4801 110.092 90.4622C111.904 89.1513 113.937 87.6792 116.573 87.3108L116.571 87.3123Z" fill="#F24A24"/>
<path d="M116.776 85.25C116.786 84.6596 116.757 84.0678 116.686 83.4805C116.334 83.5101 116 83.5234 115.684 83.5234C112.358 83.5234 110.891 81.9906 109.345 80.3765C108.333 79.3201 107.289 78.2312 105.653 77.4989C103.481 79.0923 102.045 81.6296 101.95 84.5102C107.371 85.9128 113.029 85.9083 116.775 85.25H116.776Z" fill="#F24A24"/>
<path d="M109.561 80.1737C111.2 81.8855 112.75 83.5026 116.649 83.1875C116.439 81.7124 115.974 80.2921 115.256 79.0922C114.11 77.1793 112.448 76.0253 110.498 75.7678C108.813 75.8596 107.25 76.4114 105.934 77.3021C107.529 78.0551 108.561 79.1292 109.56 80.1737H109.561Z" fill="#F24A24"/>
<path d="M115.484 90.3897C115.954 89.5597 116.294 88.6187 116.507 87.623C113.991 88.0062 112.02 89.4295 110.263 90.7019C108.957 91.6473 107.798 92.4861 106.625 92.7539C107.748 93.3753 109.016 93.7629 110.365 93.8561C113.12 93.5514 114.661 91.844 115.484 90.3897V90.3897Z" fill="#F24A24"/>
<path d="M117.006 83.4524C116.997 83.4524 116.988 83.4539 116.978 83.4553C117.046 84.0323 117.077 84.6168 117.069 85.1982C118.316 84.9615 119.333 84.6493 120.032 84.2927C119.971 83.2393 119.733 82.2333 119.343 81.3071C119.29 81.6874 119.166 82.0972 118.91 82.4597C118.51 83.0278 117.869 83.3621 117.004 83.4524H117.006Z" fill="#F24A24"/>
<path d="M115.509 78.9398C116.248 80.1752 116.727 81.6399 116.941 83.1608C116.953 83.1608 116.963 83.1593 116.975 83.1579C117.749 83.0765 118.32 82.785 118.67 82.2894C119.016 81.8012 119.088 81.1975 119.082 80.7404C117.714 78.027 115.026 76.0948 111.861 75.7944C113.33 76.3226 114.584 77.3908 115.511 78.9398H115.509Z" fill="#F24A24"/>
<path d="M119.129 88.0328C118.892 87.6511 118.26 87.4795 117.302 87.5357C117.138 87.5461 116.977 87.5609 116.818 87.5801C116.6 88.6453 116.243 89.6529 115.743 90.5361C115.042 91.7745 113.842 93.1903 111.857 93.8398C115.149 93.5291 117.927 91.4519 119.239 88.5654C119.254 88.3849 119.23 88.197 119.13 88.0328H119.129Z" fill="#F24A24"/>
<path d="M116.875 87.2754C117.009 87.2606 117.145 87.2487 117.284 87.2413C118.373 87.1762 119.08 87.3908 119.381 87.879C119.413 87.9308 119.437 87.984 119.459 88.0388C119.839 87.0372 120.049 85.9527 120.049 84.8179C120.049 84.7499 120.046 84.6833 120.044 84.6152C119.319 84.96 118.299 85.2618 117.064 85.4926C117.043 86.0947 116.98 86.6924 116.876 87.2754H116.875Z" fill="#F24A24"/>
<path d="M116.57 87.3123C116.671 87.299 116.773 87.2857 116.875 87.2753C116.978 86.6924 117.042 86.0947 117.062 85.4926C116.965 85.5103 116.867 85.5281 116.768 85.5458C116.745 86.1435 116.678 86.7368 116.57 87.3138V87.3123Z" fill="black"/>
<path d="M116.979 83.4539C116.88 83.4642 116.784 83.4731 116.688 83.4805C116.757 84.0664 116.788 84.6596 116.778 85.25C116.877 85.2322 116.976 85.2144 117.072 85.1967C117.079 84.6153 117.048 84.0323 116.98 83.4539H116.979Z" fill="black"/>
<path d="M115.255 79.0923C115.973 80.2921 116.437 81.7124 116.649 83.1875C116.745 83.1801 116.842 83.1712 116.941 83.1609C116.727 81.64 116.248 80.1767 115.509 78.9399C114.583 77.3923 113.329 76.3227 111.86 75.7945C111.576 75.7679 111.288 75.7531 110.997 75.7531C110.83 75.7531 110.663 75.759 110.499 75.7679C112.449 76.0268 114.113 77.1793 115.257 79.0923H115.255Z" fill="black"/>
<path d="M115.742 90.5361C116.243 89.6529 116.599 88.6453 116.816 87.5801C116.711 87.5919 116.609 87.6082 116.507 87.6245C116.293 88.6202 115.953 89.5611 115.485 90.3911C114.662 91.8455 113.122 93.5528 110.365 93.8576C110.574 93.8724 110.783 93.8812 110.996 93.8812C111.286 93.8812 111.572 93.8664 111.856 93.8398C113.839 93.1903 115.04 91.7759 115.742 90.5361V90.5361Z" fill="black"/>
<path d="M101.944 84.8149C101.944 84.7128 101.949 84.6122 101.952 84.5116Z" fill="black"/>
<path d="M116.769 85.5443C116.773 85.4467 116.775 85.3475 116.776 85.2499C113.031 85.9083 107.373 85.9127 101.952 84.5101C101.949 84.6107 101.944 84.7128 101.944 84.8134C105.145 85.6346 108.429 85.9674 111.359 85.9674C113.376 85.9674 115.226 85.8091 116.767 85.5428L116.769 85.5443Z" fill="black"/>
<path d="M117.07 85.1967C117.07 85.2958 117.067 85.3935 117.062 85.4911C118.298 85.2603 119.317 84.9585 120.043 84.6138C120.04 84.5058 120.038 84.3978 120.031 84.2913C119.332 84.6478 118.315 84.9585 117.068 85.1967H117.07Z" fill="black"/>
<path d="M116.769 85.5443C116.868 85.5266 116.967 85.5088 117.063 85.4911C117.066 85.3934 117.069 85.2943 117.07 85.1967C116.974 85.2144 116.875 85.2322 116.776 85.2499C116.774 85.3476 116.772 85.4467 116.769 85.5443Z" fill="black"/>
<path d="M105.656 77.5004C105.748 77.4323 105.841 77.3657 105.935 77.3021Z" fill="black"/>
<path d="M118.669 82.2895C118.319 82.7836 117.749 83.0766 116.974 83.158C116.963 83.158 116.952 83.1594 116.94 83.1609C116.954 83.2586 116.966 83.3562 116.977 83.4553C116.986 83.4553 116.995 83.4539 117.005 83.4524C117.868 83.3621 118.51 83.0278 118.911 82.4596C119.167 82.0972 119.291 81.6873 119.344 81.3071C119.263 81.1148 119.175 80.9269 119.081 80.7419C119.087 81.2006 119.015 81.8027 118.669 82.291V82.2895Z" fill="black"/>
<path d="M109.347 80.378C110.891 81.9906 112.36 83.5249 115.686 83.5249C116.002 83.5249 116.336 83.5101 116.688 83.482C116.676 83.3843 116.664 83.2852 116.649 83.1875C112.75 83.5027 111.2 81.8856 109.561 80.1738C108.561 79.1293 107.531 78.0552 105.935 77.3021C105.841 77.3657 105.749 77.4338 105.656 77.5004C107.292 78.2342 108.337 79.3216 109.349 80.378H109.347Z" fill="black"/>
<path d="M116.942 83.1609C116.843 83.1712 116.745 83.1801 116.649 83.1875C116.663 83.2852 116.676 83.3828 116.688 83.4819C116.784 83.4745 116.881 83.4657 116.979 83.4553C116.967 83.3577 116.955 83.2585 116.942 83.1609Z" fill="black"/>
<path d="M117.284 87.2413C117.147 87.2501 117.009 87.262 116.875 87.2753C116.857 87.3774 116.838 87.4795 116.817 87.5801C116.977 87.5623 117.138 87.546 117.302 87.5357C118.261 87.4795 118.892 87.6511 119.128 88.0328C119.23 88.197 119.252 88.3849 119.238 88.5654C119.316 88.3923 119.39 88.2163 119.458 88.0387C119.436 87.984 119.412 87.9307 119.379 87.8789C119.078 87.3922 118.372 87.1777 117.283 87.2413H117.284Z" fill="black"/>
<path d="M116.508 87.6245C116.531 87.521 116.551 87.4174 116.572 87.3138C113.936 87.6822 111.901 89.1528 110.091 90.4652C108.688 91.4816 107.457 92.3707 106.233 92.5261C106.362 92.606 106.493 92.6844 106.628 92.7569C107.801 92.4876 108.96 91.6502 110.266 90.7048C112.023 89.4325 113.995 88.0092 116.51 87.626L116.508 87.6245Z" fill="black"/>
<path d="M116.508 87.6246C116.61 87.6083 116.712 87.592 116.817 87.5802C116.838 87.4796 116.857 87.3775 116.875 87.2754C116.773 87.2857 116.671 87.2991 116.57 87.3124C116.551 87.4174 116.529 87.521 116.507 87.6231L116.508 87.6246Z" fill="black"/>
<path d="M106.273 186.02C106.426 190.738 122.264 189.063 122.264 194.161H98.9609C98.9609 191.041 99.7766 189.992 100.041 186.045" fill="#272727"/>
<path d="M86.3973 158.096C87.3148 154.736 87.3473 150.201 87.3665 148.279C87.4168 143.105 87.3163 140.265 89.0377 131.388C90.1207 125.806 91.9248 114.927 91.9248 114.927L94.812 95.8919L82.7861 95.4347C82.7861 95.4347 78.3711 124.995 78.3977 128.648C78.4893 141.228 76.7768 145.882 76.27 151.88C76.1651 153.122 76.0971 155.416 75.9863 158.063" fill="#ECD0A8"/>
<path d="M80.6793 184.346C80.5552 188.922 81.8185 188.569 81.8185 194.161H70.7619C70.7619 194.161 69.9522 192.364 71.7873 190.28C73.2693 188.598 75.4369 186.144 75.9881 184.479" fill="#272727"/>
<path d="M75.9892 184.479C76.0734 184.223 76.1207 183.987 76.1207 183.775C76.1207 182.532 75.6021 167.325 75.9892 158.065L86.3987 158.096C84.3655 165.539 80.9169 175.617 80.6805 184.346" fill="white"/>
<path d="M106.484 158.065C106.658 147.029 106.875 136.618 106.958 134.128C107.155 128.167 104.47 103.464 103.558 96.1981H89.9366L88.9688 119.317C88.9688 119.317 96.2886 127.966 96.8974 133.292C97.5047 138.618 95.1494 145.085 96.0611 151.173C96.3182 152.888 96.7304 155.277 97.1973 158.066" fill="#ECD0A8"/>
<path d="M97.1953 158.065C98.6123 166.554 100.517 178.74 99.9761 186.805C99.9761 186.805 101.347 186.755 103.374 186.653C105.402 186.551 106.297 186.171 106.297 186.171C106.161 181.954 106.296 169.951 106.483 158.063" fill="white"/>
<path d="M81.1359 95.4362H104.959C104.959 95.4362 107.032 118.783 107.58 128.37H92.9904L94.6615 122.054L94.1296 128.42H78.3994C78.3994 128.42 78.8043 112.974 79.4633 107.293C80.1666 101.225 81.1344 95.4362 81.1344 95.4362H81.1359Z" fill="#F24A24"/>
<path d="M95.3057 128.392L95.3677 105.182L98.6139 128.312L95.3057 128.392Z" fill="#E33E23"/>
<path d="M81.0181 61.1681C86.6919 60.3071 88.4428 59.3824 89.4565 56.8969L96.175 57.8112C96.175 57.8112 97.6259 59.2078 101.952 60.2449C101.952 60.2449 105.566 65.077 105.642 69.4134C105.717 73.7497 104.958 95.4361 104.958 95.4361H81.1348C81.1348 95.4361 82.2711 89.9191 81.3624 79.7994C81.1983 77.9663 81.0166 61.1681 81.0166 61.1681H81.0181Z" fill="#272727"/>
<path d="M73.9843 139.14C72.1964 135.588 72.2363 131.022 71.8433 123.4C71.4503 115.778 71.434 105.648 72.2348 98.8197C73.0357 91.9919 73.903 82.6592 74.1749 78.4042C74.4468 74.1492 74.1572 68.2046 74.5132 66.3878C75.0644 63.5693 79.5414 60.5926 81.8036 61.2658C84.0657 61.9389 84.6154 69.4133 83.5959 73.1905C82.5763 76.9676 81.6543 77.265 81.2849 79.6721C80.3541 85.7351 79.1173 97.068 79.0243 100.332C78.9046 104.591 75.5712 120.614 75.4944 123.353C75.4175 126.091 76.9823 126.46 76.9764 128.342C76.9571 133.517 75.0496 127.031 74.961 135.11C74.8974 140.975 73.9858 139.142 73.9858 139.142L73.9843 139.14Z" fill="#ECD0A8"/>
<path d="M97.5506 42.0102C93.9128 40.8636 90.0534 41.1477 88.7355 43.3284C88.1045 44.3715 88.533 47.6915 89.2423 49.2627C89.9515 50.8354 90.2559 54.4616 89.458 56.8969C89.3309 59.9653 93.9808 66.154 94.9678 66.154C97.2448 66.154 96.639 59.2566 96.639 59.2566C96.639 59.2566 94.9737 54.4794 95.8544 54.5386C95.9135 54.543 96.9552 54.7797 97.0276 54.7989C97.9791 55.0771 99.1213 55.1644 99.2232 54.0311C99.4729 51.2467 100.287 42.8713 97.5521 42.0087L97.5506 42.0102Z" fill="#ECD0A8"/>
<path d="M89.6868 50.7777C90.5586 51.3931 93.428 51.9524 90.8896 48.6368C89.0899 46.2874 92.6878 45.7622 92.7882 47.69C92.8902 49.6177 95.3208 48.4001 93.9792 45.3065C93.4103 43.9942 97.7632 45.7592 99.2954 45.1275C99.2954 45.1275 99.2437 42.5295 97.5489 42.0087C96.4881 41.6832 94.8465 41.2187 93.2138 41.1669C91.4939 41.1121 89.7858 41.516 88.784 43.0236C86.8307 45.9604 89.6853 50.7777 89.6853 50.7777H89.6868Z" fill="#F24A24"/>
<path d="M99.295 45.129C99.8462 44.8242 101.08 42.2913 99.6733 41.3489C98.2681 40.4065 96.368 39.9315 95.7223 40.5588C95.0766 41.1861 93.2148 41.1699 93.2148 41.1699L95.4563 43.7546L98.8193 44.8583L99.295 45.1305V45.129Z" fill="#F24A24"/>
<path d="M9.5 48.8668H73.5713C72.9646 39.8878 57.1733 44.7582 57.1733 44.7582C56.8693 33.6487 18.2296 29.2931 17.5462 46.5839C17.5462 46.5839 9.5 41.8703 9.5 48.8668Z" fill="#97A1FF"/>
<path d="M55.1069 48.161H0.295218C0.132848 48.161 0 48.0279 0 47.8651C0 46.2761 0.472349 45.1991 1.40229 44.6635C3.12046 43.6752 5.87042 44.8973 6.91254 45.4328C7.53398 38.204 15.7558 35.6578 23.3533 35.7081C31.7006 35.7584 40.7785 38.9186 41.3468 43.9652C43.0133 43.4977 49.9347 41.7637 53.4198 44.1664C54.6257 44.9964 55.2915 46.2362 55.4007 47.8474C55.4066 47.9287 55.3771 48.0101 55.3225 48.0693C55.2664 48.1299 55.1881 48.1625 55.1069 48.1625V48.161ZM0.596338 47.5692H54.7822C54.6257 46.3013 54.056 45.3204 53.0862 44.6517C49.424 42.1276 41.2479 44.6073 41.1667 44.6324C41.0782 44.6591 40.9822 44.6443 40.9084 44.5895C40.8346 44.5348 40.7874 44.449 40.7859 44.3572C40.656 39.5992 31.6666 36.3487 23.3518 36.2984C23.2854 36.2984 23.2175 36.2984 23.151 36.2984C15.7174 36.2984 7.75539 38.821 7.47493 45.924C7.4705 46.0276 7.41294 46.1223 7.32142 46.1711C7.2299 46.2214 7.12067 46.2199 7.03063 46.1667C6.9952 46.1459 3.51015 44.1324 1.69603 45.1754C1.01703 45.566 0.648001 46.3708 0.596338 47.5677V47.5692Z" fill="#97A1FF"/>
<path d="M50.9492 11.9277H101.736C101.736 11.9277 101.268 8.1668 98.6624 8.1668C96.0571 8.1668 94.8541 10.0472 94.8541 10.0472C94.8541 10.0472 92.1145 0 78.9507 0C65.7869 0 63.9816 9.88597 63.9816 9.88597C63.9816 9.88597 62.9794 5.96384 58.2957 5.96384C52.0814 5.96384 50.9507 11.9277 50.9507 11.9277" fill="#97A1FF"/>
<path d="M99.6602 29.2521H202.76C201.783 18.6749 186.88 24.4127 186.88 24.4127C186.88 6.92345 139.298 8.69768 139.298 24.8309C139.298 13.0598 112.61 20.1112 112.61 26.5642C112.61 21.5127 99.6617 22.534 99.6617 29.2536L99.6602 29.2521Z" fill="#99A3FF"/>
</svg>
