<svg width="100%" height="100%" viewBox="0 0 300 225" fill="none" preserveAspectRatio="xMidYMid meet" xmlns="http://www.w3.org/2000/svg">
<g clip-path="url(#clip0_1124_10928)">
<rect width="300" height="225" fill="#707DFF"/>
<path d="M299.376 -74H0V225.023H299.376V-74Z" fill="url(#paint0_linear_1124_10928)"/>
<path d="M234.196 147C223.992 147 213.616 145.819 202.808 143.442C172.708 136.823 144.5 121.938 117.22 107.544C76.2814 85.9419 37.6142 65.5389 -2.86735 74.945L-3 74.3679C6.79982 72.0903 16.7043 71.4643 27.2764 72.4529C36.7255 73.3364 46.5223 75.5044 57.2286 79.0783C77.151 85.7303 96.7477 96.0702 117.495 107.018C172.784 136.191 229.952 166.358 299.724 129.313L300 129.836C291.488 134.354 282.835 138.023 274.278 140.737C266.139 143.32 257.825 145.122 249.567 146.096C244.466 146.697 239.354 146.999 234.197 146.999L234.196 147Z" fill="#97A1FF"/>
<path d="M236.581 160C233.88 160 231.17 159.934 228.456 159.799C212.4 159.01 196.148 155.866 180.155 150.454C88.5737 119.468 60.7166 115.102 -2.75508 143.432L-3 142.907C13.6824 135.461 27.2487 130.626 39.6922 127.693C52.8469 124.591 65.1605 123.487 78.4421 124.216C91.1792 124.916 105.114 127.339 122.297 131.843C136.958 135.685 153.776 140.919 180.347 149.91C216.433 162.12 246.962 160.323 266.219 156.665C287.087 152.701 299.581 145.759 299.705 145.688L300 146.189C299.876 146.26 287.316 153.241 266.359 157.226C256.656 159.072 246.672 160 236.581 160Z" fill="#97A1FF"/>
<path d="M253.469 128C217.668 128 182.905 113.914 146.171 99.0307C100.58 80.5599 53.4364 61.4594 -2.96312 65.0143L-3 64.423C22.2956 62.8286 48.1592 65.7315 76.0676 73.2961C100.73 79.982 123.944 89.3871 146.393 98.4824C184.433 113.895 220.366 128.453 257.46 127.348C275.326 126.816 285.796 121.852 291.433 117.78C297.532 113.376 299.441 109.042 299.459 108.999L300 109.233C299.922 109.415 298.029 113.733 291.818 118.232C288.183 120.865 283.816 123.005 278.838 124.595C272.627 126.577 265.439 127.704 257.477 127.941C256.142 127.981 254.803 128 253.469 128Z" fill="#97A1FF"/>
</g>
<defs>
<linearGradient id="paint0_linear_1124_10928" x1="0" y1="-74" x2="299.023" y2="225.376" gradientUnits="userSpaceOnUse">
<stop stop-color="#8591FF"/>
<stop offset="1" stop-color="#6170FF"/>
</linearGradient>
<clipPath id="clip0_1124_10928">
<rect width="300" height="225" fill="white"/>
</clipPath>
</defs>
</svg>
